<?xml version="1.0" standalone="no"?>
<!DOCTYPE svg PUBLIC "-//W3C//DTD SVG 1.1//EN" "http://www.w3.org/Graphics/SVG/1.1/DTD/svg11.dtd" >
<svg xmlns="http://www.w3.org/2000/svg">
<metadata></metadata>
<defs>
<font id="flama_blackregular" horiz-adv-x="1228" >
<font-face units-per-em="2048" ascent="1638" descent="-410" />
<missing-glyph horiz-adv-x="409" />
<glyph unicode="&#xfb01;" horiz-adv-x="1454" d="M43 784v295h131v92q0 72 23 129t60 93t87.5 60t102 34t106.5 10q158 0 240 -27v-251q-62 8 -117 8q-34 0 -56 -19.5t-22 -52.5v-76h203v-295h-203v-784h-424v784h-131zM934 0v1104h426v-1104h-426zM934 1204v334h426v-334h-426z" />
<glyph unicode="&#xfb02;" horiz-adv-x="1550" d="M43 784v295h131v92q0 72 23 129t60 93t87.5 60t102 34t106.5 10q158 0 240 -27v-251q-62 8 -117 8q-34 0 -56 -19.5t-22 -52.5v-76h203v-295h-203v-784h-424v784h-131zM922 270v1190h428v-1057q0 -39 15 -57t65 -18q17 0 79 8v-322q-119 -39 -233 -39q-160 0 -257 76 t-97 219z" />
<glyph horiz-adv-x="2048" />
<glyph horiz-adv-x="2048" />
<glyph unicode="&#xd;" horiz-adv-x="2048" />
<glyph horiz-adv-x="409" />
<glyph unicode=" "  horiz-adv-x="409" />
<glyph unicode="&#x09;" horiz-adv-x="409" />
<glyph unicode="&#xa0;" horiz-adv-x="409" />
<glyph unicode="!" horiz-adv-x="659" d="M109 934v526h442v-526l-98 -440h-246zM119 0v397h422v-397h-422z" />
<glyph unicode="&#x22;" horiz-adv-x="1060" d="M131 1149v311h334v-311l-49 -375h-236zM596 1149v311h334v-311l-49 -375h-236z" />
<glyph unicode="#" horiz-adv-x="1304" d="M51 334l37 231h234l53 363h-250l35 227h239l45 309h205l-37 -309h234l41 309h207l-43 -309h233l-29 -227h-233l-49 -363h241l-28 -231h-248l-43 -336h-207l43 336h-233l-49 -336h-205l49 336h-242zM530 565h232l53 363h-235z" />
<glyph unicode="$" horiz-adv-x="1218" d="M51 197l195 288q183 -131 340 -131q143 0 143 68q0 22 -12 37.5t-25 22t-35 14.5l-258 71q-139 40 -221 133.5t-82 231.5q0 159 108.5 280t293.5 156v139h282v-137q206 -24 332 -113l-194 -288q-52 42 -134.5 68t-144.5 26q-135 0 -135 -70q0 -9 2.5 -16t5 -12.5 t9.5 -10.5t11 -7.5t14.5 -6.5t14.5 -5t16 -4.5t15 -4.5l250 -70q157 -44 239 -136.5t82 -223.5q0 -93 -31 -169t-86.5 -126.5t-121 -83.5t-144.5 -51v-150h-282v135q-129 10 -237 43t-210 103z" />
<glyph unicode="%" horiz-adv-x="1810" d="M66 918v294q0 58 20 105t52.5 78t77 51.5t91 29.5t96.5 9t97 -9t92.5 -30t79.5 -52t55 -79.5t21 -108.5v-288q0 -57 -21 -103.5t-55 -76.5t-78.5 -50.5t-90.5 -29.5t-93 -9q-49 0 -95 8t-92 28t-80.5 49.5t-55.5 77t-21 106.5zM334 0l938 1468h213l-938 -1468h-213z M334 918q0 -25 19 -43.5t55 -18.5q35 0 53 20t18 46v299q0 24 -20 40.5t-53 16.5q-34 0 -53 -16.5t-19 -40.5v-303zM1063 248v295q0 58 20 105t53.5 77t78 50.5t91.5 29t97 8.5t96.5 -8.5t92 -29t79 -51.5t54 -79t20.5 -108v-289q0 -70 -31 -124t-82 -84.5t-108 -45 t-117 -14.5q-62 0 -119.5 13.5t-109.5 43t-83.5 84t-31.5 127.5zM1331 248q0 -25 19 -43.5t55 -18.5q35 0 53.5 20t18.5 46v299q0 24 -19.5 40.5t-52.5 16.5q-34 0 -54 -16.5t-20 -40.5v-303z" />
<glyph unicode="&#x26;" horiz-adv-x="1726" d="M63 403q0 78 32.5 146.5t86.5 118t114 84t126 55.5q-54 54 -96.5 130t-42.5 138q0 194 141 302t414 108q213 0 344 -98t131 -261q0 -252 -285 -360l160 -182q7 25 31 159l354 -32q-18 -122 -56.5 -208.5t-99.5 -160.5l312 -344h-570l-94 102q-93 -66 -216 -101.5 t-253 -35.5q-143 0 -262 48.5t-195 150.5t-76 241zM510 436q0 -70 47 -120t137 -50q99 0 170 58l-266 297q-88 -58 -88 -185zM758 1114q0 -42 78 -133l36 -43q46 24 76.5 74.5t30.5 107.5q0 38 -33.5 66t-75.5 28q-57 0 -84.5 -27t-27.5 -73z" />
<glyph unicode="'" horiz-adv-x="595" d="M131 1149v311h334v-311l-49 -375h-236z" />
<glyph unicode="(" horiz-adv-x="708" d="M150 567q0 251 85.5 493.5t231.5 414.5l176 -5q-102 -254 -142 -449.5t-40 -453.5q0 -495 182 -934l-176 -4q-141 170 -229 421t-88 517z" />
<glyph unicode=")" horiz-adv-x="708" d="M66 -367q182 439 182 934q0 258 -40 453.5t-142 449.5l176 5q146 -172 231.5 -414.5t85.5 -493.5q0 -266 -88 -517t-229 -421z" />
<glyph unicode="*" horiz-adv-x="1062" d="M66 1126l112 183l240 -129v280h227v-280l236 129l116 -183l-276 -149l182 -254l-188 -119l-185 256l-184 -256l-186 119l178 254z" />
<glyph unicode="+" horiz-adv-x="1269" d="M49 528v238h467v465h240v-465h465v-238h-465v-465h-240v465h-467z" />
<glyph unicode="," horiz-adv-x="626" d="M102 0v395h422v-370l-157 -314h-193l74 289h-146z" />
<glyph unicode="-" horiz-adv-x="741" d="M55 449v337h631v-337h-631z" />
<glyph unicode="." horiz-adv-x="626" d="M102 0v397h422v-397h-422z" />
<glyph unicode="/" horiz-adv-x="757" d="M-68 -365l539 1835h272l-532 -1835h-279z" />
<glyph unicode="0" horiz-adv-x="1314" d="M66 444v566q0 101 34.5 183t91.5 135.5t134 89.5t158.5 51.5t168.5 15.5q86 0 167.5 -15.5t160.5 -52.5t137.5 -91t94.5 -138.5t36 -188.5v-555q0 -99 -36 -180.5t-95 -134t-136.5 -88t-157.5 -51t-162 -15.5q-85 0 -165.5 14t-160 48.5t-138.5 86.5t-95.5 134.5 t-36.5 185.5zM522 444q0 -48 36 -82t101 -34t99.5 37.5t34.5 85.5v575q0 45 -38 76t-98 31q-61 0 -98 -31.5t-37 -77.5v-580z" />
<glyph unicode="1" horiz-adv-x="1101" d="M100 1374l475 99h222v-1174h225v-299h-901v299h250v788l-246 -8z" />
<glyph unicode="2" horiz-adv-x="1253" d="M80 946v88q0 146 73.5 250t198.5 154.5t289 50.5q127 0 227.5 -35t164.5 -97t97 -145t33 -182q0 -41 -11.5 -84.5t-27 -80t-44.5 -80.5t-52 -74t-62.5 -73t-62 -66t-64 -64t-57.5 -57l-90 -93v-4h486v-354h-1053v242l373 424q23 25 70.5 77t67.5 75.5t47 61t37.5 68 t10.5 62.5v22q0 117 -119 117q-118 0 -118 -158v-45h-414z" />
<glyph unicode="3" horiz-adv-x="1265" d="M74 412v51h420v-39q0 -59 34.5 -85t110.5 -26q53 0 85 37.5t32 100.5q0 37 -19.5 64t-49.5 40t-57.5 19t-51.5 6h-76v290h84q81 0 120 28t39 106q0 61 -34.5 93.5t-89.5 32.5q-69 0 -95 -27.5t-26 -74.5v-39h-416v51q0 202 146.5 323.5t398.5 121.5q251 0 394.5 -112 t143.5 -308q0 -118 -59 -201t-160 -116v-13q120 -29 190 -116.5t70 -208.5q0 -98 -35.5 -175t-93.5 -125t-138.5 -79.5t-163 -43.5t-175.5 -12q-258 0 -393 109t-135 328z" />
<glyph unicode="4" horiz-adv-x="1296" d="M63 268v320l531 872h493l-569 -854h182v129l422 301v-430h131v-338h-131v-268h-422v268h-637z" />
<glyph unicode="5" horiz-adv-x="1255" d="M78 356v105h416v-33q0 -47 33.5 -78t105.5 -31q131 0 131 130v98q0 54 -37 86.5t-100 32.5q-67 0 -121 -62l-387 45l37 811h944v-354h-602l-9 -244q129 84 312 84q57 0 111.5 -11t107 -38t91.5 -66.5t63 -101.5t24 -139v-184q0 -84 -32 -155t-87.5 -121t-129 -85.5 t-155.5 -52.5t-169 -17q-154 0 -275.5 41.5t-196.5 129.5t-75 210z" />
<glyph unicode="6" horiz-adv-x="1286" d="M66 424v606q0 108 50 196.5t134 144t190 85t222 29.5q248 0 394 -108t146 -300v-80h-420v43q0 52 -34 78.5t-91 26.5q-61 0 -97 -31t-36 -84v-201q158 95 328 95q177 0 277 -95t100 -241v-187q0 -103 -49 -186t-131.5 -134.5t-186.5 -78.5t-219 -27q-111 0 -213 29.5 t-184 84t-131 141.5t-49 194zM524 430q0 -51 35 -82t96 -31q64 0 102 31.5t38 77.5v121q0 40 -26 66t-56.5 35t-61.5 9q-52 0 -89.5 -31t-37.5 -110v-86z" />
<glyph unicode="7" horiz-adv-x="1261" d="M82 1108v352h1110v-301q-89 -80 -174 -199t-158.5 -267.5t-118 -330.5t-43.5 -362h-452q3 178 71.5 389t176.5 397.5t233 321.5h-645z" />
<glyph unicode="8" horiz-adv-x="1284" d="M63 385v70q0 93 48 166.5t120 111.5q-64 30 -104.5 103t-40.5 147v82q0 99 44 179.5t119.5 132.5t175 80t212.5 28q115 0 215.5 -26.5t177.5 -76.5t121.5 -130.5t44.5 -182.5v-78q0 -84 -39.5 -152.5t-101.5 -105.5q68 -32 117 -106.5t49 -157.5v-98q0 -124 -79 -215.5 t-208.5 -136t-290.5 -44.5q-128 0 -230 22t-182.5 69t-124 128t-43.5 191zM506 395q0 -49 37 -75.5t98 -26.5q64 0 100.5 27t36.5 79v68q0 59 -40 87t-99 28q-56 0 -94.5 -25t-38.5 -70v-92zM506 977q0 -50 36.5 -76.5t98.5 -26.5q64 0 100.5 27.5t36.5 79.5v68 q0 59 -40 86.5t-99 27.5q-56 0 -94.5 -24.5t-38.5 -69.5v-92z" />
<glyph unicode="9" horiz-adv-x="1286" d="M66 870v187q0 83 32 153.5t87.5 120.5t130 85t159.5 52t176 17q88 0 172 -18.5t157.5 -56t129 -90t87.5 -126.5t32 -160v-606q0 -108 -50 -196.5t-134 -144t-190 -85t-222 -29.5q-249 0 -395 108t-146 300v80h420v-43q0 -52 34 -78.5t91 -26.5q61 0 97 31t36 84v219 q-104 -112 -328 -112q-177 0 -276.5 94.5t-99.5 240.5zM500 920q0 -58 42 -85.5t91 -27.5q52 0 94.5 34t42.5 113v86q0 51 -35 82t-96 31q-64 0 -101.5 -31.5t-37.5 -77.5v-124z" />
<glyph unicode=":" horiz-adv-x="626" d="M102 0v397h422v-397h-422zM102 709v397h422v-397h-422z" />
<glyph unicode=";" horiz-adv-x="626" d="M102 0v395h422v-370l-157 -314h-193l74 289h-146zM102 709v397h422v-397h-422z" />
<glyph unicode="&#x3c;" horiz-adv-x="1269" d="M104 557v182l949 457l106 -219l-694 -328l700 -330l-108 -217z" />
<glyph unicode="=" horiz-adv-x="1269" d="M49 287v237h1172v-237h-1172zM49 739v240h1172v-240h-1172z" />
<glyph unicode="&#x3e;" horiz-adv-x="1269" d="M104 319l701 330l-694 328l106 219l948 -457v-182l-952 -455z" />
<glyph unicode="?" horiz-adv-x="1173" d="M70 997v66q0 83 30.5 153t82.5 118.5t121.5 82t146.5 49t159 15.5q248 0 382 -110t134 -306q0 -115 -51 -196t-141 -144q-14 -10 -44 -26.5t-52 -30.5t-45 -32.5t-35.5 -41.5t-12.5 -49v-51h-378v49q0 87 30 144t99 118q21 18 68 53t75.5 57.5t53 57t24.5 67.5 q0 47 -34 77t-87 30q-62 0 -107 -29t-45 -80v-41h-374zM342 0v397h422v-397h-422z" />
<glyph unicode="@" horiz-adv-x="1959" d="M90 539q0 200 77 374t209 295.5t313 190.5t384 69q122 0 238.5 -29t217.5 -87.5t177 -139.5t120 -192.5t44 -239.5q0 -111 -41.5 -220t-110.5 -195t-163 -148t-195 -84h-342l22 109h-8q-124 -131 -282 -131q-125 0 -197 59t-72 178q0 38 6 76q45 247 62 326 q24 135 132.5 219t248.5 84q67 0 133 -22t98 -68h2l13 71h346l-131 -731q125 52 207.5 176t82.5 285q0 139 -53.5 247t-144.5 172.5t-203 97t-238 32.5q-147 0 -271 -42.5t-211.5 -116.5t-149 -173t-90.5 -213t-29 -236q0 -194 98 -348.5t264 -238.5q151 -74 344 -74 q176 0 301 21t312 79l45 -149q-288 -123 -649 -123q-200 0 -330 39q-261 79 -423.5 291t-162.5 510zM846 455q0 -41 23 -68t65 -27q59 0 96 37.5t47 94.5l39 213q2 8 2 28q0 42 -28 66t-72 24q-53 0 -88 -40.5t-45 -96.5l-35 -201q-4 -16 -4 -30z" />
<glyph unicode="A" horiz-adv-x="1536" d="M12 0l494 1462h534l484 -1462h-461l-70 233h-485l-70 -233h-426zM608 571h285l-139 473h-6z" />
<glyph unicode="B" horiz-adv-x="1466" d="M106 0v1460h861q106 0 189 -29.5t132.5 -80.5t75 -115.5t25.5 -138.5q0 -116 -60.5 -214.5t-173.5 -133.5v-7q118 -31 184 -122.5t66 -204.5q0 -80 -27 -152.5t-78.5 -131.5t-136 -94.5t-190.5 -35.5h-867zM563 344h240q63 0 97 37.5t34 87.5q0 48 -37 79.5t-102 31.5 h-232v-236zM563 897h236q66 0 99.5 37.5t33.5 89.5q0 43 -33.5 72.5t-95.5 29.5h-240v-229z" />
<glyph unicode="C" horiz-adv-x="1402" d="M66 524v424q0 108 35.5 198t96.5 152t143.5 104.5t175 62.5t192.5 20q90 0 176.5 -16t169 -53.5t144.5 -92t100 -137.5t38 -185v-90h-430v47q0 81 -55.5 125.5t-130.5 44.5q-90 0 -141.5 -48t-51.5 -138v-416q0 -93 49.5 -143.5t143.5 -50.5q75 0 130.5 44.5t55.5 125.5 v47h430v-96q0 -100 -37 -182t-98.5 -136t-143 -91t-167.5 -53t-176 -16q-101 0 -193 18t-176 59.5t-145.5 103.5t-98 156.5t-36.5 211.5z" />
<glyph unicode="D" horiz-adv-x="1433" d="M102 0v1460h650q102 0 192 -17.5t168.5 -56t135 -95.5t88.5 -140.5t32 -187.5v-433q0 -138 -49 -242.5t-135.5 -166t-193.5 -91.5t-234 -30h-654zM561 356h160q89 0 136.5 55t47.5 130v381q0 82 -52.5 131t-141.5 49h-150v-746z" />
<glyph unicode="E" horiz-adv-x="1333" d="M102 0v1460h1137v-354h-678v-201h537v-352h-537v-197h678v-356h-1137z" />
<glyph unicode="F" horiz-adv-x="1288" d="M102 0v1460h1137v-354h-678v-221h537v-357h-537v-528h-459z" />
<glyph unicode="G" horiz-adv-x="1394" d="M66 524v424q0 108 35.5 198t96.5 152t143.5 104.5t175 62.5t192.5 20q90 0 177.5 -16t172 -53.5t148 -92t102.5 -137.5t39 -185v-61h-430v35q0 81 -55.5 125.5t-131.5 44.5q-91 0 -147 -48.5t-56 -138.5v-432q0 -95 50 -151t143 -56q186 0 186 164v39h-213v297h656v-366 q0 -100 -38.5 -182t-101.5 -136t-147 -91t-171 -53t-177 -16q-102 0 -194 18t-176 59.5t-145 103.5t-97.5 156.5t-36.5 211.5z" />
<glyph unicode="H" horiz-adv-x="1490" d="M102 0v1460h459v-526h369v526h459v-1460h-459v539h-369v-539h-459z" />
<glyph unicode="I" horiz-adv-x="663" d="M102 0v1460h459v-1460h-459z" />
<glyph unicode="J" horiz-adv-x="1363" d="M51 481v62h436v-56q0 -159 160 -159q88 0 124 47t36 117v968h459v-938q0 -257 -157.5 -402t-434.5 -145q-151 0 -261.5 25.5t-194 83t-125.5 156.5t-42 241z" />
<glyph unicode="K" horiz-adv-x="1447" d="M102 0v1460h459v-647l426 647h445l-404 -598l408 -862h-498l-248 559l-129 -168v-391h-459z" />
<glyph unicode="L" horiz-adv-x="1280" d="M102 0v1460h459v-1104h678v-356h-1137z" />
<glyph unicode="M" horiz-adv-x="1781" d="M102 0v1460h578l215 -594h6l213 594h565v-1460h-413v887h-4l-224 -662h-290l-228 662h-6v-887h-412z" />
<glyph unicode="N" horiz-adv-x="1544" d="M102 0v1460h445l477 -655h4v655h414v-1460h-414l-508 717h-4v-717h-414z" />
<glyph unicode="O" horiz-adv-x="1437" d="M66 541v374q0 115 35 210.5t95.5 161t143 111t176.5 66.5t197 21q104 0 197 -18t179 -60t147.5 -106t98.5 -163t37 -223v-372q0 -121 -37 -219t-99 -162t-147.5 -107t-177 -61.5t-192.5 -18.5q-105 0 -197 17t-177.5 58.5t-146 105t-96.5 162t-36 223.5zM528 541 q0 -100 49 -153.5t144 -53.5q88 0 138 53t50 145v398q0 94 -55.5 145t-136.5 51q-189 0 -189 -196v-389z" />
<glyph unicode="P" horiz-adv-x="1419" d="M102 0v1460h727q132 0 235 -40.5t165 -109t93.5 -153t31.5 -178.5q0 -79 -18 -151.5t-58.5 -139.5t-100 -116.5t-149 -79t-199.5 -29.5h-268v-463h-459zM561 797h182q76 0 120 47t44 112q0 66 -42 113t-120 47h-184v-319z" />
<glyph unicode="Q" horiz-adv-x="1437" d="M66 541v374q0 115 35 210.5t95.5 161t143 111t176.5 66.5t197 21q104 0 197 -18t179 -60t147.5 -106t98.5 -163t37 -223v-372q0 -248 -151 -396l194 -61l-246 -358l-417 247h-33q-105 0 -197 17t-177.5 58.5t-146 105t-96.5 162t-36 223.5zM528 541q0 -100 49 -153.5 t144 -53.5q88 0 138 53t50 145v398q0 94 -55.5 145t-136.5 51q-189 0 -189 -196v-389z" />
<glyph unicode="R" horiz-adv-x="1439" d="M102 0v1460h701q141 0 249 -38t172 -103.5t96 -147.5t32 -176q0 -141 -66 -257.5t-196 -178.5l307 -559h-504l-236 483h-96v-483h-459zM561 797h180q76 0 120 46.5t44 112.5t-42 113t-120 47h-182v-319z" />
<glyph unicode="S" horiz-adv-x="1316" d="M12 139l217 320q81 -62 185.5 -106t203.5 -44q31 0 57.5 3.5t53.5 12t43 26t16 42.5t-9 43t-29 29.5t-38 18t-50 14.5l-259 71q-156 43 -249 149t-93 261q0 101 42 192.5t117 160.5t188 110t247 41q193 0 314.5 -33t253.5 -111l-242 -301q-56 44 -145 72.5t-158 28.5 q-164 0 -164 -88q0 -14 4 -25.5t14.5 -20t20 -15t29 -13t32.5 -10t39.5 -10.5t42.5 -11l211 -59q180 -51 273.5 -156t93.5 -252q0 -89 -26 -164.5t-71.5 -129.5t-104.5 -95.5t-129.5 -66t-141.5 -36.5t-144 -12q-205 0 -355 33.5t-290 130.5z" />
<glyph unicode="T" horiz-adv-x="1368" d="M45 1106v354h1278v-354h-408v-1106h-462v1106h-408z" />
<glyph unicode="U" horiz-adv-x="1484" d="M98 530v930h459v-913q0 -106 55 -161.5t144 -55.5q83 0 134.5 58t51.5 159v913h444v-919q0 -139 -53.5 -249.5t-145 -179t-208 -104t-248.5 -35.5q-306 0 -469.5 138t-163.5 419z" />
<glyph unicode="V" horiz-adv-x="1417" d="M10 1460h459l246 -985h8l258 985h426l-465 -1462h-483z" />
<glyph unicode="W" horiz-adv-x="2017" d="M16 1460h451l174 -760h6l180 760h412l166 -760h2l170 760h424l-356 -1462h-435l-204 815h-9l-211 -815h-411z" />
<glyph unicode="X" horiz-adv-x="1429" d="M2 0l428 756l-397 704h489l219 -420l213 420h445l-400 -715l428 -745h-485l-248 457l-233 -457h-459z" />
<glyph unicode="Y" horiz-adv-x="1396" d="M-4 1460h469l254 -538l244 538h438l-473 -893v-567h-461v569z" />
<glyph unicode="Z" horiz-adv-x="1345" d="M74 0v264l639 842h-619v354h1174v-305l-596 -799h588v-356h-1186z" />
<glyph unicode="[" horiz-adv-x="724" d="M158 -377v1837h518v-184h-197v-1473h195v-180h-516z" />
<glyph unicode="\" horiz-adv-x="757" d="M-4 1470h272l539 -1835h-279z" />
<glyph unicode="]" horiz-adv-x="724" d="M49 1276v184h518v-1837h-516v180h195v1473h-197z" />
<glyph unicode="^" horiz-adv-x="1171" d="M135 246l311 1018h295l293 -1018h-256l-192 725l-197 -725h-254z" />
<glyph unicode="_" horiz-adv-x="1024" d="M0 -57h1024v-281h-1024v281z" />
<glyph unicode="`" horiz-adv-x="686" d="M57 1591h383l185 -377h-269z" />
<glyph unicode="a" horiz-adv-x="1236" d="M51 287q0 87 38.5 155.5t98 108.5t139 66t153 35.5t149.5 9.5h94v71q0 50 -34.5 81.5t-100.5 31.5q-71 0 -100 -35t-29 -80v-24h-377v49q0 115 75 201t196.5 128.5t271.5 42.5q102 0 193 -23.5t166.5 -71t120 -128t44.5 -184.5v-471q0 -88 18 -250h-395l-12 143h-12 q-31 -50 -79 -86t-99.5 -52.5t-92.5 -23t-78 -6.5q-154 0 -251 81t-97 231zM483 360q0 -98 111 -98q43 0 86 35.5t43 97.5v70h-76q-77 0 -120.5 -23t-43.5 -82z" />
<glyph unicode="b" horiz-adv-x="1273" d="M94 0v1460h426v-483h4q58 74 137.5 113.5t165.5 39.5q186 0 285.5 -104.5t99.5 -282.5v-397q0 -159 -123.5 -266t-304.5 -107q-73 0 -143.5 30.5t-122.5 92.5h-4v-96h-420zM520 401q0 -40 14 -69.5t36.5 -44t44.5 -21t44 -6.5q56 0 91.5 39.5t35.5 110.5v266 q0 69 -36.5 107t-87.5 38q-63 0 -102.5 -35t-39.5 -133v-252z" />
<glyph unicode="c" horiz-adv-x="1196" d="M61 426v225q0 98 33 179.5t87.5 136t126.5 92t149 54.5t157 17q105 0 200 -26t169.5 -74t119 -123.5t44.5 -167.5v-69h-412v43q0 59 -30.5 88.5t-83.5 29.5q-63 0 -96 -34.5t-33 -100.5v-284q0 -67 33.5 -103.5t95.5 -36.5q53 0 83.5 29.5t30.5 89.5v43h412v-86 q0 -92 -44 -165t-119.5 -118t-169.5 -68.5t-200 -23.5q-81 0 -157 14t-149 48t-127 84.5t-87 129.5t-33 177z" />
<glyph unicode="d" horiz-adv-x="1271" d="M61 360v398q0 160 117.5 266t296.5 106q76 0 151.5 -27.5t123.5 -82.5h4v440h424v-1460h-416v135h-8q-59 -77 -140.5 -118.5t-167.5 -41.5q-186 0 -285.5 103.5t-99.5 281.5zM487 436q0 -70 38 -110.5t89 -40.5q58 0 99 39.5t41 119.5v258q0 75 -44 108.5t-94 33.5 q-54 0 -91.5 -42t-37.5 -122v-244z" />
<glyph unicode="e" horiz-adv-x="1191" d="M61 430v195q0 104 33 190t88 143.5t129 97t153.5 57t164.5 17.5q100 0 189.5 -30t159.5 -86t111 -145.5t41 -200.5v-213h-641v-31q0 -52 36.5 -86t81.5 -45.5t95 -11.5q118 0 332 61l68 -270q-229 -99 -473 -99q-88 0 -168 14.5t-154 49t-128 86t-86 130.5t-32 177z M489 674h250v43q0 60 -34.5 93.5t-92.5 33.5q-55 0 -89 -35t-34 -92v-43z" />
<glyph unicode="f" horiz-adv-x="839" d="M43 784v295h131v92q0 72 23 129t60 93t87.5 60t102 34t106.5 10q158 0 240 -27v-251q-62 8 -117 8q-34 0 -56 -19.5t-22 -52.5v-76h203v-295h-203v-784h-424v784h-131z" />
<glyph unicode="g" horiz-adv-x="1284" d="M74 453v297q0 160 124 270t304 110q73 0 150 -29t124 -81h4v86h410v-981q0 -134 -46 -236t-129 -164t-190.5 -94t-238.5 -34q-156 9 -267 26.5t-229 61.5l121 292q177 -61 344 -61q106 0 157.5 51t51.5 139v93h-4q-62 -72 -132.5 -99.5t-162.5 -27.5q-187 0 -289 102.5 t-102 278.5zM500 522q0 -70 36 -106.5t93 -36.5q58 0 96.5 36.5t38.5 116.5v156q0 32 -10 57.5t-25.5 41t-35.5 25.5t-37.5 13.5t-34.5 3.5q-53 0 -87 -40.5t-34 -120.5v-146z" />
<glyph unicode="h" horiz-adv-x="1294" d="M94 0v1460h426v-510h4q65 94 149.5 137t198.5 43q47 0 93 -10t91.5 -34t79.5 -59t55 -89t21 -121v-817h-426v649q0 162 -135 162q-54 0 -92.5 -48.5t-38.5 -135.5v-627h-426z" />
<glyph unicode="i" horiz-adv-x="614" d="M94 0v1104h426v-1104h-426zM94 1204v334h426v-334h-426z" />
<glyph unicode="j" horiz-adv-x="647" d="M6 -82q16 -4 57 -4q72 0 72 78v1114h426v-1149q0 -89 -32.5 -158t-87 -110t-120.5 -61.5t-139 -20.5q-75 0 -176 16v295zM135 1204v334h426v-334h-426z" />
<glyph unicode="k" horiz-adv-x="1230" d="M94 0v1460h426v-768l283 412h416l-269 -387l260 -717h-454l-146 440l-90 -116v-324h-426z" />
<glyph unicode="l" horiz-adv-x="710" d="M82 270v1190h428v-1057q0 -39 15 -57t65 -18q18 0 80 8v-322q-119 -39 -234 -39q-160 0 -257 76t-97 219z" />
<glyph unicode="m" horiz-adv-x="1986" d="M94 0v1104h418v-154h4q125 180 356 180q48 0 93.5 -9t90.5 -28.5t81 -56t55 -86.5h6q125 180 367 180q47 0 93 -10t91.5 -34t79.5 -59t55 -89t21 -121v-817h-426v649q0 162 -136 162q-54 0 -92.5 -48.5t-38.5 -135.5v-627h-426v649q0 162 -135 162q-54 0 -92.5 -48.5 t-38.5 -135.5v-627h-426z" />
<glyph unicode="n" horiz-adv-x="1294" d="M94 0v1104h418v-141h4q131 167 356 167q47 0 93 -10t91.5 -34t79.5 -59t55 -89t21 -121v-817h-426v649q0 162 -135 162q-54 0 -92.5 -48.5t-38.5 -135.5v-627h-426z" />
<glyph unicode="o" d="M61 428v225q0 98 31 179t83.5 135.5t123.5 91.5t148.5 54t160.5 17t159.5 -14t151 -48.5t128.5 -86.5t87 -134t33 -185v-232q0 -98 -33.5 -177.5t-88 -130t-127.5 -84.5t-148.5 -48.5t-155.5 -14.5q-83 0 -158 12.5t-148.5 45t-127 82t-86.5 130t-33 183.5zM492 408 q0 -132 124 -132q61 0 91 37.5t30 98.5v274q0 61 -34 101t-89 40q-61 0 -91.5 -40.5t-30.5 -106.5v-272z" />
<glyph unicode="p" horiz-adv-x="1273" d="M94 -377v1483h418v-139h4q59 77 142 120t169 43q186 0 285.5 -104.5t99.5 -282.5v-397q0 -159 -123.5 -266t-304.5 -107q-70 0 -143.5 31.5t-116.5 83.5h-4v-465h-426zM520 401q0 -40 13.5 -69.5t35.5 -44t43 -21t43 -6.5q54 0 92.5 36t38.5 105v273q0 70 -36.5 108.5 t-87.5 38.5q-63 0 -102.5 -35t-39.5 -133v-252z" />
<glyph unicode="q" horiz-adv-x="1273" d="M61 358v390q0 172 116 277t298 105q76 0 155.5 -31.5t135.5 -94.5h4v102h410v-1483h-426v510h-4q-131 -158 -301 -158q-187 0 -287.5 103t-100.5 280zM487 436q0 -70 38 -110.5t89 -40.5q58 0 99 39.5t41 119.5v258q0 75 -44 108.5t-94 33.5q-54 0 -91.5 -42t-37.5 -122 v-244z" />
<glyph unicode="r" horiz-adv-x="966" d="M94 0v1104h418v-180h2q44 79 129 137.5t184 58.5q83 0 127 -12v-352q-112 16 -192 16q-35 0 -61.5 -2t-63 -13t-60 -29.5t-40.5 -55t-17 -86.5v-586h-426z" />
<glyph unicode="s" horiz-adv-x="1148" d="M37 102l176 271q70 -49 159.5 -84t168.5 -35q127 0 127 51q0 50 -76 68q-62 10 -244 61q-134 38 -202 111t-68 192q0 163 133.5 278t357.5 115q161 0 260 -25t222 -89l-205 -248q-56 38 -132.5 61t-131.5 23q-61 0 -88 -12.5t-27 -40.5q0 -15 9 -26t30 -18.5t30.5 -10 t34.5 -7.5l215 -47q152 -33 233 -119t81 -202q0 -82 -32.5 -149.5t-85 -112t-122.5 -75t-142.5 -44t-146.5 -13.5q-171 0 -289.5 24.5t-244.5 102.5z" />
<glyph unicode="t" horiz-adv-x="884" d="M43 784v295h133v291h426v-291h227v-295h-227v-372q0 -36 18.5 -59t69.5 -23q76 0 131 8v-315q-155 -46 -289 -46q-68 0 -126.5 14.5t-112.5 48.5t-85.5 100.5t-31.5 160.5v483h-133z" />
<glyph unicode="u" horiz-adv-x="1318" d="M102 287v817h426v-649q0 -162 136 -162q54 0 92.5 48.5t38.5 135.5v627h426v-1104h-418v166h-4q-132 -191 -357 -191q-47 0 -93 10t-91.5 33.5t-79.5 58.5t-55 89t-21 121z" />
<glyph unicode="v" horiz-adv-x="1222" d="M8 1104h455l178 -635h10l183 635h380l-374 -1106h-441z" />
<glyph unicode="w" horiz-adv-x="1837" d="M12 1104h432l138 -569h12l147 569h406l147 -569h11l141 569h383l-346 -1106h-383l-172 643h-6l-179 -643h-387z" />
<glyph unicode="x" horiz-adv-x="1198" d="M6 2l342 563l-328 539h453l162 -289l160 289h374l-323 -537l346 -565h-455l-178 311l-174 -311h-379z" />
<glyph unicode="y" d="M18 1104h455l182 -637h9l186 637h381l-402 -1155q-33 -94 -84.5 -161.5t-115.5 -105t-132 -54.5t-145 -17q-88 0 -200 22v310q67 -17 145 -17q41 0 73 16t42 44l8 22z" />
<glyph unicode="z" horiz-adv-x="1155" d="M82 0v256l481 541h-469v307h979l-2 -262l-469 -531h471v-311h-991z" />
<glyph unicode="{" horiz-adv-x="720" d="M66 508v194q64 11 78 30.5t14 78.5v387q0 128 61 195t164 67h289v-184h-148q-45 0 -45 -47v-365q0 -101 -28.5 -156.5t-98.5 -82.5v-13q78 -32 102.5 -79t24.5 -156v-524q0 -48 45 -48h148v-182h-289q-103 0 -164 67t-61 195v482q0 77 -18 106t-74 35z" />
<glyph unicode="|" horiz-adv-x="645" d="M180 -109v1594h285v-1594h-285z" />
<glyph unicode="}" horiz-adv-x="720" d="M49 -195h148q45 0 45 48v524q0 109 24.5 156t102.5 79v13q-70 27 -98.5 82.5t-28.5 156.5v365q0 47 -45 47h-148v184h289q103 0 164 -67t61 -195v-387q0 -59 14 -78.5t78 -30.5v-194q-56 -6 -74 -35t-18 -106v-482q0 -128 -61 -195t-164 -67h-289v182z" />
<glyph unicode="~" horiz-adv-x="1232" d="M55 485q11 69 31.5 125t53.5 104t84.5 74.5t117.5 26.5t278.5 -37t280.5 -37q43 0 67 26t48 81l160 -39q-8 -53 -19 -96t-32.5 -87.5t-50 -74.5t-73 -49t-100.5 -19q-67 0 -282 36t-283 36q-50 0 -72.5 -22t-40.5 -82z" />
<glyph unicode="&#xa1;" horiz-adv-x="659" d="M109 197l98 440h246l98 -440v-527h-442v527zM119 733v397h422v-397h-422z" />
<glyph unicode="&#xa2;" horiz-adv-x="1220" d="M82 496v200q0 94 30 173t82.5 134t118.5 92t144 58v160h368v-160q153 -37 247.5 -133t94.5 -234v-57h-395v31q0 67 -35.5 101t-95.5 34q-69 0 -106 -40t-37 -112v-262q0 -73 36.5 -114t106.5 -41q60 0 95.5 34t35.5 101v31h395v-76q0 -137 -94 -226.5t-248 -123.5v-175 h-368v172q-79 18 -144 51t-118 84.5t-83 127.5t-30 170z" />
<glyph unicode="&#xa3;" horiz-adv-x="1333" d="M86 0v338h162v246h-113v235h113v219q0 99 33.5 177.5t87 128t125 82.5t142 46t144.5 13q72 0 139.5 -14.5t130 -46t109 -77t74 -113t27.5 -149.5v-108h-363v59q0 54 -29 84.5t-86 30.5q-56 0 -85 -35.5t-29 -79.5v-217h327v-235h-327v-246h612l-70 -338h-1124z" />
<glyph unicode="&#xa4;" horiz-adv-x="1177" d="M106 362l125 127q-63 107 -63 224q0 109 61 219q-56 62 -123 129l127 125l121 -117q109 70 238 70q130 0 233 -70l117 117l129 -125l-119 -121q64 -103 64 -227t-66 -230l121 -121l-129 -126l-121 118q-101 -63 -229 -63q-126 0 -232 67q-20 -19 -65 -63.5t-62 -61.5z M369 713q0 -100 60 -171t163 -71q109 0 166 69.5t57 172.5q0 104 -59.5 176t-163.5 72q-109 0 -166 -71t-57 -177z" />
<glyph unicode="&#xa5;" horiz-adv-x="1396" d="M-4 1460h469l254 -524l244 524h438l-391 -737h286v-225h-368v-498h-461v498h-367v225h285z" />
<glyph unicode="&#xa6;" horiz-adv-x="770" d="M258 -96v729h254v-729h-254zM258 784v676h254v-676h-254z" />
<glyph unicode="&#xa7;" horiz-adv-x="1130" d="M106 162v71h275v-38q0 -57 44 -95.5t140 -38.5q94 0 139.5 38.5t45.5 78.5q0 14 -3.5 25.5t-13.5 21t-16.5 16t-24 13.5t-23 9.5t-26 9.5t-22.5 8l-195 57q-299 86 -299 321q0 148 104 242q-104 79 -104 232q0 161 120 256.5t326 95.5q195 0 316 -87.5t121 -252.5v-66 h-269v54q0 44 -42.5 79t-135.5 35q-80 0 -117.5 -29t-37.5 -71q0 -17 20.5 -33t42.5 -25t54.5 -19.5t37.5 -12.5l176 -64q48 -17 79 -30.5t74.5 -40t69.5 -56.5t45 -76.5t19 -103.5q0 -159 -102 -248q106 -93 106 -233q0 -167 -131.5 -275t-347.5 -108q-59 0 -117 9.5 t-118.5 34t-106 61.5t-74.5 98t-29 137zM410 672q0 -7 3 -14t9 -13t12 -10.5t16.5 -9.5t17.5 -8t19.5 -7t17.5 -5.5t17 -5t13 -3.5q49 -12 135 -39q41 16 59.5 41.5t18.5 50.5t-21.5 43t-75.5 35q-106 33 -157 47q-84 -34 -84 -102z" />
<glyph unicode="&#xa8;" horiz-adv-x="976" d="M76 1206v350h350v-350h-350zM571 1206v350h351v-350h-351z" />
<glyph unicode="&#xa9;" horiz-adv-x="1894" d="M104 709q0 170 62.5 323t172 266t267 179.5t338.5 66.5q188 0 348 -66t268.5 -179t169 -265t60.5 -323q0 -170 -62 -323.5t-170.5 -268t-268.5 -181.5t-345 -67q-192 0 -352 66.5t-266 181t-164 266.5t-58 324zM319 709q0 -151 52 -278.5t138.5 -211.5t199 -131 t235.5 -47q122 0 236.5 48t202.5 132.5t141 212.5t53 277q0 150 -51.5 277.5t-139 212.5t-202 133t-240.5 48q-128 0 -242 -47.5t-199 -132.5t-134.5 -213t-49.5 -280zM510 532v369q0 91 38 162.5t101.5 114t141.5 64.5t163 22q61 0 120 -10.5t116.5 -35.5t101 -61.5 t70.5 -93.5t27 -127v-117h-322v88q0 44 -30 68t-74 24q-111 0 -111 -102v-365q0 -108 111 -108q44 0 74 25t30 69v103h322v-136q0 -85 -39.5 -150t-104.5 -101.5t-137.5 -54t-149.5 -17.5q-68 0 -130.5 12t-121.5 40t-101.5 69.5t-68.5 105.5t-26 143z" />
<glyph unicode="&#xaa;" horiz-adv-x="862" d="M72 948q0 57 25 101.5t63.5 70t90.5 42t98.5 22.5t94.5 6h56v39q0 29 -20.5 48t-59.5 19q-44 0 -61 -20t-17 -47v-21h-250v35q0 112 101 176t249 64q66 0 124.5 -15t108 -45t78.5 -81.5t29 -118.5v-297q0 -58 13 -162h-263l-8 90q-39 -59 -104 -82.5t-121 -23.5 q-100 0 -163.5 52t-63.5 148zM123 461v186h649v-186h-649zM358 995q0 -57 66 -57q25 0 50.5 21.5t25.5 58.5v39h-43q-99 0 -99 -62z" />
<glyph unicode="&#xab;" horiz-adv-x="1370" d="M45 528l479 449l185 -164l-252 -285l256 -286l-189 -158zM657 528l480 449l184 -164l-252 -285l256 -286l-188 -158z" />
<glyph unicode="&#xac;" horiz-adv-x="1411" d="M119 528v246l1141 -6v-532h-275v286z" />
<glyph unicode="&#xad;" horiz-adv-x="741" d="M55 449v337h631v-337h-631z" />
<glyph unicode="&#xae;" horiz-adv-x="1105" d="M78 1071q0 126 60 233t169 170.5t244 63.5q142 0 252 -64t167.5 -170t57.5 -233q0 -128 -59 -234.5t-169 -170.5t-249 -64q-108 0 -198 37.5t-149.5 101.5t-92.5 149.5t-33 180.5zM209 1071q0 -161 101.5 -261.5t240.5 -100.5q140 0 243 100.5t103 261.5t-101 262 t-245 101t-243 -100t-99 -263zM356 827v510h236q91 0 136.5 -45.5t45.5 -115.5q0 -49 -22.5 -90t-65.5 -64l105 -195h-170l-80 170h-31v-170h-154zM510 1106h59q25 0 40.5 16.5t15.5 40.5q0 22 -14.5 39t-39.5 17h-61v-113z" />
<glyph unicode="&#xaf;" horiz-adv-x="970" d="M100 1225v280h768v-280h-768z" />
<glyph unicode="&#xb0;" horiz-adv-x="716" d="M90 1260q0 106 77.5 184t190.5 78q122 0 195.5 -74t73.5 -178q0 -108 -80 -185t-189 -77q-123 0 -195.5 75t-72.5 177zM262 1262q0 -44 28 -74.5t68 -30.5q42 0 71.5 30.5t29.5 74.5t-27 77t-74 33q-42 0 -69 -31t-27 -79z" />
<glyph unicode="&#xb1;" horiz-adv-x="1269" d="M49 0v238h1172v-238h-1172zM49 756v237h467v375h240v-375h465v-237h-465v-375h-240v375h-467z" />
<glyph unicode="&#xb2;" horiz-adv-x="798" d="M68 1309v49q0 121 92.5 187.5t234.5 66.5q146 0 228 -69t82 -187q0 -45 -16 -88t-49 -85t-58 -68t-68 -66l-61 -58v-2h262v-211h-623v150l225 239q7 8 22.5 24.5t21 22.5t17.5 19.5t16 19.5t12 17t11 18t7 17t5 19t1 19v13q0 53 -57 53q-47 0 -47 -76v-24h-258z" />
<glyph unicode="&#xb3;" horiz-adv-x="798" d="M70 999v29h272v-10q0 -74 72 -74q55 0 55 78q0 40 -24.5 56t-69.5 16h-47v163h51q48 0 67 15t19 59q0 74 -62 74q-17 0 -29.5 -5.5t-18 -11.5t-8.5 -19.5t-3 -19.5v-20v-6h-268v29q0 113 89 181.5t241 68.5t239.5 -63t87.5 -173q0 -67 -35.5 -113t-97.5 -65v-6 q72 -17 115 -66.5t43 -116.5q0 -68 -34 -118t-89.5 -76.5t-115 -38.5t-122.5 -12q-156 0 -241.5 62t-85.5 183z" />
<glyph unicode="&#xb4;" horiz-adv-x="686" d="M70 1214l184 377h383l-299 -377h-268z" />
<glyph unicode="&#xb5;" horiz-adv-x="1349" d="M102 -365v1469h426v-672q0 -23 6 -45t20 -44.5t42.5 -36t67.5 -13.5q50 0 90.5 48t40.5 120v643h426v-658q0 -90 90 -98l-4 -358q-149 2 -250 41t-142 133q-65 -189 -249 -189q-90 0 -145.5 31.5t-76.5 85.5l-16 -2l119 -420z" />
<glyph unicode="&#xb6;" horiz-adv-x="1271" d="M117 932q0 132 52 251.5t153.5 198t230.5 78.5h637v-227h-88v-1417h-234v1417h-133v-1417h-231v600q-102 12 -178.5 59.5t-121 120t-66 157t-21.5 179.5z" />
<glyph unicode="&#xb7;" horiz-adv-x="626" d="M102 537v397h422v-397h-422z" />
<glyph unicode="&#xb8;" horiz-adv-x="745" d="M92 -279q146 -32 232 -32q79 0 79 49q0 8 -2.5 14t-8.5 10t-11.5 6.5t-15 4.5t-15 2.5t-16.5 2t-15 1.5l-114 6l67 272h160l-35 -151q37 1 71.5 -2t74.5 -13.5t69 -27.5t48.5 -48t19.5 -73q0 -103 -98.5 -160t-239.5 -57q-110 0 -250 31v165z" />
<glyph unicode="&#xb9;" horiz-adv-x="798" d="M141 1544l267 55h155v-626h127v-195h-536v195h139v385l-137 -4z" />
<glyph unicode="&#xba;" horiz-adv-x="890" d="M82 1044v146q0 79 31 140t83 97t114.5 54t131.5 18t130.5 -16t116.5 -49.5t87.5 -95t32.5 -144.5v-147q0 -64 -22 -115.5t-58 -84.5t-84.5 -55.5t-97.5 -32t-101 -9.5q-54 0 -103.5 8t-98 29t-83.5 53.5t-57 84.5t-22 119zM129 461v186h649v-186h-649zM371 1032 q0 -80 75 -80q37 0 55.5 22.5t18.5 59.5v176q0 37 -21 60.5t-53 23.5q-75 0 -75 -88v-174z" />
<glyph unicode="&#xbb;" horiz-adv-x="1370" d="M45 242l256 286l-252 285l184 164l480 -449l-480 -444zM657 242l256 286l-251 285l184 164l479 -449l-479 -444z" />
<glyph unicode="&#xbc;" horiz-adv-x="1933" d="M141 1411l267 55h155v-626h127v-195h-536v195h139v385l-137 -4zM442 -4l822 1474h225l-821 -1474h-226zM1087 150v180l312 487h291l-336 -477h108v72l248 168v-240h76v-190h-76v-150h-248v150h-375z" />
<glyph unicode="&#xbd;" horiz-adv-x="1933" d="M141 1411l267 55h155v-626h127v-195h-536v195h139v385l-137 -4zM442 -4l822 1474h225l-821 -1474h-226zM1186 530v50q0 121 92.5 187.5t234.5 66.5q146 0 228 -69t82 -187q0 -45 -16 -88.5t-49 -85t-58.5 -68.5t-67.5 -66l-61 -57v-2h262v-211h-623v150l226 239 q6 7 20.5 22t19.5 20.5t16 18t15 18t12 16t10.5 16t7.5 15t6.5 16.5t3 16t1.5 18v13q0 53 -57 53q-47 0 -47 -76v-25h-258z" />
<glyph unicode="&#xbe;" horiz-adv-x="1933" d="M70 872v29h272v-10q0 -74 72 -74q55 0 55 78q0 40 -24.5 56t-69.5 16h-47v163h51q48 0 67 15t19 59q0 74 -62 74q-17 0 -29.5 -5.5t-18 -11.5t-8.5 -19.5t-3 -19.5v-20v-6h-268v29q0 113 89 181.5t241 68.5t239.5 -63t87.5 -173q0 -67 -35.5 -113t-97.5 -65v-6 q72 -17 115 -66.5t43 -116.5q0 -68 -34 -118t-89.5 -76.5t-115 -38.5t-122.5 -12q-156 0 -241.5 62t-85.5 183zM449 -4l821 1474h225l-821 -1474h-225zM1114 150v180l311 487h291l-336 -477h109v72l248 168v-240h75v-190h-75v-150h-248v150h-375z" />
<glyph unicode="&#xbf;" horiz-adv-x="1173" d="M61 66q0 115 51.5 196t141.5 144q13 9 42.5 25t51 30t45 33t36.5 42.5t13 49.5v51h379v-49q0 -87 -30 -144t-99 -118q-15 -13 -61.5 -45.5t-76.5 -56.5t-56.5 -61t-26.5 -73q0 -47 34 -76.5t87 -29.5q62 0 106.5 28.5t44.5 79.5v41h375v-65q0 -83 -30.5 -153 t-82.5 -118.5t-121.5 -82t-146.5 -49t-159 -15.5q-248 0 -382.5 110.5t-134.5 305.5zM424 733v397h422v-397h-422z" />
<glyph unicode="&#xc0;" horiz-adv-x="1536" d="M12 0l494 1462h534l484 -1462h-461l-70 233h-485l-70 -233h-426zM365 1960h383l184 -377h-268zM608 571h285l-139 473h-6z" />
<glyph unicode="&#xc1;" horiz-adv-x="1536" d="M12 0l494 1462h534l484 -1462h-461l-70 233h-485l-70 -233h-426zM608 571h285l-139 473h-6zM608 1583l185 377h383l-299 -377h-269z" />
<glyph unicode="&#xc2;" horiz-adv-x="1536" d="M12 0l494 1462h534l484 -1462h-461l-70 233h-485l-70 -233h-426zM317 1585l312 404h295l293 -404h-336l-113 191l-117 -191h-334zM608 571h285l-139 473h-6z" />
<glyph unicode="&#xc3;" horiz-adv-x="1536" d="M12 0l494 1462h534l484 -1462h-461l-70 233h-485l-70 -233h-426zM276 1606q22 136 102.5 226.5t207.5 90.5q66 0 191 -37t190 -37q12 0 21.5 3t16.5 6.5t13.5 12t10 13.5t8.5 18t7 18.5t6.5 22t6.5 21.5l203 -55q-8 -62 -28.5 -115.5t-54.5 -99.5t-88 -72.5t-122 -26.5 q-69 0 -191.5 35t-171.5 35t-70.5 -22.5t-39.5 -83.5zM608 571h285l-139 473h-6z" />
<glyph unicode="&#xc4;" horiz-adv-x="1536" d="M12 0l494 1462h534l484 -1462h-461l-70 233h-485l-70 -233h-426zM344 1575v350h350v-350h-350zM608 571h285l-139 473h-6zM840 1575v350h350v-350h-350z" />
<glyph unicode="&#xc5;" horiz-adv-x="1536" d="M12 0l494 1462h534l484 -1462h-461l-70 233h-485l-70 -233h-426zM510 1794q0 97 76 162t180 65q113 0 186.5 -55.5t73.5 -157.5q0 -95 -77 -161t-183 -66q-109 0 -182.5 57.5t-73.5 155.5zM608 571h285l-139 473h-6zM657 1802q0 -42 32 -71t77 -29q48 0 80.5 28t32.5 72 q0 46 -31 74.5t-82 28.5q-49 0 -79 -29t-30 -74z" />
<glyph unicode="&#xc6;" horiz-adv-x="2191" d="M4 0l680 1460h1413v-354h-678v-201h537v-352h-537v-197h678v-356h-1136v236h-394l-102 -236h-461zM713 571h248v568z" />
<glyph unicode="&#xc7;" horiz-adv-x="1402" d="M66 524v424q0 108 35.5 198t96.5 152t143.5 104.5t175 62.5t192.5 20q90 0 176.5 -16t169 -53.5t144.5 -92t100 -137.5t38 -185v-90h-430v47q0 81 -55.5 125.5t-130.5 44.5q-90 0 -141.5 -48t-51.5 -138v-416q0 -93 49.5 -143.5t143.5 -50.5q75 0 130.5 44.5t55.5 125.5 v47h430v-96q0 -93 -32 -170t-85.5 -130t-126 -91.5t-150 -58.5t-161.5 -26l-16 -71q37 1 71.5 -2t74.5 -13.5t69 -27.5t48.5 -48t19.5 -73q0 -103 -98.5 -160t-239.5 -57q-110 0 -250 31v165q146 -32 231 -32q80 0 80 49q0 8 -2.5 14t-8.5 10t-11.5 6.5t-15 4.5t-15 2.5 t-16.5 2t-15 1.5l-115 6l48 195q-90 8 -169.5 31.5t-151.5 67t-123 104t-81 148t-30 193.5z" />
<glyph unicode="&#xc8;" horiz-adv-x="1333" d="M102 0v1460h1137v-354h-678v-201h537v-352h-537v-197h678v-356h-1137zM299 1960h383l184 -377h-268z" />
<glyph unicode="&#xc9;" horiz-adv-x="1333" d="M102 0v1460h1137v-354h-678v-201h537v-352h-537v-197h678v-356h-1137zM520 1583l185 377h382l-299 -377h-268z" />
<glyph unicode="&#xca;" horiz-adv-x="1333" d="M102 0v1460h1137v-354h-678v-201h537v-352h-537v-197h678v-356h-1137zM217 1585l311 404h295l293 -404h-336l-112 191l-117 -191h-334z" />
<glyph unicode="&#xcb;" horiz-adv-x="1333" d="M102 0v1460h1137v-354h-678v-201h537v-352h-537v-197h678v-356h-1137zM258 1575v350h350v-350h-350zM754 1575v350h350v-350h-350z" />
<glyph unicode="&#xcc;" horiz-adv-x="663" d="M-84 1960h383l184 -377h-268zM102 0v1460h459v-1460h-459z" />
<glyph unicode="&#xcd;" horiz-adv-x="663" d="M102 0v1460h459v-1460h-459zM211 1583l184 377h383l-299 -377h-268z" />
<glyph unicode="&#xce;" horiz-adv-x="663" d="M-117 1585l312 404h294l293 -404h-336l-112 191l-117 -191h-334zM102 0v1460h459v-1460h-459z" />
<glyph unicode="&#xcf;" horiz-adv-x="663" d="M-90 1575v350h350v-350h-350zM102 0v1460h459v-1460h-459zM406 1575v350h350v-350h-350z" />
<glyph unicode="&#xd0;" horiz-adv-x="1495" d="M45 639v225h119v596h649q129 0 238 -28.5t195 -86.5t135 -155.5t49 -226.5v-433q0 -111 -32.5 -201t-89 -150.5t-135 -101.5t-167.5 -59t-189 -18h-653v639h-119zM623 356h159q89 0 137 55t48 130v381q0 82 -53 131t-142 49h-149v-238h202v-225h-202v-283z" />
<glyph unicode="&#xd1;" horiz-adv-x="1544" d="M102 0v1460h445l477 -655h4v655h414v-1460h-414l-508 717h-4v-717h-414zM281 1606q22 137 102 227t207 90q66 0 191 -37t190 -37q12 0 21.5 3t16.5 6.5t13.5 12t10 13.5t8.5 18t7 18.5t6.5 22t6.5 21.5l203 -55q-8 -62 -28.5 -115.5t-54.5 -99.5t-88 -72.5t-122 -26.5 q-69 0 -191.5 35t-171.5 35t-70.5 -22.5t-39.5 -83.5z" />
<glyph unicode="&#xd2;" horiz-adv-x="1437" d="M66 541v374q0 115 35 210.5t95.5 161t143 111t176.5 66.5t197 21q104 0 197 -18t179 -60t147.5 -106t98.5 -163t37 -223v-372q0 -121 -37 -219t-99 -162t-147.5 -107t-177 -61.5t-192.5 -18.5q-105 0 -197 17t-177.5 58.5t-146 105t-96.5 162t-36 223.5zM289 1960h383 l184 -377h-268zM528 541q0 -100 49 -153.5t144 -53.5q88 0 138 53t50 145v398q0 94 -55.5 145t-136.5 51q-189 0 -189 -196v-389z" />
<glyph unicode="&#xd3;" horiz-adv-x="1437" d="M66 541v374q0 115 35 210.5t95.5 161t143 111t176.5 66.5t197 21q104 0 197 -18t179 -60t147.5 -106t98.5 -163t37 -223v-372q0 -121 -37 -219t-99 -162t-147.5 -107t-177 -61.5t-192.5 -18.5q-105 0 -197 17t-177.5 58.5t-146 105t-96.5 162t-36 223.5zM528 541 q0 -100 49 -153.5t144 -53.5q88 0 138 53t50 145v398q0 94 -55.5 145t-136.5 51q-189 0 -189 -196v-389zM571 1583l185 377h383l-299 -377h-269z" />
<glyph unicode="&#xd4;" horiz-adv-x="1437" d="M66 541v374q0 115 35 210.5t95.5 161t143 111t176.5 66.5t197 21q104 0 197 -18t179 -60t147.5 -106t98.5 -163t37 -223v-372q0 -121 -37 -219t-99 -162t-147.5 -107t-177 -61.5t-192.5 -18.5q-105 0 -197 17t-177.5 58.5t-146 105t-96.5 162t-36 223.5zM268 1585 l312 404h294l293 -404h-336l-112 191l-117 -191h-334zM528 541q0 -100 49 -153.5t144 -53.5q88 0 138 53t50 145v398q0 94 -55.5 145t-136.5 51q-189 0 -189 -196v-389z" />
<glyph unicode="&#xd5;" horiz-adv-x="1437" d="M66 541v374q0 115 35 210.5t95.5 161t143 111t176.5 66.5t197 21q104 0 197 -18t179 -60t147.5 -106t98.5 -163t37 -223v-372q0 -121 -37 -219t-99 -162t-147.5 -107t-177 -61.5t-192.5 -18.5q-105 0 -197 17t-177.5 58.5t-146 105t-96.5 162t-36 223.5zM227 1606 q22 136 102.5 226.5t207.5 90.5q65 0 190 -37t191 -37q12 0 21.5 3t16.5 6.5t13.5 12t10 13.5t8.5 18t7 18.5t6.5 22t6.5 21.5l202 -55q-8 -62 -28 -115.5t-54.5 -99.5t-88 -72.5t-121.5 -26.5q-69 0 -191.5 35t-171.5 35t-71 -23t-40 -83zM528 541q0 -100 49 -153.5 t144 -53.5q88 0 138 53t50 145v398q0 94 -55.5 145t-136.5 51q-189 0 -189 -196v-389z" />
<glyph unicode="&#xd6;" horiz-adv-x="1437" d="M66 541v374q0 115 35 210.5t95.5 161t143 111t176.5 66.5t197 21q104 0 197 -18t179 -60t147.5 -106t98.5 -163t37 -223v-372q0 -121 -37 -219t-99 -162t-147.5 -107t-177 -61.5t-192.5 -18.5q-105 0 -197 17t-177.5 58.5t-146 105t-96.5 162t-36 223.5zM295 1575v350 h350v-350h-350zM528 541q0 -100 49 -153.5t144 -53.5q88 0 138 53t50 145v398q0 94 -55.5 145t-136.5 51q-189 0 -189 -196v-389zM791 1575v350h350v-350h-350z" />
<glyph unicode="&#xd7;" horiz-adv-x="1269" d="M98 1026l168 172l373 -373l362 373l168 -172l-360 -373l360 -377l-168 -172l-362 375l-363 -375l-167 172l360 375z" />
<glyph unicode="&#xd8;" horiz-adv-x="1437" d="M66 541v374q0 115 35 210.5t95.5 161t143 111t176.5 66.5t197 21q228 0 389 -84l102 147l133 -86l-108 -155q143 -146 143 -392v-372q0 -121 -37 -219t-99 -162t-147.5 -107t-177 -61.5t-192.5 -18.5q-210 0 -363 68l-106 -154l-133 86l106 156q-157 144 -157 410z M528 571l338 490q-53 65 -149 65q-189 0 -189 -196v-359zM586 377q49 -43 135 -43q88 0 138 53t50 145v312z" />
<glyph unicode="&#xd9;" horiz-adv-x="1484" d="M98 530v930h459v-913q0 -106 55 -161.5t144 -55.5q83 0 134.5 58t51.5 159v913h444v-919q0 -139 -53.5 -249.5t-145 -179t-208 -104t-248.5 -35.5q-306 0 -469.5 138t-163.5 419zM332 1960h383l184 -377h-268z" />
<glyph unicode="&#xda;" horiz-adv-x="1484" d="M98 530v930h459v-913q0 -106 55 -161.5t144 -55.5q83 0 134.5 58t51.5 159v913h444v-919q0 -139 -53.5 -249.5t-145 -179t-208 -104t-248.5 -35.5q-306 0 -469.5 138t-163.5 419zM612 1583l185 377h383l-299 -377h-269z" />
<glyph unicode="&#xdb;" horiz-adv-x="1484" d="M98 530v930h459v-913q0 -106 55 -161.5t144 -55.5q83 0 134.5 58t51.5 159v913h444v-919q0 -139 -53.5 -249.5t-145 -179t-208 -104t-248.5 -35.5q-306 0 -469.5 138t-163.5 419zM293 1585l311 404h295l293 -404h-336l-113 191l-116 -191h-334z" />
<glyph unicode="&#xdc;" horiz-adv-x="1484" d="M98 530v930h459v-913q0 -106 55 -161.5t144 -55.5q83 0 134.5 58t51.5 159v913h444v-919q0 -139 -53.5 -249.5t-145 -179t-208 -104t-248.5 -35.5q-306 0 -469.5 138t-163.5 419zM319 1575v350h351v-350h-351zM815 1575v350h350v-350h-350z" />
<glyph unicode="&#xdd;" horiz-adv-x="1396" d="M-4 1460h469l254 -538l244 538h438l-473 -893v-567h-461v569zM580 1583l184 377h383l-299 -377h-268z" />
<glyph unicode="&#xde;" horiz-adv-x="1419" d="M102 0v1460h459v-260h268q132 0 235 -36.5t165 -99t93.5 -139.5t31.5 -163q0 -90 -29.5 -171.5t-90 -150t-165 -109t-240.5 -40.5h-268v-291h-459zM561 596h182q76 0 120 43t44 102q0 60 -42 103t-120 43h-184v-291z" />
<glyph unicode="&#xdf;" horiz-adv-x="1466" d="M43 784v295h131v13q0 31 8.5 66.5t29 76t51.5 78t79 72.5t107.5 61t141.5 41.5t177 15.5q113 0 212.5 -27.5t177 -78.5t122.5 -132.5t45 -181.5q0 -98 -53 -174.5t-152 -103.5v-10q135 -48 216 -152t81 -235t-64.5 -231.5t-166 -151t-219.5 -50.5q-169 0 -267 33l25 316 q69 -11 90 -11q72 0 110 33.5t38 91.5q0 63 -58.5 100t-173.5 37v299h47q51 23 84 76t33 113q0 141 -137 141q-73 0 -115.5 -47t-42.5 -123v-1034h-426v784h-131z" />
<glyph unicode="&#xe0;" horiz-adv-x="1236" d="M51 287q0 87 38.5 155.5t98 108.5t139 66t153 35.5t149.5 9.5h94v71q0 50 -34.5 81.5t-100.5 31.5q-71 0 -100 -35t-29 -80v-24h-377v49q0 115 75 201t196.5 128.5t271.5 42.5q102 0 193 -23.5t166.5 -71t120 -128t44.5 -184.5v-471q0 -88 18 -250h-395l-12 143h-12 q-31 -50 -79 -86t-99.5 -52.5t-92.5 -23t-78 -6.5q-154 0 -251 81t-97 231zM205 1591h383l184 -377h-268zM483 360q0 -98 111 -98q43 0 86 35.5t43 97.5v70h-76q-77 0 -120.5 -23t-43.5 -82z" />
<glyph unicode="&#xe1;" horiz-adv-x="1236" d="M51 287q0 87 38.5 155.5t98 108.5t139 66t153 35.5t149.5 9.5h94v71q0 50 -34.5 81.5t-100.5 31.5q-71 0 -100 -35t-29 -80v-24h-377v49q0 115 75 201t196.5 128.5t271.5 42.5q102 0 193 -23.5t166.5 -71t120 -128t44.5 -184.5v-471q0 -88 18 -250h-395l-12 143h-12 q-31 -50 -79 -86t-99.5 -52.5t-92.5 -23t-78 -6.5q-154 0 -251 81t-97 231zM442 1214l185 377h383l-299 -377h-269zM483 360q0 -98 111 -98q43 0 86 35.5t43 97.5v70h-76q-77 0 -120.5 -23t-43.5 -82z" />
<glyph unicode="&#xe2;" horiz-adv-x="1236" d="M51 287q0 87 38.5 155.5t98 108.5t139 66t153 35.5t149.5 9.5h94v71q0 50 -34.5 81.5t-100.5 31.5q-71 0 -100 -35t-29 -80v-24h-377v49q0 115 75 201t196.5 128.5t271.5 42.5q102 0 193 -23.5t166.5 -71t120 -128t44.5 -184.5v-471q0 -88 18 -250h-395l-12 143h-12 q-31 -50 -79 -86t-99.5 -52.5t-92.5 -23t-78 -6.5q-154 0 -251 81t-97 231zM168 1217l311 403h295l293 -403h-336l-113 190l-116 -190h-334zM483 360q0 -98 111 -98q43 0 86 35.5t43 97.5v70h-76q-77 0 -120.5 -23t-43.5 -82z" />
<glyph unicode="&#xe3;" horiz-adv-x="1236" d="M51 287q0 87 38.5 155.5t98 108.5t139 66t153 35.5t149.5 9.5h94v71q0 50 -34.5 81.5t-100.5 31.5q-71 0 -100 -35t-29 -80v-24h-377v49q0 115 75 201t196.5 128.5t271.5 42.5q102 0 193 -23.5t166.5 -71t120 -128t44.5 -184.5v-471q0 -88 18 -250h-395l-12 143h-12 q-31 -50 -79 -86t-99.5 -52.5t-92.5 -23t-78 -6.5q-154 0 -251 81t-97 231zM127 1237q22 137 102 227t207 90q66 0 191 -36.5t190 -36.5q12 0 21.5 3t16.5 6t13.5 12t10 13.5t8.5 18t7 18.5t6.5 21.5t6.5 21.5l203 -55q-8 -62 -28.5 -115.5t-54.5 -99t-88 -72t-122 -26.5 q-69 0 -191 34.5t-171 34.5t-71 -23t-40 -83zM483 360q0 -98 111 -98q43 0 86 35.5t43 97.5v70h-76q-77 0 -120.5 -23t-43.5 -82z" />
<glyph unicode="&#xe4;" horiz-adv-x="1236" d="M51 287q0 87 38.5 155.5t98 108.5t139 66t153 35.5t149.5 9.5h94v71q0 50 -34.5 81.5t-100.5 31.5q-71 0 -100 -35t-29 -80v-24h-377v49q0 115 75 201t196.5 128.5t271.5 42.5q102 0 193 -23.5t166.5 -71t120 -128t44.5 -184.5v-471q0 -88 18 -250h-395l-12 143h-12 q-31 -50 -79 -86t-99.5 -52.5t-92.5 -23t-78 -6.5q-154 0 -251 81t-97 231zM195 1206v350h350v-350h-350zM483 360q0 -98 111 -98q43 0 86 35.5t43 97.5v70h-76q-77 0 -120.5 -23t-43.5 -82zM690 1206v350h350v-350h-350z" />
<glyph unicode="&#xe5;" horiz-adv-x="1236" d="M51 287q0 87 38.5 155.5t98 108.5t139 66t153 35.5t149.5 9.5h94v71q0 50 -34.5 81.5t-100.5 31.5q-71 0 -100 -35t-29 -80v-24h-377v49q0 115 75 201t196.5 128.5t271.5 42.5q102 0 193 -23.5t166.5 -71t120 -128t44.5 -184.5v-471q0 -88 18 -250h-395l-12 143h-12 q-31 -50 -79 -86t-99.5 -52.5t-92.5 -23t-78 -6.5q-154 0 -251 81t-97 231zM360 1425q0 98 76 163t180 65q113 0 187 -55.5t74 -157.5q0 -95 -77.5 -161.5t-183.5 -66.5q-109 0 -182.5 57.5t-73.5 155.5zM483 360q0 -98 111 -98q43 0 86 35.5t43 97.5v70h-76 q-77 0 -120.5 -23t-43.5 -82zM508 1434q0 -42 31.5 -71.5t76.5 -29.5q48 0 80.5 28.5t32.5 72.5q0 46 -31 74t-82 28q-49 0 -78.5 -28.5t-29.5 -73.5z" />
<glyph unicode="&#xe6;" horiz-adv-x="1863" d="M51 287q0 87 38.5 155.5t98 108.5t139 66t153 35.5t149.5 9.5h94v71q0 50 -34.5 81.5t-100.5 31.5q-71 0 -100 -35t-29 -80v-24h-377v49q0 115 75 201t196.5 128.5t271.5 42.5q198 0 333 -79q139 81 330 81q100 0 190 -30t160 -86t111 -145.5t41 -200.5v-213h-641v-31 q0 -52 36.5 -86t81.5 -45.5t95 -11.5q118 0 332 61l67 -270q-229 -99 -473 -99q-155 0 -283.5 48t-201.5 149q-30 -47 -67 -82t-77 -55.5t-74.5 -33t-75 -17.5t-61 -6t-49.5 -1q-154 0 -251 81t-97 231zM483 360q0 -98 111 -98q43 0 86 35.5t43 97.5v70h-76 q-77 0 -120.5 -23t-43.5 -82zM1149 674h250v43q0 60 -34.5 93.5t-92.5 33.5q-55 0 -89 -35t-34 -92v-43z" />
<glyph unicode="&#xe7;" horiz-adv-x="1196" d="M61 426v225q0 98 33 179.5t87.5 136t126.5 92t149 54.5t157 17q105 0 200 -26t169.5 -74t119 -123.5t44.5 -167.5v-69h-412v43q0 59 -30.5 88.5t-83.5 29.5q-63 0 -96 -34.5t-33 -100.5v-284q0 -67 33.5 -103.5t95.5 -36.5q53 0 83.5 29.5t30.5 89.5v43h412v-86 q0 -87 -39 -157t-106 -115t-152.5 -70.5t-183.5 -30.5l-17 -69q37 1 71.5 -2t74.5 -13.5t69 -27.5t48.5 -48t19.5 -73q0 -103 -98.5 -160t-239.5 -57q-110 0 -250 31v165q146 -32 231 -32q80 0 80 49q0 8 -2.5 14t-8.5 10t-11.5 6.5t-15 4.5t-15 2.5t-16.5 2t-15 1.5l-114 6 l47 197q-89 11 -165 40.5t-140 81t-101 134t-37 188.5z" />
<glyph unicode="&#xe8;" horiz-adv-x="1191" d="M61 430v195q0 104 33 190t88 143.5t129 97t153.5 57t164.5 17.5q100 0 189.5 -30t159.5 -86t111 -145.5t41 -200.5v-213h-641v-31q0 -52 36.5 -86t81.5 -45.5t95 -11.5q118 0 332 61l68 -270q-229 -99 -473 -99q-88 0 -168 14.5t-154 49t-128 86t-86 130.5t-32 177z M219 1591h383l184 -377h-268zM489 674h250v43q0 60 -34.5 93.5t-92.5 33.5q-55 0 -89 -35t-34 -92v-43z" />
<glyph unicode="&#xe9;" horiz-adv-x="1191" d="M61 430v195q0 104 33 190t88 143.5t129 97t153.5 57t164.5 17.5q100 0 189.5 -30t159.5 -86t111 -145.5t41 -200.5v-213h-641v-31q0 -52 36.5 -86t81.5 -45.5t95 -11.5q118 0 332 61l68 -270q-229 -99 -473 -99q-88 0 -168 14.5t-154 49t-128 86t-86 130.5t-32 177z M444 1214l185 377h383l-299 -377h-269zM489 674h250v43q0 60 -34.5 93.5t-92.5 33.5q-55 0 -89 -35t-34 -92v-43z" />
<glyph unicode="&#xea;" horiz-adv-x="1191" d="M61 430v195q0 104 33 190t88 143.5t129 97t153.5 57t164.5 17.5q100 0 189.5 -30t159.5 -86t111 -145.5t41 -200.5v-213h-641v-31q0 -52 36.5 -86t81.5 -45.5t95 -11.5q118 0 332 61l68 -270q-229 -99 -473 -99q-88 0 -168 14.5t-154 49t-128 86t-86 130.5t-32 177z M145 1217l312 403h295l292 -403h-335l-113 190l-117 -190h-334zM489 674h250v43q0 60 -34.5 93.5t-92.5 33.5q-55 0 -89 -35t-34 -92v-43z" />
<glyph unicode="&#xeb;" horiz-adv-x="1191" d="M61 430v195q0 104 33 190t88 143.5t129 97t153.5 57t164.5 17.5q100 0 189.5 -30t159.5 -86t111 -145.5t41 -200.5v-213h-641v-31q0 -52 36.5 -86t81.5 -45.5t95 -11.5q118 0 332 61l68 -270q-229 -99 -473 -99q-88 0 -168 14.5t-154 49t-128 86t-86 130.5t-32 177z M172 1206v350h350v-350h-350zM489 674h250v43q0 60 -34.5 93.5t-92.5 33.5q-55 0 -89 -35t-34 -92v-43zM668 1206v350h350v-350h-350z" />
<glyph unicode="&#xec;" horiz-adv-x="614" d="M-88 1591h383l184 -377h-268zM94 0v1104h426v-1104h-426z" />
<glyph unicode="&#xed;" horiz-adv-x="614" d="M94 0v1104h426v-1104h-426zM166 1214l184 377h383l-299 -377h-268z" />
<glyph unicode="&#xee;" horiz-adv-x="614" d="M-141 1217l311 403h295l293 -403h-336l-113 190l-116 -190h-334zM94 0v1104h426v-1104h-426z" />
<glyph unicode="&#xef;" horiz-adv-x="614" d="M-115 1206v350h351v-350h-351zM94 0v1104h426v-1104h-426zM381 1206v350h350v-350h-350z" />
<glyph unicode="&#xf0;" d="M61 428v152q0 192 97.5 314t279.5 142l19 2l-58 80l-186 -51l-107 184l156 43l-127 166l443 70l92 -123l217 59l106 -184l-188 -53l258 -342q104 -136 104 -299v-158q0 -98 -33.5 -177.5t-88 -130t-127.5 -84.5t-148.5 -48.5t-155.5 -14.5q-83 0 -158 12.5t-148.5 45 t-127 82t-86.5 130t-33 183.5zM492 408q0 -132 124 -132q61 0 91 37.5t30 98.5v200q0 61 -34 101.5t-89 40.5q-61 0 -91.5 -41t-30.5 -107v-198z" />
<glyph unicode="&#xf1;" horiz-adv-x="1294" d="M94 0v1104h418v-141h4q131 167 356 167q47 0 93 -10t91.5 -34t79.5 -59t55 -89t21 -121v-817h-426v649q0 162 -135 162q-54 0 -92.5 -48.5t-38.5 -135.5v-627h-426zM156 1237q22 137 102 227t207 90q65 0 190 -36.5t191 -36.5q12 0 21.5 3t16.5 6t13.5 12t10 13.5t8.5 18 t7 18.5t6.5 21.5t6.5 21.5l203 -55q-8 -62 -28.5 -115.5t-54.5 -99t-88 -72t-122 -26.5q-69 0 -191.5 34.5t-171.5 34.5t-70.5 -22.5t-39.5 -83.5z" />
<glyph unicode="&#xf2;" d="M61 428v225q0 98 31 179t83.5 135.5t123.5 91.5t148.5 54t160.5 17t159.5 -14t151 -48.5t128.5 -86.5t87 -134t33 -185v-232q0 -98 -33.5 -177.5t-88 -130t-127.5 -84.5t-148.5 -48.5t-155.5 -14.5q-83 0 -158 12.5t-148.5 45t-127 82t-86.5 130t-33 183.5zM201 1591h383 l184 -377h-268zM492 408q0 -132 124 -132q61 0 91 37.5t30 98.5v274q0 61 -34 101t-89 40q-61 0 -91.5 -40.5t-30.5 -106.5v-272z" />
<glyph unicode="&#xf3;" d="M61 428v225q0 98 31 179t83.5 135.5t123.5 91.5t148.5 54t160.5 17t159.5 -14t151 -48.5t128.5 -86.5t87 -134t33 -185v-232q0 -98 -33.5 -177.5t-88 -130t-127.5 -84.5t-148.5 -48.5t-155.5 -14.5q-83 0 -158 12.5t-148.5 45t-127 82t-86.5 130t-33 183.5zM449 1214 l184 377h383l-299 -377h-268zM492 408q0 -132 124 -132q61 0 91 37.5t30 98.5v274q0 61 -34 101t-89 40q-61 0 -91.5 -40.5t-30.5 -106.5v-272z" />
<glyph unicode="&#xf4;" d="M61 428v225q0 98 31 179t83.5 135.5t123.5 91.5t148.5 54t160.5 17t159.5 -14t151 -48.5t128.5 -86.5t87 -134t33 -185v-232q0 -98 -33.5 -177.5t-88 -130t-127.5 -84.5t-148.5 -48.5t-155.5 -14.5q-83 0 -158 12.5t-148.5 45t-127 82t-86.5 130t-33 183.5zM164 1217 l311 403h295l293 -403h-336l-113 190l-116 -190h-334zM492 408q0 -132 124 -132q61 0 91 37.5t30 98.5v274q0 61 -34 101t-89 40q-61 0 -91.5 -40.5t-30.5 -106.5v-272z" />
<glyph unicode="&#xf5;" d="M61 428v225q0 98 31 179t83.5 135.5t123.5 91.5t148.5 54t160.5 17t159.5 -14t151 -48.5t128.5 -86.5t87 -134t33 -185v-232q0 -98 -33.5 -177.5t-88 -130t-127.5 -84.5t-148.5 -48.5t-155.5 -14.5q-83 0 -158 12.5t-148.5 45t-127 82t-86.5 130t-33 183.5zM123 1237 q22 137 102 227t207 90q65 0 190.5 -36.5t190.5 -36.5q12 0 21.5 3t16.5 6t13.5 12t10 13.5t8.5 18t7 18.5t6.5 21.5t6.5 21.5l203 -55q-8 -62 -28.5 -115.5t-54.5 -99t-88 -72t-122 -26.5q-69 0 -191 34.5t-171 34.5t-71 -23t-40 -83zM492 408q0 -132 124 -132 q61 0 91 37.5t30 98.5v274q0 61 -34 101t-89 40q-61 0 -91.5 -40.5t-30.5 -106.5v-272z" />
<glyph unicode="&#xf6;" d="M61 428v225q0 98 31 179t83.5 135.5t123.5 91.5t148.5 54t160.5 17t159.5 -14t151 -48.5t128.5 -86.5t87 -134t33 -185v-232q0 -98 -33.5 -177.5t-88 -130t-127.5 -84.5t-148.5 -48.5t-155.5 -14.5q-83 0 -158 12.5t-148.5 45t-127 82t-86.5 130t-33 183.5zM190 1206v350 h351v-350h-351zM492 408q0 -132 124 -132q61 0 91 37.5t30 98.5v274q0 61 -34 101t-89 40q-61 0 -91.5 -40.5t-30.5 -106.5v-272zM686 1206v350h350v-350h-350z" />
<glyph unicode="&#xf7;" horiz-adv-x="1269" d="M70 528v238h1130v-238h-1130zM459 49v328h352v-328h-352zM459 901v328h352v-328h-352z" />
<glyph unicode="&#xf8;" d="M61 428v225q0 98 31 179t83.5 135.5t123.5 91.5t148.5 54t160.5 17q111 0 209 -26l76 149l119 -57l-72 -139q227 -118 227 -395v-232q0 -98 -33.5 -177.5t-88 -130t-127.5 -84.5t-148.5 -48.5t-155.5 -14.5q-106 0 -215 25l-77 -154l-119 58l73 143q-215 114 -215 381z M492 467l176 346q-28 14 -54 14q-61 0 -91.5 -40.5t-30.5 -106.5v-213zM549 291q24 -15 67 -15q61 0 91 37.5t30 98.5v247z" />
<glyph unicode="&#xf9;" horiz-adv-x="1318" d="M102 287v817h426v-649q0 -162 136 -162q54 0 92.5 48.5t38.5 135.5v627h426v-1104h-418v166h-4q-132 -191 -357 -191q-47 0 -93 10t-91.5 33.5t-79.5 58.5t-55 89t-21 121zM270 1591h383l185 -377h-269z" />
<glyph unicode="&#xfa;" horiz-adv-x="1318" d="M102 287v817h426v-649q0 -162 136 -162q54 0 92.5 48.5t38.5 135.5v627h426v-1104h-418v166h-4q-132 -191 -357 -191q-47 0 -93 10t-91.5 33.5t-79.5 58.5t-55 89t-21 121zM516 1214l184 377h383l-299 -377h-268z" />
<glyph unicode="&#xfb;" horiz-adv-x="1318" d="M102 287v817h426v-649q0 -162 136 -162q54 0 92.5 48.5t38.5 135.5v627h426v-1104h-418v166h-4q-132 -191 -357 -191q-47 0 -93 10t-91.5 33.5t-79.5 58.5t-55 89t-21 121zM209 1217l311 403h295l293 -403h-336l-113 190l-116 -190h-334z" />
<glyph unicode="&#xfc;" horiz-adv-x="1318" d="M102 287v817h426v-649q0 -162 136 -162q54 0 92.5 48.5t38.5 135.5v627h426v-1104h-418v166h-4q-132 -191 -357 -191q-47 0 -93 10t-91.5 33.5t-79.5 58.5t-55 89t-21 121zM236 1206v350h350v-350h-350zM731 1206v350h350v-350h-350z" />
<glyph unicode="&#xfd;" d="M18 1104h455l182 -637h9l186 637h381l-402 -1155q-33 -94 -84.5 -161.5t-115.5 -105t-132 -54.5t-145 -17q-88 0 -200 22v310q67 -17 145 -17q41 0 73 16t42 44l8 22zM514 1214l184 377h383l-299 -377h-268z" />
<glyph unicode="&#xfe;" horiz-adv-x="1273" d="M94 -377v1837h426v-493h4q59 77 145 120t173 43q185 0 277.5 -103.5t92.5 -283.5v-397q0 -159 -123.5 -266t-304.5 -107q-70 0 -143.5 31.5t-116.5 83.5h-4v-465h-426zM520 401q0 -40 13.5 -69.5t35.5 -44t43 -21t43 -6.5q54 0 92.5 36t38.5 105v273q0 70 -36.5 108.5 t-87.5 38.5q-63 0 -102.5 -35t-39.5 -133v-252z" />
<glyph unicode="&#xff;" d="M18 1104h455l182 -637h9l186 637h381l-402 -1155q-33 -94 -84.5 -161.5t-115.5 -105t-132 -54.5t-145 -17q-88 0 -200 22v310q67 -17 145 -17q41 0 73 16t42 44l8 22zM260 1206v350h350v-350h-350zM756 1206v350h350v-350h-350z" />
<glyph unicode="&#x152;" horiz-adv-x="2140" d="M66 541v374q0 116 29.5 210.5t82.5 161t128 111.5t164 66t192 21q64 0 133 -19t114 -51v45h1137v-354h-678v-201h537v-352h-537v-197h678v-356h-1137v39q-45 -29 -112 -46.5t-129 -17.5q-105 0 -192 17.5t-164.5 58.5t-131 104.5t-84 161.5t-30.5 224zM528 541 q0 -100 49 -153.5t144 -53.5q88 0 138 53t50 145v398q0 94 -55.5 145t-136.5 51q-189 0 -189 -196v-389z" />
<glyph unicode="&#x153;" horiz-adv-x="1882" d="M61 428v225q0 98 31 179t83.5 135.5t123.5 91.5t148.5 54t160.5 17q215 0 357 -88q144 88 342 88q100 0 189.5 -30t159.5 -86t111 -145.5t41 -200.5v-213h-641v-31q0 -52 36.5 -86t81.5 -45.5t95 -11.5q118 0 332 61l68 -270q-229 -99 -473 -99q-209 0 -357 80 q-145 -80 -336 -80q-83 0 -158 12.5t-148.5 45.5t-127 83t-86.5 130.5t-33 183.5zM492 408q0 -132 124 -132q61 0 91 37.5t30 98.5v274q0 61 -34 101t-89 40q-61 0 -91.5 -40.5t-30.5 -106.5v-272zM1167 674h250v43q0 60 -34.5 93.5t-92.5 33.5q-55 0 -89 -35t-34 -92v-43z " />
<glyph unicode="&#x178;" horiz-adv-x="1396" d="M-4 1460h469l254 -538l244 538h438l-473 -893v-567h-461v569zM291 1575v350h350v-350h-350zM786 1575v350h351v-350h-351z" />
<glyph unicode="&#x2c6;" horiz-adv-x="989" d="M45 1217l311 403h295l293 -403h-336l-112 190l-117 -190h-334z" />
<glyph unicode="&#x2dc;" horiz-adv-x="1089" d="M53 1237q22 137 102 227t207 90q66 0 191 -36.5t190 -36.5q10 0 19 1.5t16 6.5t12.5 8.5t10.5 12t8 13t7.5 17t6 17t6 19.5t5.5 19l202 -55q-8 -62 -28.5 -115.5t-54.5 -99t-88 -72t-122 -26.5q-69 0 -191 34.5t-171 34.5t-71 -23t-40 -83z" />
<glyph unicode="&#x2000;" horiz-adv-x="1010" />
<glyph unicode="&#x2001;" horiz-adv-x="2021" />
<glyph unicode="&#x2002;" horiz-adv-x="1010" />
<glyph unicode="&#x2003;" horiz-adv-x="2021" />
<glyph unicode="&#x2004;" horiz-adv-x="673" />
<glyph unicode="&#x2005;" horiz-adv-x="505" />
<glyph unicode="&#x2006;" horiz-adv-x="336" />
<glyph unicode="&#x2007;" horiz-adv-x="336" />
<glyph unicode="&#x2008;" horiz-adv-x="252" />
<glyph unicode="&#x2009;" horiz-adv-x="404" />
<glyph unicode="&#x200a;" horiz-adv-x="112" />
<glyph unicode="&#x2010;" horiz-adv-x="741" d="M55 449v337h631v-337h-631z" />
<glyph unicode="&#x2011;" horiz-adv-x="741" d="M55 449v337h631v-337h-631z" />
<glyph unicode="&#x2012;" horiz-adv-x="741" d="M55 449v337h631v-337h-631z" />
<glyph unicode="&#x2013;" horiz-adv-x="1105" d="M0 541v245h1106v-245h-1106z" />
<glyph unicode="&#x2014;" horiz-adv-x="1998" d="M0 541v245h1999v-245h-1999z" />
<glyph unicode="&#x2018;" horiz-adv-x="659" d="M119 776v371l157 313h193l-74 -289h146v-395h-422z" />
<glyph unicode="&#x2019;" horiz-adv-x="659" d="M119 1065v395h422v-370l-158 -314h-193l74 289h-145z" />
<glyph unicode="&#x201a;" horiz-adv-x="659" d="M119 0v395h422v-370l-158 -314h-193l74 289h-145z" />
<glyph unicode="&#x201c;" horiz-adv-x="1185" d="M119 776v371l157 313h193l-74 -289h146v-395h-422zM645 776v371l158 313h192l-73 -289h145v-395h-422z" />
<glyph unicode="&#x201d;" horiz-adv-x="1185" d="M119 1065v395h422v-370l-158 -314h-193l74 289h-145zM645 1065v395h422v-370l-158 -314h-192l74 289h-146z" />
<glyph unicode="&#x201e;" horiz-adv-x="1185" d="M119 0v395h422v-370l-158 -314h-193l74 289h-145zM645 0v395h422v-370l-158 -314h-192l74 289h-146z" />
<glyph unicode="&#x2022;" horiz-adv-x="991" d="M115 739q0 159 112 271t271 112q157 0 268 -112t111 -271q0 -156 -111.5 -268.5t-267.5 -112.5q-158 0 -270.5 112.5t-112.5 268.5z" />
<glyph unicode="&#x2026;" horiz-adv-x="1708" d="M102 0v397h422v-397h-422zM643 0v397h422v-397h-422zM1184 0v397h422v-397h-422z" />
<glyph unicode="&#x202f;" horiz-adv-x="404" />
<glyph unicode="&#x2039;" horiz-adv-x="757" d="M45 528l479 449l185 -164l-252 -285l256 -286l-189 -158z" />
<glyph unicode="&#x203a;" horiz-adv-x="757" d="M45 242l256 286l-252 285l184 164l480 -449l-480 -444z" />
<glyph unicode="&#x205f;" horiz-adv-x="505" />
<glyph unicode="&#x20ac;" horiz-adv-x="1550" d="M78 477v201h170v121h-170v200h172v5q9 95 46.5 174.5t95 135.5t133.5 95t161 57.5t178 18.5q90 0 176.5 -16t169.5 -53.5t145 -92t100 -137.5t38 -185v-90h-430v47q0 81 -55.5 125.5t-130.5 44.5q-69 0 -111.5 -34t-50.5 -93v-2h262v-200h-266v-121h266v-201h-264v-10 q19 -135 164 -135q75 0 130.5 44.5t55.5 125.5v47h430v-96q0 -100 -37.5 -182t-98.5 -136t-143 -91t-168 -53t-176 -16q-96 0 -181 16.5t-163 53.5t-135.5 93t-95 140t-45.5 189v10h-172z" />
<glyph unicode="&#x2122;" horiz-adv-x="1439" d="M90 1282v178h549v-178h-168v-477h-213v477h-168zM698 805v655h256l72 -231l70 231h256v-655h-193v323l-65 -225h-138l-65 223v-321h-193z" />
<glyph unicode="&#xe000;" horiz-adv-x="1105" d="M0 0v1106h1106v-1106h-1106z" />
</font>
</defs>
</svg>
