<?xml version="1.0" standalone="no"?>
<!DOCTYPE svg PUBLIC "-//W3C//DTD SVG 1.1//EN" "http://www.w3.org/Graphics/SVG/1.1/DTD/svg11.dtd" >
<svg xmlns="http://www.w3.org/2000/svg">
<metadata></metadata>
<defs>
<font id="flama_semicondensed_semibolRg" horiz-adv-x="1105" >
<font-face units-per-em="2048" ascent="1638" descent="-410" />
<missing-glyph horiz-adv-x="368" />
<glyph unicode="&#xfb01;" horiz-adv-x="1236" d="M63 846v219h136v127q0 146 86 220.5t225 74.5q99 0 168 -19v-202q-42 10 -109 10q-100 0 -100 -92v-119h182v-219h-182v-846h-270v846h-136zM842 0v1075h270v-1075h-270zM842 1208v275h270v-275h-270z" />
<glyph unicode="&#xfb02;" horiz-adv-x="1331" d="M63 846v219h136v127q0 146 86 220.5t225 74.5q99 0 168 -19v-202q-42 10 -109 10q-100 0 -100 -92v-119h182v-219h-182v-846h-270v846h-136zM834 231v1229h272v-1157q0 -44 21.5 -68t74.5 -24q26 0 76 8v-207q-82 -30 -172 -30q-129 0 -200.5 64.5t-71.5 184.5z" />
<glyph horiz-adv-x="2048" />
<glyph horiz-adv-x="2048" />
<glyph unicode="&#xd;" horiz-adv-x="2048" />
<glyph unicode=" "  horiz-adv-x="368" />
<glyph unicode="&#x09;" horiz-adv-x="368" />
<glyph unicode="&#xa0;" horiz-adv-x="368" />
<glyph unicode="!" horiz-adv-x="536" d="M135 944v516h266v-516l-51 -504h-166zM139 0v307h256v-307h-256z" />
<glyph unicode="&#x22;" horiz-adv-x="860" d="M125 1210v250h244v-250l-35 -299h-174zM492 1210v250h245v-250l-35 -299h-176z" />
<glyph unicode="#" horiz-adv-x="1110" d="M49 373l21 162h194l60 428h-203l20 157h201l47 344h143l-43 -344h242l45 344h144l-46 -344h195l-18 -157h-193l-59 -428h202l-18 -162h-203l-47 -375h-147l47 375h-242l-49 -375h-143l49 375h-199zM412 535h239l64 428h-246z" />
<glyph unicode="$" horiz-adv-x="1064" d="M45 236l158 174q79 -66 156.5 -103t179.5 -37q86 0 134 37t48 103q0 63 -43 101t-121 69q0 1 -91 40t-93 39q-120 54 -188 145t-68 210q0 135 83 234.5t228 131.5v152h223v-139q188 -22 320 -131l-140 -183q-156 105 -276 105q-78 0 -125 -35t-47 -98q0 -54 41 -91 t121 -71l170 -74q276 -118 276 -362q0 -157 -93.5 -257.5t-246.5 -129.5v-160h-223v153q-106 11 -206 56.5t-177 120.5z" />
<glyph unicode="%" horiz-adv-x="1552" d="M88 942v289q0 122 82 188t199 66q75 0 138 -27t104.5 -87t41.5 -144v-287q0 -116 -84.5 -185t-195.5 -69q-120 0 -202.5 67t-82.5 189zM270 926q0 -41 25.5 -66.5t75.5 -25.5q49 0 74.5 27.5t25.5 66.5v321q0 37 -27.5 64.5t-72.5 27.5q-49 0 -75 -26.5t-26 -65.5v-323z M340 -4l739 1479h146l-736 -1479h-149zM891 231v279q0 122 83 194t197 72q56 0 106 -16t90 -46.5t63.5 -81t23.5 -114.5v-282q0 -117 -85 -188t-195 -71q-74 0 -137 27t-104.5 86.5t-41.5 140.5zM1073 219q0 -41 25.5 -67.5t75.5 -26.5q49 0 73.5 28.5t24.5 67.5v322 q0 36 -26.5 63t-71.5 27q-47 0 -74 -26.5t-27 -63.5v-324z" />
<glyph unicode="&#x26;" horiz-adv-x="1423" d="M96 381q0 140 86 255t228 173q-61 74 -97.5 156t-36.5 159q0 54 13.5 104t44.5 97.5t77.5 82.5t117.5 56t159 21q175 0 286 -90t111 -234q0 -136 -82.5 -238.5t-222.5 -162.5l234 -299q30 66 65 241l232 -32q-19 -107 -64.5 -211.5t-95.5 -173.5l227 -285h-336l-106 139 q-79 -82 -184 -127t-224 -45q-195 0 -313.5 112.5t-118.5 301.5zM365 418q0 -96 62.5 -157.5t166.5 -61.5q130 0 217 90l-285 368q-80 -35 -120.5 -99t-40.5 -140zM541 1143q0 -43 30.5 -96.5t96.5 -139.5q81 36 125.5 97.5t44.5 142.5q0 67 -41 107t-109 40 q-72 0 -109.5 -44t-37.5 -107z" />
<glyph unicode="'" horiz-adv-x="493" d="M125 1210v250h244v-250l-35 -299h-174z" />
<glyph unicode="(" horiz-adv-x="561" d="M106 563q0 245 72 487.5t199 426.5l158 -4q-103 -269 -145 -457t-42 -453q0 -469 189 -923l-160 -7q-123 175 -197 431.5t-74 498.5z" />
<glyph unicode=")" horiz-adv-x="561" d="M25 -360q188 452 188 923q0 268 -42 457.5t-146 452.5l159 4q127 -184 199 -426.5t72 -487.5q0 -242 -74 -498.5t-197 -431.5z" />
<glyph unicode="*" horiz-adv-x="843" d="M41 1202l80 123l225 -125v260h154v-262l221 127l80 -123l-244 -139l162 -227l-129 -84l-168 235l-168 -235l-127 84l158 227z" />
<glyph unicode="+" d="M131 565v170h338v355h170v-355h336v-170h-336v-354h-170v354h-338z" />
<glyph unicode="," horiz-adv-x="507" d="M119 16v291h268v-278l-115 -303h-129l78 290h-102z" />
<glyph unicode="-" horiz-adv-x="649" d="M86 518v201h479v-201h-479z" />
<glyph unicode="." horiz-adv-x="507" d="M119 0v307h268v-307h-268z" />
<glyph unicode="/" horiz-adv-x="653" d="M-16 -367l440 1837h178l-436 -1837h-182z" />
<glyph unicode="0" horiz-adv-x="1153" d="M100 377v702q0 102 40 182t108 127.5t151 72t176 24.5q97 0 180 -24t150 -72t105.5 -128t38.5 -184v-698q0 -101 -40.5 -181t-108 -127t-149.5 -71.5t-171 -24.5q-94 0 -177.5 23.5t-152.5 70t-109.5 126t-40.5 182.5zM387 383q0 -83 49.5 -129.5t143.5 -46.5 q93 0 138.5 49t45.5 127v707q0 69 -50.5 117t-135.5 48q-88 0 -139.5 -48.5t-51.5 -121.5v-702z" />
<glyph unicode="1" horiz-adv-x="741" d="M82 1376l303 88h150v-1464h-277v1202l-156 -39z" />
<glyph unicode="2" horiz-adv-x="1044" d="M70 1051v53q0 185 124 284t326 99q107 0 188.5 -30.5t131 -85.5t74 -127t24.5 -159q0 -83 -25.5 -170t-74 -173.5t-102 -162t-126.5 -163.5l-129 -166v-6h477v-244h-854v160l306 401q118 166 180.5 284t62.5 214v28q0 75 -39.5 120.5t-121.5 45.5q-158 0 -158 -155v-47 h-264z" />
<glyph unicode="3" horiz-adv-x="1097" d="M96 340v68h266v-43q0 -77 52 -122.5t135 -45.5q97 0 137.5 52.5t40.5 166.5q0 51 -16 90.5t-39.5 62t-54.5 36.5t-56.5 19t-48.5 5h-127v223h113q97 0 150.5 48t53.5 161q0 95 -47.5 143.5t-122.5 48.5q-79 0 -122 -40.5t-43 -116.5v-47h-263v57q0 173 122.5 276 t328.5 103q203 0 313.5 -106t110.5 -283q0 -123 -58 -217t-165 -125v-6q117 -29 187.5 -124t70.5 -214q0 -84 -24.5 -155t-68 -122t-101.5 -87t-125 -53.5t-140 -17.5q-218 0 -338.5 98.5t-120.5 266.5z" />
<glyph unicode="4" horiz-adv-x="1153" d="M88 326v213l471 921h311l-508 -907h308v215l262 156v-371h143v-227h-143v-326h-262v326h-582z" />
<glyph unicode="5" horiz-adv-x="1101" d="M104 317v91h271v-54q0 -70 50 -114.5t132 -44.5q84 0 132 47t48 147v166q0 172 -178 172q-90 0 -170 -80l-254 29l41 784h764v-246h-541l-16 -374q105 102 283 102q69 0 129 -20t109.5 -59.5t78.5 -108t29 -158.5v-229q0 -124 -65 -214.5t-168.5 -134t-231.5 -43.5 q-200 0 -321.5 94.5t-121.5 247.5z" />
<glyph unicode="6" horiz-adv-x="1130" d="M104 381v690q0 100 37.5 180t102.5 130.5t149.5 77t181.5 26.5q199 0 321 -95t122 -255v-78h-283v59q0 70 -46 110t-124 40q-85 0 -129.5 -47.5t-44.5 -124.5v-326q46 73 127 114.5t178 41.5q148 0 239 -97t91 -235v-234q0 -117 -64 -205.5t-169 -133t-234 -44.5 q-197 0 -326 108.5t-129 297.5zM391 373q0 -72 48 -122t132 -50t132.5 47t48.5 112v205q0 45 -14.5 77.5t-40 49.5t-53.5 25t-60 8q-77 0 -135 -58t-58 -147v-147z" />
<glyph unicode="7" horiz-adv-x="1034" d="M49 1217v243h895v-203q-196 -244 -296.5 -578t-98.5 -679h-303q1 189 41 385t101.5 354t129.5 281t133 197h-602z" />
<glyph unicode="8" horiz-adv-x="1144" d="M102 338v127q0 92 52.5 165t132.5 111q-75 28 -121.5 100.5t-46.5 147.5v131q0 171 130 268t322 97q93 0 174 -22.5t144 -66t99 -113t36 -157.5v-125q0 -85 -46 -155.5t-124 -104.5q80 -31 134 -103.5t54 -162.5v-141q0 -112 -63.5 -194.5t-169 -123.5t-238.5 -41 q-137 0 -240.5 38t-166 121.5t-62.5 203.5zM387 348q0 -71 51.5 -112t132.5 -41q86 0 137.5 41.5t51.5 115.5v131q0 79 -56.5 121.5t-132.5 42.5q-75 0 -129.5 -41.5t-54.5 -111.5v-146zM393 989q0 -72 53.5 -112.5t126.5 -40.5q75 0 129 43.5t54 111.5v123q0 74 -55.5 113 t-133.5 39q-69 0 -121.5 -40.5t-52.5 -107.5v-129z" />
<glyph unicode="9" horiz-adv-x="1126" d="M104 881v223q0 119 62 207t164.5 131t232.5 43q201 0 330 -107t129 -288v-699q0 -128 -62 -223t-167 -143t-238 -48q-198 0 -320 93.5t-122 251.5v86h278v-62q0 -69 47.5 -108t122.5 -39q84 0 129 46.5t45 121.5v321q-101 -149 -297 -149q-155 0 -244.5 97.5t-89.5 244.5 zM377 899q0 -45 15 -78.5t41 -50.5t53.5 -25t58.5 -8q78 0 134 58t56 149v150q0 71 -47.5 120.5t-130.5 49.5q-85 0 -132.5 -46.5t-47.5 -113.5v-205z" />
<glyph unicode=":" horiz-adv-x="507" d="M119 0v307h268v-307h-268zM119 756v305h268v-305h-268z" />
<glyph unicode=";" horiz-adv-x="507" d="M119 16v291h268v-278l-115 -303h-129l78 290h-102zM119 756v305h268v-305h-268z" />
<glyph unicode="&#x3c;" d="M137 582v141l750 354l80 -170l-545 -256l547 -260l-84 -168z" />
<glyph unicode="=" d="M125 369v190h854v-190h-854zM125 729v191h854v-191h-854z" />
<glyph unicode="&#x3e;" d="M137 393l547 260l-547 254l84 170l748 -354v-141l-748 -357z" />
<glyph unicode="?" horiz-adv-x="1013" d="M98 1063v35q0 180 116.5 281.5t295.5 101.5q196 0 305 -101t109 -280q1 -117 -47.5 -203t-131.5 -162q-10 -10 -39 -37t-43 -42.5t-33.5 -41t-29 -52t-10.5 -56.5v-66h-242v60q3 94 36 162t97 139q10 10 40 42.5t42 46t34 43t31.5 50.5t18 51t8.5 60q0 77 -44 121.5 t-122 44.5q-67 0 -112 -42t-45 -120v-35h-234zM336 0v307h274v-307h-274z" />
<glyph unicode="@" horiz-adv-x="1812" d="M94 504q1 262 117 467.5t317.5 318.5t452.5 113q158 0 293.5 -45.5t234.5 -130.5t155 -213t56 -285q0 -136 -44.5 -252t-118 -193.5t-162.5 -126.5t-185 -65h-229l25 148h-7q-118 -170 -282 -170q-114 0 -179 59t-65 170q0 38 6 68q14 99 64 383q24 142 123 221.5 t227 79.5q73 0 134 -34t83 -99h2l18 118h238l-131 -786q140 34 229.5 167t89.5 318q0 112 -34.5 202t-91.5 149.5t-134.5 99.5t-159 57t-169.5 17q-210 0 -369.5 -98.5t-243.5 -268.5t-84 -385q0 -404 305 -561q158 -82 390 -82q89 0 174.5 11t126 20t143.5 34l33 -139 q-98 -39 -233.5 -60.5t-243.5 -21.5q-288 0 -496 109q-178 93 -277 265t-98 421zM723 369q0 -58 21.5 -87.5t82.5 -29.5q73 0 134.5 63t76.5 154l35 213q4 24 4 43q0 72 -36 113t-95 41q-72 0 -116.5 -49.5t-57.5 -131.5l-45 -280q-4 -24 -4 -49z" />
<glyph unicode="A" horiz-adv-x="1290" d="M41 0l430 1462h356l424 -1462h-295l-96 350h-454l-95 -350h-270zM467 573h332l-162 605h-6z" />
<glyph unicode="B" horiz-adv-x="1245" d="M135 0v1460h606q184 0 288 -98t104 -264q0 -128 -69 -224t-181 -124v-5q123 -26 194.5 -122t71.5 -222q0 -187 -109 -294t-290 -107h-615zM426 227h231q90 0 142.5 55t52.5 154q0 95 -58 143t-153 48h-215v-400zM426 852h209q92 0 149.5 52.5t57.5 150.5q0 88 -51.5 135 t-137.5 47h-227v-385z" />
<glyph unicode="C" horiz-adv-x="1226" d="M104 442v576q0 144 72.5 251.5t192 161.5t266.5 54q141 0 252 -48t177 -144.5t66 -227.5v-98h-264v71q0 95 -62.5 152t-168.5 57q-112 0 -174 -61.5t-62 -169.5v-561q0 -120 64 -181t176 -61q102 0 164.5 55t62.5 148v80h264v-99q0 -133 -66 -230t-176.5 -144.5 t-250.5 -47.5q-111 0 -205.5 27.5t-169 83t-116.5 146.5t-42 210z" />
<glyph unicode="D" horiz-adv-x="1267" d="M135 0v1460h535q144 0 253 -44.5t175.5 -142.5t66.5 -241v-577q0 -114 -38 -202.5t-105.5 -143t-156 -82t-195.5 -27.5h-535zM428 236h211q114 0 172.5 67.5t58.5 159.5v536q0 101 -60 163.5t-173 62.5h-209v-989z" />
<glyph unicode="E" horiz-adv-x="1138" d="M135 0v1460h905v-239h-612v-357h487v-239h-487v-383h614v-242h-907z" />
<glyph unicode="F" horiz-adv-x="1107" d="M135 0v1460h905v-235h-612v-373h485v-236h-485v-616h-293z" />
<glyph unicode="G" horiz-adv-x="1245" d="M104 442v576q0 146 72.5 253.5t191.5 160.5t267 53q137 0 248.5 -43.5t182.5 -137t71 -223.5v-96h-269v64q0 92 -63.5 148t-163.5 56q-113 0 -178.5 -65.5t-65.5 -173.5v-563q0 -112 64 -177t178 -65q225 0 225 205v168h-243v211h518v-402q0 -99 -40 -179t-109.5 -131.5 t-160 -78.5t-194.5 -27q-88 0 -165.5 17t-145 54t-116 90.5t-76.5 132t-28 173.5z" />
<glyph unicode="H" horiz-adv-x="1316" d="M135 0v1460h293v-586h463v586h293v-1460h-293v618h-463v-618h-293z" />
<glyph unicode="I" horiz-adv-x="561" d="M135 0v1460h293v-1460h-293z" />
<glyph unicode="J" horiz-adv-x="1153" d="M53 410v120h281v-110q0 -43 9.5 -78.5t31.5 -66.5t64 -48.5t100 -17.5q106 0 153 60.5t47 148.5v1042h291v-1014q0 -217 -127 -344t-358 -127q-492 0 -492 435z" />
<glyph unicode="K" horiz-adv-x="1257" d="M135 0v1460h293v-694l479 694h299l-401 -571l395 -889h-319l-291 666l-162 -224v-442h-293z" />
<glyph unicode="L" horiz-adv-x="1118" d="M135 0v1460h293v-1218h614v-242h-907z" />
<glyph unicode="M" horiz-adv-x="1525" d="M135 0v1460h375l262 -661h6l262 661h351v-1460h-256v1077h-5l-268 -698h-194l-271 696h-6v-1075h-256z" />
<glyph unicode="N" horiz-adv-x="1325" d="M135 0v1460h289l504 -882h4v882h262v-1460h-246l-549 956h-4v-956h-260z" />
<glyph unicode="O" horiz-adv-x="1277" d="M104 455v538q0 158 72.5 271t191 167t269.5 54q89 0 167.5 -17t147 -54t118 -92t78 -136t28.5 -180v-539q0 -124 -43 -220t-117.5 -154.5t-170 -88t-206.5 -29.5q-113 0 -207 27.5t-169 83t-117 150t-42 219.5zM399 461q0 -115 63 -179.5t179 -64.5q111 0 175.5 66 t64.5 176v553q0 110 -67.5 171.5t-178.5 61.5q-114 0 -175 -65t-61 -181v-538z" />
<glyph unicode="P" horiz-adv-x="1212" d="M135 0v1460h543q110 0 196 -35t139.5 -96.5t81 -142.5t27.5 -176q0 -103 -28 -189.5t-83.5 -152.5t-144.5 -103t-204 -37h-234v-528h-293zM428 750h178q110 0 171 65.5t61 181.5q0 104 -55.5 169t-155.5 65h-199v-481z" />
<glyph unicode="Q" horiz-adv-x="1277" d="M104 455v538q0 158 72.5 271t191 167t269.5 54q89 0 167.5 -17t147 -54t118 -92t78 -136t28.5 -180v-539q0 -238 -152 -350l203 -103l-160 -235l-334 205q-47 -9 -94 -9q-113 0 -207 27.5t-169 83t-117 150t-42 219.5zM399 461q0 -115 63 -179.5t179 -64.5 q111 0 175.5 66t64.5 176v553q0 110 -67.5 171.5t-178.5 61.5q-114 0 -175 -65t-61 -181v-538z" />
<glyph unicode="R" horiz-adv-x="1259" d="M135 0v1460h539q229 0 350 -118.5t121 -319.5q0 -155 -69 -264.5t-202 -149.5l312 -608h-316l-266 557h-176v-557h-293zM428 774h203q225 0 225 230q0 107 -54 167t-163 60h-211v-457z" />
<glyph unicode="S" horiz-adv-x="1181" d="M59 152l150 204q87 -67 172 -104t201 -37q94 0 155.5 45t61.5 119q0 75 -47 118.5t-142 84.5l-196 82q-289 119 -289 391q0 87 34 165.5t95 137t153 93t201 34.5q261 0 441 -150l-152 -202q-80 60 -151.5 92t-149.5 32q-91 0 -142 -40.5t-51 -118.5q0 -66 47.5 -108 t145.5 -83l168 -73q328 -141 328 -406q0 -140 -74 -245t-191 -156.5t-258 -51.5q-322 0 -510 177z" />
<glyph unicode="T" horiz-adv-x="1161" d="M47 1225v235h1069v-235h-387v-1225h-293v1225h-389z" />
<glyph unicode="U" horiz-adv-x="1298" d="M123 446v1014h293v-997q0 -128 67.5 -190t173.5 -62q107 0 172 67q62 64 62 171v10v1001h280v-999q1 -230 -144.5 -358t-381.5 -128q-115 0 -209 27.5t-164.5 83t-109.5 147.5t-39 213z" />
<glyph unicode="V" horiz-adv-x="1196" d="M41 1460h297l274 -1089h4l271 1089h268l-403 -1464h-310z" />
<glyph unicode="W" horiz-adv-x="1708" d="M47 1460h285l184 -964h6l205 964h287l194 -962h4l181 962h270l-311 -1464h-281l-213 1012h-8l-215 -1012h-279z" />
<glyph unicode="X" horiz-adv-x="1177" d="M31 0l379 750l-351 710h316l229 -487l225 487h287l-354 -708l383 -752h-309l-263 530l-256 -530h-286z" />
<glyph unicode="Y" horiz-adv-x="1177" d="M35 1460h309l262 -606l262 606h275l-408 -870v-590h-293v592z" />
<glyph unicode="Z" horiz-adv-x="1114" d="M90 0v176l598 1053h-588v231h930v-200l-584 -1024h576v-236h-932z" />
<glyph unicode="[" horiz-adv-x="604" d="M164 -360v1820h387v-164h-152v-1497h152v-159h-387z" />
<glyph unicode="\" horiz-adv-x="653" d="M47 1470h178l441 -1837h-183z" />
<glyph unicode="]" horiz-adv-x="604" d="M51 -201h152v1497h-152v164h389v-1820h-389v159z" />
<glyph unicode="^" horiz-adv-x="987" d="M190 330l220 860h188l197 -860h-170l-125 622q-136 -618 -138 -622h-172z" />
<glyph unicode="_" horiz-adv-x="944" d="M0 -74h944v-176h-944v176z" />
<glyph unicode="`" horiz-adv-x="589" d="M47 1513h268l177 -317h-201z" />
<glyph unicode="a" horiz-adv-x="1058" d="M80 287q0 76 28.5 138t74 101t106.5 66t122 38t124 11h133v131q0 66 -41.5 101.5t-116.5 35.5q-73 0 -115.5 -37.5t-42.5 -97.5v-47h-243v59q0 146 121 230t305 84q84 0 156 -20t128.5 -60t88.5 -105t32 -149v-512q0 -44 12 -254h-250q0 5 -1.5 24.5t-4 56t-4.5 75.5h-10 q-24 -53 -63 -90.5t-82.5 -55.5t-80.5 -25.5t-73 -7.5q-131 0 -217 80t-86 230zM352 328q0 -73 40.5 -112.5t103.5 -39.5q70 0 121 52.5t51 136.5v116h-115q-55 0 -97.5 -12.5t-73 -48.5t-30.5 -92z" />
<glyph unicode="b" horiz-adv-x="1095" d="M125 0v1460h270v-538h6q42 82 126 131t165 49q103 0 173.5 -49t101 -125t30.5 -172v-422q0 -155 -94 -257t-239 -102q-84 0 -168.5 49.5t-116.5 131.5h-4l-8 -156h-242zM395 389q0 -94 59 -155.5t132 -61.5q66 0 103.5 41.5t37.5 124.5v395q0 156 -149 156 q-71 0 -127 -62t-56 -168v-270z" />
<glyph unicode="c" horiz-adv-x="1011" d="M98 367v325q0 99 35 178.5t95 128.5t136 75t162 26q183 0 294.5 -90.5t111.5 -243.5v-72h-246v54q0 61 -37 103t-114 42q-83 0 -123.5 -47t-40.5 -129v-357q0 -85 42.5 -132.5t127.5 -47.5q76 0 110.5 46t34.5 108v47h246v-76q0 -152 -112 -241t-294 -89 q-89 0 -165.5 23.5t-135.5 70t-93 123t-34 175.5z" />
<glyph unicode="d" horiz-adv-x="1095" d="M98 324v426q0 150 95 250t239 100q75 0 147 -38t117 -106h2v504h273v-1460h-252l-6 166h-8q-50 -89 -129 -140t-170 -51q-103 0 -174.5 49t-102.5 125.5t-31 174.5zM369 342q0 -76 37.5 -116t107.5 -40q74 0 130 64t56 162v280q0 91 -60.5 151t-129.5 60 q-141 0 -141 -170v-391z" />
<glyph unicode="e" horiz-adv-x="1044" d="M98 381v285q0 105 35 188.5t96 136.5t139.5 81t168.5 28q189 0 303 -106.5t114 -291.5v-237h-583v-90q0 -185 217 -185q117 0 278 66l62 -180q-156 -101 -385 -101q-94 0 -173 24t-140.5 71.5t-96.5 127t-35 183.5zM371 637h323v90q0 76 -40 126t-122 50 q-78 0 -119.5 -50t-41.5 -122v-94z" />
<glyph unicode="f" horiz-adv-x="718" d="M63 846v219h136v127q0 146 86 220.5t225 74.5q99 0 168 -19v-202q-42 10 -109 10q-100 0 -100 -92v-119h182v-219h-182v-846h-270v846h-136z" />
<glyph unicode="g" horiz-adv-x="1093" d="M98 362v404q0 149 99 242.5t243 93.5q83 0 164.5 -46.5t118.5 -121.5h2l8 143h240v-1016q0 -216 -121.5 -331t-345.5 -115q-230 0 -391 76l75 209q162 -70 297 -70q107 0 160 44t53 138v213h-2q-40 -90 -116.5 -139t-163.5 -49q-155 0 -237.5 89.5t-82.5 235.5zM369 401 q0 -163 145 -163q72 0 128 66.5t56 166.5v231q0 90 -57.5 146.5t-124.5 56.5q-147 0 -147 -180v-324z" />
<glyph unicode="h" horiz-adv-x="1110" d="M125 0v1460h270v-540h4q50 89 132 134.5t180 45.5q120 0 201 -83t81 -214v-803h-270v729q0 77 -31.5 118.5t-109.5 41.5q-71 0 -129 -62t-58 -155v-672h-270z" />
<glyph unicode="i" horiz-adv-x="518" d="M125 0v1075h270v-1075h-270zM125 1208v275h270v-275h-270z" />
<glyph unicode="j" horiz-adv-x="536" d="M0 -154q20 -4 55 -4q55 0 72.5 29t17.5 88v1116h271v-1165q0 -145 -79.5 -220t-211.5 -75q-74 0 -125 10v221zM145 1208v275h271v-275h-271z" />
<glyph unicode="k" horiz-adv-x="1040" d="M125 0v1460h270v-848l316 463h288l-264 -362l269 -713h-287l-185 514l-137 -190v-324h-270z" />
<glyph unicode="l" horiz-adv-x="612" d="M117 231v1229h272v-1157q0 -44 21.5 -68t74.5 -24q26 0 76 8v-207q-83 -30 -172 -30q-129 0 -200.5 64.5t-71.5 184.5z" />
<glyph unicode="m" horiz-adv-x="1705" d="M125 0v1075h258v-168h4q51 95 136.5 144t187.5 49q93 0 166 -53t100 -134h6q55 92 138.5 139.5t185.5 47.5q117 0 201.5 -81t84.5 -212v-807h-270v735q0 154 -141 154q-71 0 -129.5 -60.5t-59.5 -150.5v-678h-270v741q-3 148 -141 148q-71 0 -129 -62t-58 -155v-672h-270 z" />
<glyph unicode="n" horiz-adv-x="1107" d="M125 0v1075h260v-164h4q53 94 136 141.5t186 47.5q116 0 199 -83.5t83 -213.5v-803h-270v733q0 156 -141 156q-71 0 -129 -62t-58 -155v-672h-270z" />
<glyph unicode="o" horiz-adv-x="1071" d="M98 373v319q0 99 35 178t95 128.5t137.5 75.5t166.5 26q71 0 135 -14.5t120.5 -46t97.5 -77.5t64.5 -113.5t23.5 -150.5v-321q0 -102 -36 -181.5t-97.5 -126.5t-138 -70.5t-164.5 -23.5q-91 0 -168.5 22.5t-139 69t-96.5 125t-35 181.5zM371 362q0 -85 41.5 -132.5 t126.5 -47.5q84 0 122.5 50t38.5 133v348q0 80 -42.5 130t-122.5 50q-83 0 -123.5 -52t-40.5 -136v-343z" />
<glyph unicode="p" horiz-adv-x="1095" d="M125 -365v1440h260v-166h4q48 92 133 142.5t168 50.5q102 0 172.5 -47.5t102.5 -123t32 -171.5v-420q0 -155 -92 -260t-243 -105q-76 0 -153 42t-110 114h-4v-496h-270zM395 395q0 -99 59 -161t132 -62q141 0 141 164v395q0 158 -149 158q-76 0 -129.5 -64.5 t-53.5 -173.5v-256z" />
<glyph unicode="q" horiz-adv-x="1089" d="M98 322v421q0 158 94.5 257.5t241.5 99.5q84 0 165 -43.5t120 -122.5h4l10 143h240v-1442h-273v525h-4q-48 -86 -128.5 -135.5t-159.5 -49.5q-152 0 -231 99t-79 248zM369 336q0 -150 139 -150q70 0 131 65t61 165v270q0 96 -57 156.5t-133 60.5q-141 0 -141 -170v-397z " />
<glyph unicode="r" horiz-adv-x="780" d="M125 0v1075h262v-172h2q47 95 108 139.5t152 44.5q53 0 92 -8v-243q-49 6 -102 6q-31 0 -61.5 -5t-64 -19.5t-59 -37t-42 -60t-17.5 -85.5v-635h-270z" />
<glyph unicode="s" horiz-adv-x="958" d="M47 133l137 176q165 -129 283 -129q73 0 114.5 28.5t41.5 80.5q0 23 -9 41t-21 30t-37 24t-42.5 18.5t-52.5 17.5l-99 33q-125 38 -189 118.5t-64 192.5q0 64 24 123t70 107t120 77t166 29q219 0 363 -123l-133 -176q-122 94 -234 94q-61 0 -96 -24t-35 -68 q0 -46 26.5 -69.5t90.5 -47.5l135 -45q277 -93 277 -324q0 -154 -119.5 -248t-294.5 -94q-267 0 -422 158z" />
<glyph unicode="t" horiz-adv-x="784" d="M63 846v217h150v285h274v-285h244v-217h-244v-531q0 -48 24.5 -73t80.5 -25q48 0 113 14v-217q-101 -34 -211 -34q-43 0 -81 7t-75.5 24.5t-64.5 45t-43.5 72t-16.5 102.5v615h-150z" />
<glyph unicode="u" d="M119 272v803h270v-725q0 -79 30 -121.5t107 -42.5q78 0 134.5 64.5t56.5 159.5v665h270v-1075h-252l-8 168h-4q-39 -83 -126 -138t-185 -55q-120 0 -206.5 79t-86.5 218z" />
<glyph unicode="v" horiz-adv-x="993" d="M33 1075h289l186 -704h4l195 704h251l-335 -1077h-256z" />
<glyph unicode="w" horiz-adv-x="1472" d="M43 1075h281l127 -645h10l160 645h260l155 -645h8l138 645h245l-270 -1077h-242l-174 739h-6l-180 -739h-248z" />
<glyph unicode="x" horiz-adv-x="978" d="M18 0l318 551l-291 524h293l178 -336l172 336h260l-295 -518l308 -557h-291l-197 369l-194 -369h-261z" />
<glyph unicode="y" horiz-adv-x="999" d="M29 1075h284l213 -698h2l199 698h246l-363 -1157q-51 -161 -137.5 -232t-212.5 -71q-94 0 -164 18l15 222q66 -17 131 -17q43 0 71.5 20t46.5 70l29 97z" />
<glyph unicode="z" horiz-adv-x="946" d="M82 0v172l453 694h-441v209h768v-178l-442 -686h442v-211h-780z" />
<glyph unicode="{" horiz-adv-x="606" d="M82 506v164q55 10 70.5 30t15.5 68v498q0 96 47 145t127 49h217v-153h-129q-41 0 -41 -47v-472q0 -79 -19.5 -122t-72.5 -64v-10q59 -25 75.5 -62t16.5 -124v-568q0 -45 41 -45h129v-153h-219q-79 0 -125.5 47.5t-46.5 142.5v557q0 63 -18 89t-68 30z" />
<glyph unicode="|" horiz-adv-x="577" d="M207 -109v1586h164v-1586h-164z" />
<glyph unicode="}" horiz-adv-x="606" d="M47 -207h129q39 0 39 45v568q0 86 17.5 123.5t76.5 62.5v10q-53 21 -73.5 64t-20.5 122v476q0 45 -39 45h-129v153h217q80 0 127 -48.5t47 -143.5v-502q0 -48 15 -68t67 -30v-164q-48 -4 -65 -30t-17 -89v-557q0 -95 -47 -142.5t-127 -47.5h-217v153z" />
<glyph unicode="~" d="M96 520q17 110 69.5 180t145.5 70q57 0 244 -34t242 -34q35 0 56.5 24.5t37.5 72.5l119 -29q-7 -50 -22 -92.5t-39.5 -79t-63.5 -57.5t-88 -21q-54 0 -243.5 34t-244.5 34q-40 0 -58.5 -21.5t-33.5 -70.5z" />
<glyph unicode="&#xa1;" horiz-adv-x="536" d="M135 193l49 503h166l51 -503v-519h-266v519zM139 829v306h258v-306h-258z" />
<glyph unicode="&#xa2;" horiz-adv-x="1038" d="M102 403v316q0 165 94 266t244 127v152h203v-152q141 -23 221 -108t80 -209v-78h-244v63q0 64 -39 107t-120 43q-85 0 -127.5 -52t-42.5 -139v-340q0 -90 41.5 -142t128.5 -52q82 0 120.5 42.5t38.5 106.5v66h244v-86q0 -126 -79 -207.5t-222 -103.5v-152h-203v152 q-155 20 -246.5 116t-91.5 264z" />
<glyph unicode="&#xa3;" horiz-adv-x="1146" d="M86 0v225h143v416h-116v164h116v280q0 104 37.5 183.5t100.5 125.5t137 68.5t155 22.5q168 0 274.5 -88.5t106.5 -253.5v-107h-229v105q0 68 -40 103.5t-112 35.5q-70 0 -112.5 -43.5t-42.5 -118.5v-313h344v-164h-344v-416h575l-47 -225h-946z" />
<glyph unicode="&#xa4;" horiz-adv-x="858" d="M80 969l82 80l88 -88q86 57 178 57q93 0 166 -49l92 92l82 -82l-88 -90q57 -82 57 -182q0 -90 -51 -166l90 -90l-80 -84l-90 90q-82 -56 -176 -56q-88 0 -166 48l-90 -91l-84 82l90 90q-57 82 -57 179q0 91 49 165q-4 3 -25 25t-43.5 45.5t-23.5 24.5zM242 707 q0 -80 51.5 -139.5t134.5 -59.5q91 0 139.5 56.5t48.5 144.5q0 87 -51 144.5t-135 57.5q-91 0 -139.5 -56.5t-48.5 -147.5z" />
<glyph unicode="&#xa5;" horiz-adv-x="1159" d="M25 1460h305l264 -600l258 600h283l-363 -782h287v-178h-332v-500h-295v500h-330v178h285z" />
<glyph unicode="&#xa6;" horiz-adv-x="585" d="M205 -98v743h176v-743h-176zM205 782v680h176v-680h-176z" />
<glyph unicode="&#xa7;" horiz-adv-x="985" d="M82 150v61h213v-25q0 -80 51.5 -132t155.5 -52q85 0 130.5 46.5t45.5 111.5q0 35 -13 61.5t-39 45t-47 28.5t-55 22q-89 27 -155 50q-269 86 -269 297q0 71 38.5 137.5t107.5 113.5q-72 43 -103.5 101t-31.5 139q0 142 100.5 232t280.5 90q173 0 275.5 -81.5 t102.5 -232.5v-57h-198v55q0 63 -46.5 106.5t-129.5 43.5q-84 0 -130.5 -38t-46.5 -102q0 -95 132 -143l178 -63q56 -19 98.5 -40.5t84.5 -55.5t64.5 -83.5t22.5 -111.5q0 -75 -39.5 -140.5t-111.5 -111.5q72 -40 112 -100.5t39 -137.5q0 -152 -118 -250t-306 -98 q-54 0 -106.5 9t-105 32t-92 57.5t-64.5 90t-25 125.5zM311 674q0 -82 127 -125l125 -39q53 19 85 56.5t32 82.5q0 83 -121 133q-110 39 -141 45q-45 -24 -76 -63t-31 -90z" />
<glyph unicode="&#xa8;" horiz-adv-x="792" d="M94 1219v276h228v-276h-228zM471 1219v276h227v-276h-227z" />
<glyph unicode="&#xa9;" horiz-adv-x="1724" d="M104 713q0 165 55 313t152 258.5t239.5 175t309.5 64.5q174 0 319.5 -64.5t241.5 -175.5t148.5 -258t52.5 -313q0 -167 -53 -315t-149 -259t-241 -176t-319 -65q-178 0 -322 63t-238.5 174t-145 259t-50.5 319zM254 713q0 -159 47.5 -291.5t130 -220.5t194 -136.5 t238.5 -48.5q125 0 236.5 50t194.5 139.5t131.5 221t48.5 286.5q0 159 -49 291.5t-132.5 220t-195.5 136t-238 48.5q-128 0 -239 -49t-192.5 -138t-128 -220.5t-46.5 -288.5zM487 504v407q0 164 108 255t273 91q102 0 182.5 -32.5t130.5 -101t50 -162.5v-119h-207v104 q0 53 -39 92t-113 39q-82 0 -120.5 -46.5t-38.5 -125.5v-397q0 -170 159 -170q74 0 113 39t39 92v111h207v-125q0 -94 -50 -162.5t-131 -101.5t-182 -33q-169 0 -275 87.5t-106 258.5z" />
<glyph unicode="&#xaa;" horiz-adv-x="722" d="M72 975q0 59 27.5 104t73 69.5t94.5 36t100 11.5h75v76q0 39 -24 60.5t-68 21.5q-43 0 -67.5 -22t-24.5 -54v-35h-166v39q0 92 78.5 145.5t196.5 53.5q112 0 185 -53t73 -158v-318q0 -57 10 -157h-172q0 15 -6 88q-32 -55 -87 -79t-104 -24q-83 0 -138.5 50.5 t-55.5 144.5zM113 539v153h512v-153h-512zM260 1001q0 -92 84 -92q37 0 67.5 31t30.5 76v82h-69q-113 0 -113 -97z" />
<glyph unicode="&#xab;" horiz-adv-x="1024" d="M68 549l290 371l142 -86l-154 -285l160 -287l-146 -82zM518 549l293 371l139 -86l-153 -285l159 -287l-145 -82z" />
<glyph unicode="&#xac;" horiz-adv-x="1171" d="M90 561v164h961v-430h-185v266h-776z" />
<glyph unicode="&#xad;" horiz-adv-x="649" d="M86 518v201h479v-201h-479z" />
<glyph unicode="&#xae;" horiz-adv-x="1044" d="M76 1071q0 195 125 328t319 133q200 0 324.5 -132.5t124.5 -328.5q0 -194 -126 -328.5t-325 -134.5q-134 0 -236 63.5t-154 168t-52 231.5zM176 1071q0 -86 29 -158.5t77 -120t109 -74t127 -26.5q68 0 131.5 27t112.5 75t78.5 120t29.5 157q0 168 -103 273.5t-249 105.5 q-143 0 -242.5 -104.5t-99.5 -274.5zM340 813v535h209q86 0 132 -46t46 -118q0 -55 -27 -97t-77 -63l122 -211h-122l-111 195h-55v-195h-117zM457 1094h71q41 0 63.5 21.5t22.5 60.5q0 36 -23 58.5t-63 22.5h-71v-163z" />
<glyph unicode="&#xaf;" horiz-adv-x="835" d="M100 1231v188h635v-188h-635z" />
<glyph unicode="&#xb0;" horiz-adv-x="622" d="M82 1278q0 93 66 160t161 67q102 0 167 -64.5t65 -156.5q0 -94 -67.5 -160.5t-164.5 -66.5q-101 0 -164 65t-63 156zM203 1278q0 -46 31 -79.5t75 -33.5q47 0 79 33.5t32 79.5q0 50 -30.5 85.5t-80.5 35.5q-46 0 -76 -34.5t-30 -86.5z" />
<glyph unicode="&#xb1;" d="M131 61v175h842v-175h-842zM131 680v172h338v317h170v-317h336v-172h-336v-307h-170v307h-338z" />
<glyph unicode="&#xb2;" horiz-adv-x="677" d="M68 1323v47q0 110 75 169.5t199 59.5q128 0 199 -66t71 -173q0 -49 -13.5 -93t-46 -90.5t-55 -72.5t-71.5 -80l-80 -94h272v-152h-530v121l207 219q65 74 99 128.5t34 105.5v6q0 40 -21.5 65t-66.5 25t-67.5 -25t-22.5 -69v-31h-182z" />
<glyph unicode="&#xb3;" horiz-adv-x="694" d="M61 979v33h181v-27q0 -41 27.5 -62.5t68.5 -21.5q47 0 71.5 29t24.5 82q0 56 -32.5 80t-69.5 24h-74v129h61q107 0 107 107q0 49 -26 72.5t-64 23.5q-44 0 -68 -22.5t-24 -61.5v-23h-176v33q0 105 72.5 166.5t199.5 61.5q128 0 200 -62.5t72 -163.5q0 -64 -34 -117 t-97 -71v-4q70 -17 111 -69t41 -120q0 -124 -79 -182.5t-210 -58.5q-138 0 -210.5 59t-72.5 166z" />
<glyph unicode="&#xb4;" horiz-adv-x="589" d="M96 1196l176 317h267l-240 -317h-203z" />
<glyph unicode="&#xb5;" horiz-adv-x="1146" d="M119 -365v1442h274v-721q0 -75 38 -120.5t116 -45.5q72 0 128 60.5t56 152.5v674h273v-702q0 -47 25 -82t71 -45l-2 -258q-236 31 -287 182q-33 -87 -98 -142t-164 -55q-79 0 -133 32t-78 87l-10 -2l51 -434z" />
<glyph unicode="&#xb6;" horiz-adv-x="1112" d="M100 944q0 134 49 252t140 191t203 73h536v-166h-106v-1462h-156v1462h-174v-1462h-154v621q-110 17 -188 89.5t-114 175.5t-36 226z" />
<glyph unicode="&#xb7;" horiz-adv-x="507" d="M119 553v305h268v-305h-268z" />
<glyph unicode="&#xb8;" horiz-adv-x="694" d="M121 -285q102 -26 186 -26q88 0 88 55q0 51 -96 55l-86 6l57 218h113l-35 -132q42 -1 79 -7.5t73 -21t57 -43.5t21 -69q0 -78 -75.5 -127t-185.5 -49q-102 0 -196 25v116z" />
<glyph unicode="&#xb9;" horiz-adv-x="565" d="M90 1538l209 55h107v-815h-195v643l-100 -22z" />
<glyph unicode="&#xba;" horiz-adv-x="747" d="M90 1028v203q0 125 79 189.5t198 64.5q124 0 204 -61.5t80 -188.5v-207q0 -83 -40.5 -140t-102 -81.5t-137.5 -24.5q-123 0 -202 59.5t-79 186.5zM119 539v153h512v-153h-512zM276 1022q0 -104 95 -104q94 0 94 104v223q0 46 -23.5 74.5t-70.5 28.5q-48 0 -71.5 -29.5 t-23.5 -75.5v-221z" />
<glyph unicode="&#xbb;" horiz-adv-x="1024" d="M68 838l145 84l293 -369l-291 -371l-143 86l155 285zM518 838l146 84l294 -369l-292 -371l-144 86l156 285z" />
<glyph unicode="&#xbc;" horiz-adv-x="1574" d="M145 1407l209 55h107v-815h-195v643l-100 -22zM279 -4l796 1474h135l-796 -1474h-135zM846 176v137l293 498h200l-305 -487h144v104l192 131v-235h84v-148h-84v-176h-192v176h-332z" />
<glyph unicode="&#xbd;" horiz-adv-x="1574" d="M137 1407l209 55h107v-815h-195v643l-100 -22zM272 -4l797 1474h135l-796 -1474h-136zM911 545v47q0 110 75.5 169.5t199.5 59.5q128 0 199 -66t71 -173q0 -49 -13.5 -93t-46 -90.5t-55 -72.5t-71.5 -80l-80 -94h272v-152h-530v121l207 219q65 75 99 128.5t34 104.5v7 q0 40 -21.5 65t-66.5 25q-44 0 -67 -25.5t-23 -69.5v-30h-183z" />
<glyph unicode="&#xbe;" horiz-adv-x="1574" d="M82 848v33h180v-27q0 -41 27.5 -62.5t68.5 -21.5q47 0 72 29t25 82q0 56 -33 80t-70 24h-73v129h61q106 0 106 107q0 49 -26 72.5t-64 23.5q-44 0 -68 -22.5t-24 -61.5v-23h-176v33q0 105 72.5 166t199.5 61q128 0 200.5 -62t72.5 -163q0 -64 -34 -117t-97 -71v-4 q70 -17 110.5 -69t40.5 -120q0 -124 -79 -182.5t-209 -58.5q-138 0 -210.5 59t-72.5 166zM356 -4l797 1474h135l-796 -1474h-136zM883 176v137l293 498h200l-305 -487h143v104l193 131v-235h84v-148h-84v-176h-193v176h-331z" />
<glyph unicode="&#xbf;" horiz-adv-x="1013" d="M90 37q-1 62 13.5 116t42.5 99.5t56 79t68 71.5q8 8 37.5 35.5t42.5 42.5t33 41t29 52.5t10 56.5v65h246v-61q-4 -95 -37 -163t-96 -136q-3 -3 -34.5 -35.5t-37.5 -39.5t-30 -35.5t-31 -43t-20.5 -40.5t-17.5 -49.5t-4 -49.5q0 -79 42.5 -122.5t121.5 -43.5q68 0 113 42 t45 120v33h231v-33q0 -179 -115 -281t-292 -102q-197 0 -306.5 101t-109.5 280zM406 829v308h274v-308h-274z" />
<glyph unicode="&#xc0;" horiz-adv-x="1290" d="M41 0l430 1462h356l424 -1462h-295l-96 350h-454l-95 -350h-270zM291 1876h268l176 -317h-200zM467 573h332l-162 605h-6z" />
<glyph unicode="&#xc1;" horiz-adv-x="1290" d="M41 0l430 1462h356l424 -1462h-295l-96 350h-454l-95 -350h-270zM467 573h332l-162 605h-6zM567 1561l176 317h267l-240 -317h-203z" />
<glyph unicode="&#xc2;" horiz-adv-x="1290" d="M41 0l430 1462h356l424 -1462h-295l-96 350h-454l-95 -350h-270zM324 1563l219 327h194l217 -327h-211l-108 182l-111 -182h-200zM467 573h332l-162 605h-6z" />
<glyph unicode="&#xc3;" horiz-adv-x="1290" d="M41 0l430 1462h356l424 -1462h-295l-96 350h-454l-95 -350h-270zM266 1581q13 108 70.5 181t150.5 73q53 0 158 -37t158 -37q37 0 58 25t38 74l119 -31q-13 -105 -67.5 -175.5t-147.5 -70.5q-54 0 -158 36t-153 36q-40 0 -59 -23t-34 -76zM467 573h332l-162 605h-6z" />
<glyph unicode="&#xc4;" horiz-adv-x="1290" d="M41 0l430 1462h356l424 -1462h-295l-96 350h-454l-95 -350h-270zM354 1585v277h228v-277h-228zM467 573h332l-162 605h-6zM731 1585v277h227v-277h-227z" />
<glyph unicode="&#xc5;" horiz-adv-x="1290" d="M41 0l430 1462h356l424 -1462h-295l-96 350h-454l-95 -350h-270zM444 1722q0 87 58 146t141 59q92 0 147.5 -52t55.5 -142q0 -86 -58 -146.5t-143 -60.5q-89 0 -145 55t-56 141zM467 573h332l-162 605h-6zM553 1724q0 -47 24.5 -75.5t65.5 -28.5q44 0 69 28t25 78 q0 49 -24 78t-72 29q-43 0 -65.5 -30.5t-22.5 -78.5z" />
<glyph unicode="&#xc6;" horiz-adv-x="1845" d="M35 0l624 1460h1088v-237h-612v-363h487v-237h-487v-383h614v-240h-905v344l-371 2l-145 -346h-293zM555 563h289v684h-4z" />
<glyph unicode="&#xc7;" horiz-adv-x="1226" d="M104 442v576q0 144 72.5 251.5t192 161.5t266.5 54q141 0 252 -48t177 -144.5t66 -227.5v-98h-264v71q0 95 -62.5 152t-168.5 57q-112 0 -174 -61.5t-62 -169.5v-561q0 -120 64 -181t176 -61q102 0 164.5 55t62.5 148v80h264v-99q0 -189 -124 -298.5t-322 -121.5l-22 -86 q42 -1 78.5 -7.5t72.5 -21t57 -43.5t21 -69q0 -78 -75 -127t-185 -49q-103 0 -197 25v116q102 -26 187 -26q88 0 88 55q0 51 -97 55l-86 6l45 172q-100 8 -183 39.5t-147.5 87t-100.5 142t-36 196.5z" />
<glyph unicode="&#xc8;" horiz-adv-x="1138" d="M135 0v1460h905v-239h-612v-357h487v-239h-487v-383h614v-242h-907zM289 1878h268l176 -317h-201z" />
<glyph unicode="&#xc9;" horiz-adv-x="1138" d="M135 0v1460h905v-239h-612v-357h487v-239h-487v-383h614v-242h-907zM471 1561l176 317h266l-239 -317h-203z" />
<glyph unicode="&#xca;" horiz-adv-x="1138" d="M135 0v1460h905v-239h-612v-357h487v-239h-487v-383h614v-242h-907zM285 1563l219 327h194l217 -327h-210l-109 182l-111 -182h-200z" />
<glyph unicode="&#xcb;" horiz-adv-x="1138" d="M135 0v1460h905v-239h-612v-357h487v-239h-487v-383h614v-242h-907zM309 1583v277h228v-277h-228zM686 1583v277h227v-277h-227z" />
<glyph unicode="&#xcc;" horiz-adv-x="552" d="M-80 1878h268l177 -317h-201zM133 0v1460h293v-1460h-293z" />
<glyph unicode="&#xcd;" horiz-adv-x="552" d="M133 0v1460h293v-1460h-293zM195 1561l176 317h266l-240 -317h-202z" />
<glyph unicode="&#xce;" horiz-adv-x="552" d="M-31 1563l219 327h195l217 -327h-211l-108 182l-111 -182h-201zM133 0v1460h293v-1460h-293z" />
<glyph unicode="&#xcf;" horiz-adv-x="552" d="M-10 1583v277h227v-277h-227zM133 0v1460h293v-1460h-293zM367 1583v277h227v-277h-227z" />
<glyph unicode="&#xd0;" horiz-adv-x="1304" d="M66 645v193h106v622h535q144 0 253 -44.5t175.5 -142.5t66.5 -241v-577q0 -114 -38 -202.5t-105.5 -143t-156 -82t-195.5 -27.5h-535v645h-106zM465 236h211q114 0 172.5 67.5t58.5 159.5v536q0 101 -60 163.5t-173 62.5h-209v-387h264v-193h-264v-409z" />
<glyph unicode="&#xd1;" horiz-adv-x="1325" d="M135 0v1460h289l504 -882h4v882h262v-1460h-246l-549 956h-4v-956h-260zM311 1581q13 108 70.5 181t150.5 73q53 0 158 -37t158 -37q37 0 58 25t38 74l119 -31q-13 -105 -67.5 -175.5t-147.5 -70.5q-54 0 -158 36t-153 36q-40 0 -59 -23t-34 -76z" />
<glyph unicode="&#xd2;" horiz-adv-x="1277" d="M104 455v538q0 158 72.5 271t191 167t269.5 54q89 0 167.5 -17t147 -54t118 -92t78 -136t28.5 -180v-539q0 -124 -43 -220t-117.5 -154.5t-170 -88t-206.5 -29.5q-113 0 -207 27.5t-169 83t-117 150t-42 219.5zM299 1878h268l176 -317h-200zM399 461q0 -115 63 -179.5 t179 -64.5q111 0 175.5 66t64.5 176v553q0 110 -67.5 171.5t-178.5 61.5q-114 0 -175 -65t-61 -181v-538z" />
<glyph unicode="&#xd3;" horiz-adv-x="1277" d="M104 455v538q0 158 72.5 271t191 167t269.5 54q89 0 167.5 -17t147 -54t118 -92t78 -136t28.5 -180v-539q0 -124 -43 -220t-117.5 -154.5t-170 -88t-206.5 -29.5q-113 0 -207 27.5t-169 83t-117 150t-42 219.5zM399 461q0 -115 63 -179.5t179 -64.5q111 0 175.5 66 t64.5 176v553q0 110 -67.5 171.5t-178.5 61.5q-114 0 -175 -65t-61 -181v-538zM520 1561l176 317h267l-240 -317h-203z" />
<glyph unicode="&#xd4;" horiz-adv-x="1277" d="M104 455v538q0 158 72.5 271t191 167t269.5 54q89 0 167.5 -17t147 -54t118 -92t78 -136t28.5 -180v-539q0 -124 -43 -220t-117.5 -154.5t-170 -88t-206.5 -29.5q-113 0 -207 27.5t-169 83t-117 150t-42 219.5zM319 1563l220 327h194l217 -327h-211l-108 182l-111 -182 h-201zM399 461q0 -115 63 -179.5t179 -64.5q111 0 175.5 66t64.5 176v553q0 110 -67.5 171.5t-178.5 61.5q-114 0 -175 -65t-61 -181v-538z" />
<glyph unicode="&#xd5;" horiz-adv-x="1277" d="M104 455v538q0 158 72.5 271t191 167t269.5 54q89 0 167.5 -17t147 -54t118 -92t78 -136t28.5 -180v-539q0 -124 -43 -220t-117.5 -154.5t-170 -88t-206.5 -29.5q-113 0 -207 27.5t-169 83t-117 150t-42 219.5zM254 1581q13 108 70.5 181t150.5 73q53 0 158 -37t158 -37 q37 0 58 25t38 74l119 -31q-13 -105 -67.5 -175.5t-147.5 -70.5q-54 0 -158.5 36t-153.5 36q-40 0 -58.5 -23t-33.5 -76zM399 461q0 -115 63 -179.5t179 -64.5q111 0 175.5 66t64.5 176v553q0 110 -67.5 171.5t-178.5 61.5q-114 0 -175 -65t-61 -181v-538z" />
<glyph unicode="&#xd6;" horiz-adv-x="1277" d="M104 455v538q0 158 72.5 271t191 167t269.5 54q89 0 167.5 -17t147 -54t118 -92t78 -136t28.5 -180v-539q0 -124 -43 -220t-117.5 -154.5t-170 -88t-206.5 -29.5q-113 0 -207 27.5t-169 83t-117 150t-42 219.5zM344 1583v277h227v-277h-227zM399 461q0 -115 63 -179.5 t179 -64.5q111 0 175.5 66t64.5 176v553q0 110 -67.5 171.5t-178.5 61.5q-114 0 -175 -65t-61 -181v-538zM721 1583v277h227v-277h-227z" />
<glyph unicode="&#xd7;" d="M139 950l121 123l297 -295q32 35 150.5 153.5t138.5 139.5l123 -121l-291 -295q44 -46 145.5 -149.5t145.5 -149.5l-123 -120l-289 294q-40 -39 -90 -90t-113 -116.5t-88 -90.5l-121 121l289 299z" />
<glyph unicode="&#xd8;" horiz-adv-x="1273" d="M104 455v538q0 158 72.5 271t191 167t269.5 54q158 0 287 -60l71 144l125 -56l-82 -161q138 -128 138 -346v-539q0 -124 -43 -220t-117.5 -154.5t-170 -88t-206.5 -29.5q-151 0 -264 45l-78 -155l-123 55l84 170q-154 125 -154 365zM399 461q0 -39 9 -74l399 803 q-64 55 -172 55q-114 0 -175 -65t-61 -181v-538zM492 256q61 -39 149 -39q111 0 175.5 66t64.5 176v553q0 3 -1 9.5t-1 10.5z" />
<glyph unicode="&#xd9;" horiz-adv-x="1298" d="M123 446v1014h293v-997q0 -128 67.5 -190t173.5 -62q107 0 172 67t62 181v1001h280v-999q1 -230 -144.5 -358t-381.5 -128q-115 0 -209 27.5t-164.5 83t-109.5 147.5t-39 213zM326 1872h268l176 -318h-201z" />
<glyph unicode="&#xda;" horiz-adv-x="1298" d="M123 446v1014h293v-997q0 -128 67.5 -190t173.5 -62q107 0 172 67t62 181v1001h280v-999q1 -230 -144.5 -358t-381.5 -128q-115 0 -209 27.5t-164.5 83t-109.5 147.5t-39 213zM567 1559l176 317h267l-240 -317h-203z" />
<glyph unicode="&#xdb;" horiz-adv-x="1298" d="M123 446v1014h293v-997q0 -128 67.5 -190t173.5 -62q107 0 172 67t62 181v1001h280v-999q1 -230 -144.5 -358t-381.5 -128q-115 0 -209 27.5t-164.5 83t-109.5 147.5t-39 213zM346 1561l219 327h195l217 -327h-211l-109 182l-110 -182h-201z" />
<glyph unicode="&#xdc;" horiz-adv-x="1298" d="M123 446v1014h293v-997q0 -128 67.5 -190t173.5 -62q107 0 172 67t62 181v1001h280v-999q1 -230 -144.5 -358t-381.5 -128q-115 0 -209 27.5t-164.5 83t-109.5 147.5t-39 213zM371 1583v277h227v-277h-227zM748 1583v277h227v-277h-227z" />
<glyph unicode="&#xdd;" horiz-adv-x="1177" d="M35 1460h309l262 -606l262 606h275l-408 -870v-590h-293v592zM516 1552l176 318h266l-239 -318h-203z" />
<glyph unicode="&#xde;" horiz-adv-x="1214" d="M135 0v1460h291v-270h252q218 0 331 -118.5t113 -309.5q0 -204 -117 -331.5t-343 -127.5h-236v-303h-291zM426 512h180q110 0 171 62.5t61 175.5q0 101 -55 164t-154 63h-203v-465z" />
<glyph unicode="&#xdf;" horiz-adv-x="1316" d="M74 850v213h135v18q0 73 28 142.5t82.5 129.5t149.5 97t215 37q206 0 327.5 -107.5t121.5 -271.5q0 -106 -55.5 -202t-157.5 -144v-4q165 -67 244 -180t79 -228q0 -175 -109 -274t-268 -99q-190 0 -317 109l92 186q38 -27 62.5 -42.5t63.5 -29.5t77 -14q70 0 106.5 39.5 t36.5 106.5q0 110 -98 183t-238 99v215l51 2q72 35 116 102.5t44 143.5q0 91 -48 142t-146 51q-96 0 -142.5 -54t-46.5 -145v-1071h-270v850h-135z" />
<glyph unicode="&#xe0;" horiz-adv-x="1058" d="M80 287q0 76 28.5 138t74 101t106.5 66t122 38t124 11h133v131q0 66 -41.5 101.5t-116.5 35.5q-73 0 -115.5 -37.5t-42.5 -97.5v-47h-243v59q0 146 121 230t305 84q84 0 156 -20t128.5 -60t88.5 -105t32 -149v-512q0 -44 12 -254h-250q0 5 -1.5 24.5t-4 56t-4.5 75.5h-10 q-24 -53 -63 -90.5t-82.5 -55.5t-80.5 -25.5t-73 -7.5q-131 0 -217 80t-86 230zM205 1513h268l176 -317h-200zM352 328q0 -73 40.5 -112.5t103.5 -39.5q70 0 121 52.5t51 136.5v116h-115q-55 0 -97.5 -12.5t-73 -48.5t-30.5 -92z" />
<glyph unicode="&#xe1;" horiz-adv-x="1058" d="M80 287q0 76 28.5 138t74 101t106.5 66t122 38t124 11h133v131q0 66 -41.5 101.5t-116.5 35.5q-73 0 -115.5 -37.5t-42.5 -97.5v-47h-243v59q0 146 121 230t305 84q84 0 156 -20t128.5 -60t88.5 -105t32 -149v-512q0 -44 12 -254h-250q0 5 -1.5 24.5t-4 56t-4.5 75.5h-10 q-24 -53 -63 -90.5t-82.5 -55.5t-80.5 -25.5t-73 -7.5q-131 0 -217 80t-86 230zM352 328q0 -73 40.5 -112.5t103.5 -39.5q70 0 121 52.5t51 136.5v116h-115q-55 0 -97.5 -12.5t-73 -48.5t-30.5 -92zM403 1196l177 317h266l-240 -317h-203z" />
<glyph unicode="&#xe2;" horiz-adv-x="1058" d="M80 287q0 76 28.5 138t74 101t106.5 66t122 38t124 11h133v131q0 66 -41.5 101.5t-116.5 35.5q-73 0 -115.5 -37.5t-42.5 -97.5v-47h-243v59q0 146 121 230t305 84q84 0 156 -20t128.5 -60t88.5 -105t32 -149v-512q0 -44 12 -254h-250q0 5 -1.5 24.5t-4 56t-4.5 75.5h-10 q-24 -53 -63 -90.5t-82.5 -55.5t-80.5 -25.5t-73 -7.5q-131 0 -217 80t-86 230zM195 1198l219 328h194l217 -328h-211l-108 182l-111 -182h-200zM352 328q0 -73 40.5 -112.5t103.5 -39.5q70 0 121 52.5t51 136.5v116h-115q-55 0 -97.5 -12.5t-73 -48.5t-30.5 -92z" />
<glyph unicode="&#xe3;" horiz-adv-x="1058" d="M80 287q0 76 28.5 138t74 101t106.5 66t122 38t124 11h133v131q0 66 -41.5 101.5t-116.5 35.5q-73 0 -115.5 -37.5t-42.5 -97.5v-47h-243v59q0 146 121 230t305 84q84 0 156 -20t128.5 -60t88.5 -105t32 -149v-512q0 -44 12 -254h-250q0 5 -1.5 24.5t-4 56t-4.5 75.5h-10 q-24 -53 -63 -90.5t-82.5 -55.5t-80.5 -25.5t-73 -7.5q-131 0 -217 80t-86 230zM137 1217q13 108 70.5 180.5t150.5 72.5q53 0 158 -36.5t158 -36.5q37 0 58 24.5t38 73.5l119 -31q-13 -105 -67.5 -175t-147.5 -70q-54 0 -158.5 35.5t-153.5 35.5q-40 0 -58.5 -22.5 t-33.5 -75.5zM352 328q0 -73 40.5 -112.5t103.5 -39.5q70 0 121 52.5t51 136.5v116h-115q-55 0 -97.5 -12.5t-73 -48.5t-30.5 -92z" />
<glyph unicode="&#xe4;" horiz-adv-x="1058" d="M80 287q0 76 28.5 138t74 101t106.5 66t122 38t124 11h133v131q0 66 -41.5 101.5t-116.5 35.5q-73 0 -115.5 -37.5t-42.5 -97.5v-47h-243v59q0 146 121 230t305 84q84 0 156 -20t128.5 -60t88.5 -105t32 -149v-512q0 -44 12 -254h-250q0 5 -1.5 24.5t-4 56t-4.5 75.5h-10 q-24 -53 -63 -90.5t-82.5 -55.5t-80.5 -25.5t-73 -7.5q-131 0 -217 80t-86 230zM225 1219v276h228v-276h-228zM352 328q0 -73 40.5 -112.5t103.5 -39.5q70 0 121 52.5t51 136.5v116h-115q-55 0 -97.5 -12.5t-73 -48.5t-30.5 -92zM602 1219v276h227v-276h-227z" />
<glyph unicode="&#xe5;" horiz-adv-x="1058" d="M80 287q0 76 28.5 138t74 101t106.5 66t122 38t124 11h133v131q0 66 -41.5 101.5t-116.5 35.5q-73 0 -115.5 -37.5t-42.5 -97.5v-47h-243v59q0 146 121 230t305 84q84 0 156 -20t128.5 -60t88.5 -105t32 -149v-512q0 -44 12 -254h-250q0 5 -1.5 24.5t-4 56t-4.5 75.5h-10 q-24 -53 -63 -90.5t-82.5 -55.5t-80.5 -25.5t-73 -7.5q-131 0 -217 80t-86 230zM322 1368q0 87 58 146t140 59q92 0 147.5 -52.5t55.5 -142.5q0 -86 -58 -146.5t-143 -60.5q-89 0 -144.5 55t-55.5 142zM352 328q0 -73 40.5 -112.5t103.5 -39.5q70 0 121 52.5t51 136.5v116 h-115q-55 0 -97.5 -12.5t-73 -48.5t-30.5 -92zM430 1370q0 -47 24.5 -75.5t65.5 -28.5q44 0 69 28t25 78q0 49 -24 78t-72 29q-43 0 -65.5 -30.5t-22.5 -78.5z" />
<glyph unicode="&#xe6;" horiz-adv-x="1611" d="M80 287q0 76 28.5 138t74 101t106.5 66t122 38t124 11h133v131q0 66 -41.5 101.5t-116.5 35.5q-72 0 -115 -37.5t-43 -97.5v-47h-243v59q0 147 121 230.5t305 83.5q200 0 282 -109q109 109 293 109q187 0 300.5 -104t113.5 -289v-242h-584v-94q0 -93 59.5 -137t163.5 -44 q63 0 141.5 21t131.5 45l63 -180q-73 -50 -174.5 -75.5t-208.5 -25.5q-274 0 -373 189q-25 -47 -63 -82.5t-76 -55t-81 -32t-73.5 -16t-58.5 -3.5q-131 0 -221 81.5t-90 230.5zM352 328q0 -73 40.5 -112.5t103.5 -39.5q70 0 121 49.5t51 132.5v123h-99q-217 0 -217 -153z M940 637h326v90q0 76 -40 126t-124 50q-78 0 -120 -50t-42 -122v-94z" />
<glyph unicode="&#xe7;" horiz-adv-x="1011" d="M98 367v325q0 99 35 178.5t95 128.5t136 75t162 26q183 0 294.5 -90.5t111.5 -243.5v-72h-246v54q0 61 -37 103t-114 42q-83 0 -123.5 -47t-40.5 -129v-357q0 -85 42.5 -132.5t127.5 -47.5q76 0 110.5 46t34.5 108v47h246v-76q0 -138 -93 -224t-251 -101l-23 -89 q42 -1 79 -7.5t73 -21t57 -43.5t21 -69q0 -78 -75 -127t-185 -49q-103 0 -197 25v116q102 -26 186 -26q88 0 88 55q0 51 -96 55l-86 6l45 172q-168 13 -272.5 111.5t-104.5 278.5z" />
<glyph unicode="&#xe8;" horiz-adv-x="1044" d="M98 381v285q0 105 35 188.5t96 136.5t139.5 81t168.5 28q189 0 303 -106.5t114 -291.5v-237h-583v-90q0 -185 217 -185q117 0 278 66l62 -180q-156 -101 -385 -101q-94 0 -173 24t-140.5 71.5t-96.5 127t-35 183.5zM223 1513h269l176 -317h-201zM371 637h323v90 q0 76 -40 126t-122 50q-78 0 -119.5 -50t-41.5 -122v-94z" />
<glyph unicode="&#xe9;" horiz-adv-x="1044" d="M98 381v285q0 105 35 188.5t96 136.5t139.5 81t168.5 28q189 0 303 -106.5t114 -291.5v-237h-583v-90q0 -185 217 -185q117 0 278 66l62 -180q-156 -101 -385 -101q-94 0 -173 24t-140.5 71.5t-96.5 127t-35 183.5zM371 637h323v90q0 76 -40 126t-122 50 q-78 0 -119.5 -50t-41.5 -122v-94zM436 1196l176 317h267l-240 -317h-203z" />
<glyph unicode="&#xea;" horiz-adv-x="1044" d="M98 381v285q0 105 35 188.5t96 136.5t139.5 81t168.5 28q189 0 303 -106.5t114 -291.5v-237h-583v-90q0 -185 217 -185q117 0 278 66l62 -180q-156 -101 -385 -101q-94 0 -173 24t-140.5 71.5t-96.5 127t-35 183.5zM221 1198l219 328h195l217 -328h-211l-109 182 l-110 -182h-201zM371 637h323v90q0 76 -40 126t-122 50q-78 0 -119.5 -50t-41.5 -122v-94z" />
<glyph unicode="&#xeb;" horiz-adv-x="1044" d="M98 381v285q0 105 35 188.5t96 136.5t139.5 81t168.5 28q189 0 303 -106.5t114 -291.5v-237h-583v-90q0 -185 217 -185q117 0 278 66l62 -180q-156 -101 -385 -101q-94 0 -173 24t-140.5 71.5t-96.5 127t-35 183.5zM238 1219v276h227v-276h-227zM371 637h323v90 q0 76 -40 126t-122 50q-78 0 -119.5 -50t-41.5 -122v-94zM614 1219v276h228v-276h-228z" />
<glyph unicode="&#xec;" horiz-adv-x="518" d="M-96 1513h268l176 -317h-201zM125 0v1075h270v-1075h-270z" />
<glyph unicode="&#xed;" horiz-adv-x="518" d="M125 0v1075h270v-1075h-270zM150 1196l176 317h266l-240 -317h-202z" />
<glyph unicode="&#xee;" horiz-adv-x="518" d="M-59 1198l219 328h194l217 -328h-211l-108 182l-111 -182h-200zM125 0v1075h270v-1075h-270z" />
<glyph unicode="&#xef;" horiz-adv-x="518" d="M-33 1219v276h228v-276h-228zM125 0v1075h270v-1075h-270zM344 1219v276h227v-276h-227z" />
<glyph unicode="&#xf0;" horiz-adv-x="1071" d="M98 365v292q0 170 99.5 276t251.5 109q45 0 65 -8l-96 142l-228 -66l-69 141l203 58l-86 131l274 69l82 -123l207 62l69 -141l-184 -58q191 -280 213 -317q32 -48 53 -115.5t21 -136.5v-307q0 -102 -35 -180t-96 -125t-138 -70t-167 -23q-92 0 -169 21.5t-138.5 66 t-96.5 122t-35 180.5zM371 360q0 -82 41 -130t127 -48q159 0 159 183v311q0 82 -40.5 132t-120.5 50q-83 0 -124.5 -51t-41.5 -137v-310z" />
<glyph unicode="&#xf1;" horiz-adv-x="1107" d="M125 0v1075h260v-164h4q53 94 136 141.5t186 47.5q116 0 199 -83.5t83 -213.5v-803h-270v733q0 156 -141 156q-71 0 -129 -62t-58 -155v-672h-270zM213 1217q13 108 70.5 180.5t150.5 72.5q53 0 158 -36.5t158 -36.5q37 0 58 24.5t38 73.5l119 -31q-13 -105 -67.5 -175 t-147.5 -70q-54 0 -158.5 35.5t-153.5 35.5q-40 0 -58.5 -22.5t-33.5 -75.5z" />
<glyph unicode="&#xf2;" horiz-adv-x="1071" d="M98 373v319q0 99 35 178t95 128.5t137.5 75.5t166.5 26q71 0 135 -14.5t120.5 -46t97.5 -77.5t64.5 -113.5t23.5 -150.5v-321q0 -102 -36 -181.5t-97.5 -126.5t-138 -70.5t-164.5 -23.5q-91 0 -168.5 22.5t-139 69t-96.5 125t-35 181.5zM207 1513h268l176 -317h-200z M371 362q0 -85 41.5 -132.5t126.5 -47.5q84 0 122.5 50t38.5 133v348q0 80 -42.5 130t-122.5 50q-83 0 -123.5 -52t-40.5 -136v-343z" />
<glyph unicode="&#xf3;" horiz-adv-x="1071" d="M98 373v319q0 99 35 178t95 128.5t137.5 75.5t166.5 26q71 0 135 -14.5t120.5 -46t97.5 -77.5t64.5 -113.5t23.5 -150.5v-321q0 -102 -36 -181.5t-97.5 -126.5t-138 -70.5t-164.5 -23.5q-91 0 -168.5 22.5t-139 69t-96.5 125t-35 181.5zM371 362q0 -85 41.5 -132.5 t126.5 -47.5q84 0 122.5 50t38.5 133v348q0 80 -42.5 130t-122.5 50q-83 0 -123.5 -52t-40.5 -136v-343zM420 1196l176 317h266l-239 -317h-203z" />
<glyph unicode="&#xf4;" horiz-adv-x="1071" d="M98 373v319q0 99 35 178t95 128.5t137.5 75.5t166.5 26q71 0 135 -14.5t120.5 -46t97.5 -77.5t64.5 -113.5t23.5 -150.5v-321q0 -102 -36 -181.5t-97.5 -126.5t-138 -70.5t-164.5 -23.5q-91 0 -168.5 22.5t-139 69t-96.5 125t-35 181.5zM225 1198l219 328h195l217 -328 h-211l-108 182l-111 -182h-201zM371 362q0 -85 41.5 -132.5t126.5 -47.5q84 0 122.5 50t38.5 133v348q0 80 -42.5 130t-122.5 50q-83 0 -123.5 -52t-40.5 -136v-343z" />
<glyph unicode="&#xf5;" horiz-adv-x="1071" d="M98 373v319q0 99 35 178t95 128.5t137.5 75.5t166.5 26q71 0 135 -14.5t120.5 -46t97.5 -77.5t64.5 -113.5t23.5 -150.5v-321q0 -102 -36 -181.5t-97.5 -126.5t-138 -70.5t-164.5 -23.5q-91 0 -168.5 22.5t-139 69t-96.5 125t-35 181.5zM154 1217q13 108 70.5 180.5 t150.5 72.5q53 0 157.5 -36.5t157.5 -36.5q37 0 58 24.5t38 73.5l119 -31q-13 -105 -67.5 -175t-147.5 -70q-54 0 -158 35.5t-153 35.5q-40 0 -58.5 -22.5t-33.5 -75.5zM371 362q0 -85 41.5 -132.5t126.5 -47.5q84 0 122.5 50t38.5 133v348q0 80 -42.5 130t-122.5 50 q-83 0 -123.5 -52t-40.5 -136v-343z" />
<glyph unicode="&#xf6;" horiz-adv-x="1071" d="M98 373v319q0 99 35 178t95 128.5t137.5 75.5t166.5 26q71 0 135 -14.5t120.5 -46t97.5 -77.5t64.5 -113.5t23.5 -150.5v-321q0 -102 -36 -181.5t-97.5 -126.5t-138 -70.5t-164.5 -23.5q-91 0 -168.5 22.5t-139 69t-96.5 125t-35 181.5zM242 1219v276h227v-276h-227z M371 362q0 -85 41.5 -132.5t126.5 -47.5q84 0 122.5 50t38.5 133v348q0 80 -42.5 130t-122.5 50q-83 0 -123.5 -52t-40.5 -136v-343zM618 1219v276h228v-276h-228z" />
<glyph unicode="&#xf7;" d="M133 567v172h840v-172h-840zM442 176v254h228v-254h-228zM442 862v252h228v-252h-228z" />
<glyph unicode="&#xf8;" horiz-adv-x="1071" d="M98 373v319q0 99 35 178t95 128.5t137.5 75.5t166.5 26q117 0 213 -41l70 139l111 -55l-74 -148q121 -108 121 -297v-321q0 -102 -36 -181.5t-97.5 -126.5t-138 -70.5t-164.5 -23.5q-93 0 -179 25l-73 -150l-111 54l74 149q-150 99 -150 320zM371 362q0 -37 4 -53 l270 545q-42 39 -110 39q-83 0 -123.5 -52t-40.5 -136v-343zM457 197q34 -15 82 -15q84 0 122.5 50t38.5 133v323z" />
<glyph unicode="&#xf9;" d="M119 272v803h270v-725q0 -79 30 -121.5t107 -42.5q78 0 134.5 64.5t56.5 159.5v665h270v-1075h-252l-8 168h-4q-39 -83 -126 -138t-185 -55q-120 0 -206.5 79t-86.5 218zM215 1513h268l176 -317h-200z" />
<glyph unicode="&#xfa;" d="M119 272v803h270v-725q0 -79 30 -121.5t107 -42.5q78 0 134.5 64.5t56.5 159.5v665h270v-1075h-252l-8 168h-4q-39 -83 -126 -138t-185 -55q-120 0 -206.5 79t-86.5 218zM461 1196l176 317h266l-239 -317h-203z" />
<glyph unicode="&#xfb;" d="M119 272v803h270v-725q0 -79 30 -121.5t107 -42.5q78 0 134.5 64.5t56.5 159.5v665h270v-1075h-252l-8 168h-4q-39 -83 -126 -138t-185 -55q-120 0 -206.5 79t-86.5 218zM246 1198l219 328h194l218 -328h-211l-109 182l-111 -182h-200z" />
<glyph unicode="&#xfc;" d="M119 272v803h270v-725q0 -79 30 -121.5t107 -42.5q78 0 134.5 64.5t56.5 159.5v665h270v-1075h-252l-8 168h-4q-39 -83 -126 -138t-185 -55q-120 0 -206.5 79t-86.5 218zM264 1219v276h228v-276h-228zM641 1219v276h227v-276h-227z" />
<glyph unicode="&#xfd;" horiz-adv-x="999" d="M29 1075h284l213 -698h2l199 698h246l-363 -1157q-51 -161 -137.5 -232t-212.5 -71q-94 0 -164 18l15 222q66 -17 131 -17q43 0 71.5 20t46.5 70l29 97zM426 1196l176 317h266l-239 -317h-203z" />
<glyph unicode="&#xfe;" horiz-adv-x="1095" d="M125 -365v1825h270v-532h6q44 81 127 127.5t164 46.5q150 0 227.5 -94t77.5 -242v-440q0 -152 -94 -251.5t-239 -99.5q-77 0 -156 40.5t-109 109.5h-4v-490h-270zM395 395q0 -99 59 -161t132 -62q141 0 141 164v395q0 158 -149 158q-76 0 -129.5 -64.5t-53.5 -173.5v-256 z" />
<glyph unicode="&#xff;" horiz-adv-x="999" d="M29 1075h284l213 -698h2l199 698h246l-363 -1157q-51 -161 -137.5 -232t-212.5 -71q-94 0 -164 18l15 222q66 -17 131 -17q43 0 71.5 20t46.5 70l29 97zM240 1219v276h227v-276h-227zM616 1219v276h228v-276h-228z" />
<glyph unicode="&#x152;" horiz-adv-x="1884" d="M104 457v536q0 237 137 363.5t365 126.5q85 0 159 -29t116 -82v88h907v-239h-617v-361h488v-237h-488v-381h617v-242h-907v94q-43 -54 -116 -85.5t-159 -31.5q-112 0 -201.5 27t-158 83.5t-105.5 150t-37 219.5zM399 461q0 -114 63 -179t179 -65q111 0 175.5 66t64.5 176 v557q0 110 -67 169.5t-179 59.5q-114 0 -175 -66t-61 -182v-536z" />
<glyph unicode="&#x153;" horiz-adv-x="1646" d="M98 373v319q0 99 35 178t95 128.5t137.5 75.5t166.5 26q188 0 308 -111q114 111 299 111q188 0 302.5 -108.5t114.5 -295.5v-231h-583v-90q0 -185 225 -185q63 0 140.5 20t129.5 44l64 -178q-159 -101 -389 -101q-203 0 -307 107q-56 -51 -136.5 -79t-167.5 -28 q-90 0 -166.5 22.5t-137.5 69t-95.5 125t-34.5 181.5zM371 369q0 -86 42 -136.5t126 -50.5t122.5 50t38.5 133v348q0 80 -42.5 130t-122.5 50q-83 0 -123.5 -52t-40.5 -136v-336zM973 637h323v90q0 76 -39.5 126t-121.5 50q-78 0 -120 -50t-42 -122v-94z" />
<glyph unicode="&#x178;" horiz-adv-x="1177" d="M35 1460h309l262 -606l262 606h275l-408 -870v-590h-293v592zM307 1581v277h228v-277h-228zM684 1581v277h227v-277h-227z" />
<glyph unicode="&#x2c6;" horiz-adv-x="772" d="M78 1198l219 328h195l217 -328h-211l-109 182l-110 -182h-201z" />
<glyph unicode="&#x2dc;" horiz-adv-x="872" d="M72 1217q13 108 70.5 180.5t150.5 72.5q53 0 157.5 -36.5t157.5 -36.5q37 0 58.5 25t38.5 73l118 -31q-13 -105 -67.5 -175t-147.5 -70q-54 0 -158 35.5t-153 35.5q-40 0 -58.5 -22.5t-33.5 -75.5z" />
<glyph unicode="&#x2000;" horiz-adv-x="963" />
<glyph unicode="&#x2001;" horiz-adv-x="1927" />
<glyph unicode="&#x2002;" horiz-adv-x="963" />
<glyph unicode="&#x2003;" horiz-adv-x="1927" />
<glyph unicode="&#x2004;" horiz-adv-x="642" />
<glyph unicode="&#x2005;" horiz-adv-x="481" />
<glyph unicode="&#x2006;" horiz-adv-x="321" />
<glyph unicode="&#x2007;" horiz-adv-x="321" />
<glyph unicode="&#x2008;" horiz-adv-x="240" />
<glyph unicode="&#x2009;" horiz-adv-x="385" />
<glyph unicode="&#x200a;" horiz-adv-x="107" />
<glyph unicode="&#x2010;" horiz-adv-x="649" d="M86 518v201h479v-201h-479z" />
<glyph unicode="&#x2011;" horiz-adv-x="649" d="M86 518v201h479v-201h-479z" />
<glyph unicode="&#x2012;" horiz-adv-x="649" d="M86 518v201h479v-201h-479z" />
<glyph unicode="&#x2013;" horiz-adv-x="944" d="M0 543v168h944v-168h-944z" />
<glyph unicode="&#x2014;" horiz-adv-x="1595" d="M0 543v168h1595v-168h-1595z" />
<glyph unicode="&#x2018;" horiz-adv-x="466" d="M106 909v277l87 274h131l-56 -258h92v-293h-254z" />
<glyph unicode="&#x2019;" horiz-adv-x="468" d="M109 1167v293h253v-276l-86 -277h-131l56 260h-92z" />
<glyph unicode="&#x201a;" horiz-adv-x="466" d="M109 78l22 231l231 -63l-12 -283l-90 -209l-106 68l39 194z" />
<glyph unicode="&#x201c;" horiz-adv-x="858" d="M106 909v277l87 274h131l-56 -258h92v-293h-254zM498 909v277l86 274h131l-56 -258h93v-293h-254z" />
<glyph unicode="&#x201d;" horiz-adv-x="858" d="M109 1167v293h253v-276l-88 -277h-131l56 260h-90zM498 1167v293h254v-276l-86 -277h-131l55 260h-92z" />
<glyph unicode="&#x201e;" horiz-adv-x="858" d="M109 16v293h253v-278l-88 -277h-131l56 262h-90zM498 16v293h254v-278l-86 -277h-131l55 262h-92z" />
<glyph unicode="&#x2022;" horiz-adv-x="860" d="M137 729q0 122 86.5 207.5t208.5 85.5q120 0 205.5 -85t85.5 -208q0 -122 -85 -208.5t-206 -86.5q-122 0 -208.5 87t-86.5 208z" />
<glyph unicode="&#x2026;" horiz-adv-x="1353" d="M119 0v307h258v-307h-258zM551 0v307h254v-307h-254zM979 0v307h256v-307h-256z" />
<glyph unicode="&#x202f;" horiz-adv-x="385" />
<glyph unicode="&#x2039;" horiz-adv-x="573" d="M68 549l290 371l142 -86l-154 -285l160 -287l-146 -82z" />
<glyph unicode="&#x203a;" horiz-adv-x="573" d="M68 838l145 84l293 -369l-291 -371l-143 86l155 285z" />
<glyph unicode="&#x205f;" horiz-adv-x="481" />
<glyph unicode="&#x20ac;" horiz-adv-x="1337" d="M94 508v158h148v131h-148v153h148v84q0 133 70 237.5t186 159t256 54.5q135 0 244.5 -45t178 -139.5t68.5 -223.5v-57h-262v51q0 94 -60.5 148.5t-166.5 54.5q-99 0 -158 -64.5t-59 -158.5v-101h372v-153h-372v-131h372v-158h-372v-92q0 -107 61 -168.5t168 -61.5 q104 0 159.5 55.5t55.5 151.5v37h262v-43q0 -132 -67.5 -227t-177 -140t-246.5 -45q-106 0 -197 27.5t-162 81t-112 140t-41 196.5v88h-148z" />
<glyph unicode="&#x2122;" horiz-adv-x="1296" d="M74 1337v125h475v-125h-164v-520h-147v520h-164zM621 817v645h174l106 -270l103 270h174v-645h-134l-2 410l-94 -254h-98l-98 256v-412h-131z" />
<glyph unicode="&#xe000;" horiz-adv-x="1075" d="M0 0v1075h1075v-1075h-1075z" />
</font>
</defs>
</svg>
