<?xml version="1.0" standalone="no"?>
<!DOCTYPE svg PUBLIC "-//W3C//DTD SVG 1.1//EN" "http://www.w3.org/Graphics/SVG/1.1/DTD/svg11.dtd" >
<svg xmlns="http://www.w3.org/2000/svg">
<metadata>
This is a custom SVG webfont generated by Font Squirrel.
Copyright   : 2008 Mitja Miklavcic published by FSI FontShop International GmbH
Designer    : Mitja Miklavcic
Foundry     : FSI
Foundry URL : httpwwwfontfontcom
</metadata>
<defs>
<font id="TisaOTBold" horiz-adv-x="1167" >
<font-face units-per-em="2048" ascent="1518" descent="-530" />
<missing-glyph horiz-adv-x="440" />
<glyph unicode=" "  horiz-adv-x="440" />
<glyph unicode="&#x09;" horiz-adv-x="440" />
<glyph unicode="&#xa0;" horiz-adv-x="440" />
<glyph unicode="!" horiz-adv-x="798" d="M201 1427q113 33 260 33q53 0 110 -8l-65 -991q-45 -10 -108.5 -10t-110.5 10zM219 141q0 76 49 123t127 47t126 -45t48 -125q0 -86 -48 -134t-126 -48q-176 0 -176 182z" />
<glyph unicode="&#x22;" horiz-adv-x="946" d="M137 877q14 307 15 589q135 0 262 -32q0 -104 -31 -282.5t-64 -297.5q-82 0 -182 23zM578 877q14 307 14 589q135 0 262 -32q0 -104 -30.5 -282.5t-63.5 -297.5q-80 0 -182 23z" />
<glyph unicode="#" horiz-adv-x="1402" d="M55 274q6 82 41 177h199l41 243h-217q6 82 41 176h211l39 230q109 25 245 24l-39 -254h299l39 230q109 25 246 24l-39 -254h187q4 -29 4 -61q0 -74 -11 -115h-213l-38 -243h194q4 -27 3 -87.5t-9 -89.5h-221l-41 -268q-41 -12 -129 -12t-127 12l45 268h-293l-41 -268 q-41 -12 -129 -12t-127 12l45 268h-205zM545 451h295l41 243h-297z" />
<glyph unicode="$" horiz-adv-x="1136" d="M119 162q0 102 26 186q164 0 283 -41v-127q63 -31 154 -30q145 0 145 120q0 47 -31.5 82t-81 56.5t-110 41t-121.5 46t-110.5 63.5t-81 100.5t-31.5 147.5q0 129 78.5 215t218.5 115v149q100 23 262 23v-166q158 -20 272 -82q4 -33 4 -70q0 -102 -28 -192q-170 0 -277 61 v96q-43 16 -98 17q-127 0 -127 -96q0 -49 42 -85t104.5 -55.5t136 -49.5t136 -65.5t104.5 -106.5t42 -169q0 -156 -90 -250t-244 -123v-174q-33 -10 -127 -10t-135 10v166q-176 20 -307 94q-8 35 -8 103z" />
<glyph unicode="%" horiz-adv-x="1970" d="M43 815q0 152 102.5 244t266.5 92q170 0 269 -87t99 -249q0 -168 -98 -258t-270 -90q-369 0 -369 348zM293 815q0 -80 31.5 -127t87.5 -47q115 0 114 174q0 72 -29.5 116t-84.5 44q-57 0 -88 -42t-31 -118zM489 12l773 1159q135 -4 243 -53l-811 -1210q-47 8 -112.5 42.5 t-92.5 61.5zM1188 307q0 152 102.5 244t265.5 92q170 0 269.5 -87t99.5 -249q0 -168 -98 -258t-271 -90q-368 0 -368 348zM1438 307q0 -80 31.5 -127t86.5 -47q115 0 115 174q0 72 -29.5 116t-85.5 44q-57 0 -87.5 -42t-30.5 -118z" />
<glyph unicode="&#x26;" horiz-adv-x="1757" d="M117 369q0 137 88 239.5t219 139.5v18q-182 100 -182 291q0 188 136 286.5t308 98.5q160 0 289 -86t129 -248q0 -121 -78 -215t-190 -125v-18q180 -123 352 -281q39 88 59 190q-61 10 -92 21q-25 74 -29 170h560q0 -100 -35 -182q-59 -10 -135 -15q-45 -201 -156 -362 q59 -59 86 -92q94 -8 147 -25q27 -68 27 -174h-365l-98 123q-197 -164 -483 -164q-104 0 -199.5 22.5t-177.5 68.5t-131 128t-49 191zM408 399q0 -123 81.5 -181t210.5 -58q190 0 314 116q-201 205 -447 367q-159 -99 -159 -244zM532 1100q0 -74 37 -127t117 -103 q131 76 131 220q0 86 -43 128t-98 42q-51 0 -97.5 -38t-46.5 -122z" />
<glyph unicode="'" horiz-adv-x="507" d="M137 877q14 307 15 589q135 0 262 -32q0 -104 -31 -282.5t-64 -297.5q-82 0 -182 23z" />
<glyph unicode="(" horiz-adv-x="727" d="M145 596q0 510 203 969q41 20 133 33.5t162 13.5q-197 -436 -197 -1002q0 -526 175 -966q-88 -55 -234 -93q-242 531 -242 1045z" />
<glyph unicode=")" horiz-adv-x="727" d="M121 -365q182 446 182 963q0 555 -151 961q86 61 239 73q106 -244 158.5 -516t52.5 -504q0 -535 -244 -1067q-149 29 -237 90z" />
<glyph unicode="*" horiz-adv-x="995" d="M92 1040l158 52q70 25 117 34v17q-31 2 -117 33l-152 53q4 41 35 108.5t62 100.5l141 -105q39 -27 80 -80l16 11q-25 49 -33 108l-18 158q96 18 221 18l-18 -176q-10 -70 -37 -112l18 -13q35 43 84 82l137 105q80 -72 140 -179l-191 -79q-55 -25 -114 -31v-17 q41 -2 114 -28l176 -60q-12 -43 -52 -108.5t-71 -95.5l-143 122q-82 74 -86 80l-12 -10q31 -59 37 -113l24 -174q-43 -12 -112 -12q-72 0 -121 12l24 174q8 61 31 107l-14 12q-16 -20 -78 -76l-135 -120q-27 29 -63 94t-48 108z" />
<glyph unicode="+" d="M59 444q0 113 35 222h352v378q102 25 277 25v-403h367q14 -61 14 -156q0 -29 -4 -66h-377v-397q-47 -14 -133 -14q-82 0 -144 14v397h-387z" />
<glyph unicode="," horiz-adv-x="583" d="M90 55q35 131 94 195q45 12 115 12q113 0 217 -35q-25 -150 -102.5 -346t-151.5 -315q-98 27 -151 76q78 219 102 387z" />
<glyph unicode="-" horiz-adv-x="831" d="M109 446q0 123 36 238h539q16 -66 16 -168q0 -29 -4 -70h-587z" />
<glyph unicode="." horiz-adv-x="671" d="M143 174q0 84 54.5 135t140.5 51q84 0 136 -49t52 -137q0 -94 -52 -147.5t-136 -53.5q-195 0 -195 201z" />
<glyph unicode="/" horiz-adv-x="1019" d="M104 -283l703 1848q147 0 256 -35l-721 -1895q-150 29 -238 82z" />
<glyph unicode="0" horiz-adv-x="1380" d="M100 571q0 266 164 423t428 157q274 0 431 -150.5t157 -429.5q0 -297 -155.5 -454.5t-432.5 -157.5q-287 0 -439.5 154.5t-152.5 457.5zM416 571q0 -188 73.5 -299.5t202.5 -111.5q133 0 203 108.5t70 302.5q0 168 -74 275.5t-199 107.5q-133 0 -204.5 -103.5 t-71.5 -279.5z" />
<glyph unicode="1" horiz-adv-x="1054" d="M123 848q6 135 45 209q244 82 561 94v-924q131 -12 232 -47q14 -47 14 -127q0 -25 -4 -53h-809q14 98 53 174q86 35 205 53v660z" />
<glyph unicode="2" horiz-adv-x="1212" d="M117 197q41 35 130 99t165.5 122.5t155.5 127t125 139.5t46 132q0 129 -155 129q-94 0 -164 -37v-176q-96 -51 -256 -55q-31 141 -31 264q0 63 8 105q231 104 475 104q205 0 328 -65.5t123 -211.5q0 -78 -39 -156.5t-88 -137t-137 -128t-142.5 -106.5t-146.5 -94v-25 q358 12 592 41q4 -45 4 -80q0 -117 -16 -188h-942z" />
<glyph unicode="3" horiz-adv-x="1226" d="M102 -2q0 16 2 29q180 -53 361 -54q127 0 215 49.5t88 149.5q0 98 -98.5 145.5t-325.5 47.5q-27 53 -27 129q0 39 7 67q172 6 292.5 66.5t120.5 177.5q0 74 -50 108.5t-122 34.5q-80 0 -149 -24v-131q-84 -51 -252 -60q-31 109 -31 230q0 66 4 100q221 88 463 88 q193 0 329 -82t136 -240q0 -113 -66.5 -201.5t-162.5 -125.5v-19q117 -25 190.5 -97.5t73.5 -190.5q0 -201 -183.5 -318t-433.5 -117q-174 0 -336 50q-45 69 -45 188z" />
<glyph unicode="4" horiz-adv-x="1257" d="M45 289q254 428 633 862l326 -47v-750h172q14 -53 14 -151q0 -29 -4 -66h-182v-334q-51 -14 -144 -14q-100 0 -151 14v334h-623zM367 342q80 12 176 12h166v310q0 98 16 176h-25q-86 -96 -180 -230.5t-153 -242.5v-25z" />
<glyph unicode="5" horiz-adv-x="1148" d="M86 -23q0 23 2 37q162 -39 315 -39q135 0 222.5 62.5t87.5 185.5q0 190 -238 191q-131 0 -334 -41l58 737h841q0 -137 -32 -258q-250 14 -547 20l-23 -268q72 10 135 10q213 0 339 -92t126 -282q0 -229 -177 -354.5t-429 -125.5q-156 0 -301 39q-45 76 -45 178z" />
<glyph unicode="6" horiz-adv-x="1261" d="M119 571q0 360 199.5 566t500.5 206q135 0 260 -59q20 -37 30.5 -108.5t4.5 -116.5q-53 29 -140 49t-151 20q-125 0 -232.5 -90t-144.5 -299h25q86 106 266 107q190 0 307 -117t117 -291q0 -213 -146.5 -346t-377.5 -133q-248 0 -383 161.5t-135 450.5zM438 520 q0 -172 52.5 -267t154.5 -95q92 0 146.5 72.5t54.5 185.5q0 111 -50.5 168t-142.5 57q-123 0 -215 -82v-39z" />
<glyph unicode="7" horiz-adv-x="1196" d="M66 727l32 383h1010l39 -188q-406 -614 -531 -1112q-70 -14 -163 -15q-96 0 -172 17q90 289 217 530.5t315 499.5v24h-461q-25 -111 -61 -182q-45 0 -116.5 13.5t-108.5 29.5z" />
<glyph unicode="8" horiz-adv-x="1288" d="M127 342q0 125 80 213t194 107v18q-219 96 -219 305q0 176 142.5 267t337.5 91q193 0 332 -79.5t139 -243.5q0 -123 -64.5 -196.5t-159.5 -98.5v-18q248 -98 248 -330q0 -201 -149.5 -309.5t-368.5 -108.5q-96 0 -180 17.5t-162 57.5t-124 118.5t-46 189.5zM436 367 q0 -113 61.5 -164t155.5 -51q82 0 141.5 46t59.5 144q0 41 -20.5 76t-65.5 66.5t-83 51t-107 50.5q-142 -76 -142 -219zM477 1014q0 -66 60.5 -111t183.5 -100q104 76 104 190q0 88 -53 129t-123 41q-68 0 -120 -34.5t-52 -114.5z" />
<glyph unicode="9" horiz-adv-x="1255" d="M102 692q0 205 140.5 332t359.5 127q268 0 404.5 -164t136.5 -475q0 -344 -193.5 -548t-486.5 -204q-174 0 -307 62q-25 39 -37.5 106.5t-7.5 114.5q154 -59 335 -59q125 0 235 92t144 299h-24q-90 -109 -258 -109q-209 0 -325 120t-116 306zM416 707q0 -106 48 -171 t134 -65q137 0 231 104q-4 193 -58 287t-169 94q-88 0 -137 -67t-49 -182z" />
<glyph unicode=":" horiz-adv-x="686" d="M172 172q0 84 54.5 135t140.5 51q84 0 136 -49t52 -137q0 -94 -52 -147.5t-136 -53.5q-195 0 -195 201zM180 858q0 80 52.5 130t134.5 50t132 -48t50 -132q0 -90 -50 -141t-132 -51q-187 -1 -187 192z" />
<glyph unicode=";" horiz-adv-x="643" d="M90 55q35 131 94 195q45 12 115 12q113 0 217 -35q-25 -150 -102.5 -346t-151.5 -315q-98 27 -151 76q78 219 102 387zM147 858q0 80 52.5 130t134.5 50t132 -48t50 -132q0 -90 -50 -141t-132 -51q-187 -1 -187 192z" />
<glyph unicode="&#x3c;" d="M168 475l10 162l631 463q47 -27 108.5 -77t92.5 -87l-535 -369v-24l506 -357q-16 -39 -65.5 -102.5t-86.5 -87.5z" />
<glyph unicode="=" d="M113 240q0 104 32 219h887q14 -57 15 -154q0 -29 -5 -65h-929zM113 641q0 104 32 219h887q14 -57 15 -153q0 -29 -5 -66h-929z" />
<glyph unicode="&#x3e;" d="M158 926q39 43 100 91t107 68l628 -450l11 -158l-660 -487q-39 23 -90 85t-68 103l506 354v25z" />
<glyph unicode="?" horiz-adv-x="1085" d="M117 1409q90 31 224 54.5t237 23.5q197 0 313.5 -81t116.5 -222q0 -82 -42 -154t-101.5 -122t-119 -94t-101.5 -89t-42 -88q0 -94 47 -154q-104 -66 -231 -75q-43 41 -73 103t-30 114q0 68 37 129t90.5 108t106.5 92t90 98.5t37 106.5t-39 94t-119 41q-68 0 -133 -26 v-181q-86 -51 -238 -59q-30 168 -30 381zM365 141q0 76 49 123t126.5 47t126 -45t48.5 -125q0 -86 -48.5 -134t-125.5 -48q-176 0 -176 182z" />
<glyph unicode="@" horiz-adv-x="2187" d="M133 444q0 446 297 742.5t752 296.5q244 0 443.5 -85t322.5 -254t123 -392q0 -135 -47.5 -260t-141.5 -232.5t-255 -178.5t-367 -81q-35 55 -50 129h-18q-94 -129 -242 -129q-135 0 -221 98.5t-86 286.5q0 260 139 436q152 188 412 189q205 0 352 -111l-88 -586 q0 -61 17 -88q119 29 202.5 115t119.5 188.5t36 210.5q0 176 -100.5 305.5t-249 187.5t-320.5 58q-344 0 -564 -237.5t-220 -589.5q0 -332 199.5 -541t533.5 -209q285 0 520 129q68 -57 103 -141q-289 -178 -668 -178q-420 0 -677 256.5t-257 664.5zM930 416 q0 -193 106 -193q92 0 152 90l72 496q-31 10 -68 10q-115 0 -186 -108q-76 -113 -76 -295z" />
<glyph unicode="A" horiz-adv-x="1697" d="M59 0q12 90 50 184q37 18 98 31l534 1262h236l512 -1256q63 -12 110 -31q25 -86 33 -190h-635q8 90 50 186q59 20 127 33q-39 47 -74 135l-23 58h-528l-25 -68q-33 -92 -61 -133q80 -8 141 -25q33 -80 33 -186h-578zM623 602h385l-109 287q-61 168 -68 289h-24 q-8 -100 -80 -293z" />
<glyph unicode="B" horiz-adv-x="1464" d="M90 6q8 113 41 184q33 14 137 31v1016q-80 8 -135 20q-8 58 -8 110q0 43 6 81q358 27 559 27q272 0 441 -97.5t169 -290.5q0 -106 -56 -191t-150 -118v-18q131 -33 206.5 -118t75.5 -212q0 -119 -52 -207t-142 -138t-197.5 -74.5t-232.5 -24.5q-310 0 -662 20zM584 190 q63 -8 143 -8q326 0 326 236q0 119 -90.5 178t-239.5 59h-139v-465zM584 848h133q133 0 199.5 51t66.5 168q0 106 -83 160.5t-232 54.5q-43 0 -84 -8v-426z" />
<glyph unicode="C" horiz-adv-x="1437" d="M111 713q0 356 221 568t551 212q227 0 420 -96q0 -217 -39 -398q-143 0 -252 60v201q-68 31 -148 30q-188 0 -303 -141t-115 -408q0 -268 116 -405t310 -137q205 0 418 77q1 -10 1 -20q0 -37 -11 -86q-14 -63 -39 -102q-209 -109 -440 -109q-309 0 -499.5 211t-190.5 543 z" />
<glyph unicode="D" horiz-adv-x="1595" d="M90 4q8 113 41 184q33 14 137 31v1000q-72 6 -135 18q-9 62 -9 113q0 44 7 80q303 37 592 36q371 0 585 -178t214 -534q0 -193 -61.5 -344.5t-166 -241.5t-229.5 -136t-262 -46q-418 0 -713 18zM584 195q68 -6 159 -7q213 0 334 129t121 403.5t-130 410t-357 135.5 q-57 0 -127 -9v-1062z" />
<glyph unicode="E" horiz-adv-x="1400" d="M86 0q8 113 41 184q39 16 141 33v1022q-82 8 -135 25q-8 57 -8 107q0 43 6 81h1112v-371q-137 0 -231 31q-16 57 -25 148h-403v-424h317q4 43 19 90q96 31 223 30v-419q-40 -4 -76 -4q-85 0 -149 20q-14 43 -19 94h-315v-450h409q6 90 27 165q96 31 244 31v-393h-1178z " />
<glyph unicode="F" horiz-adv-x="1288" d="M86 0q8 113 41 184q39 16 141 33v1022q-82 8 -135 25q-8 57 -8 107q0 43 6 81h1069v-389q-131 0 -235 35q-20 74 -29 162h-352v-461h282q4 47 19 98q102 33 223 33v-443q-39 -4 -74 -3q-87 0 -151 22q-14 47 -19 104h-280v-393q113 -8 204 -29q10 -33 14 -95q1 -21 1 -38 q0 -35 -4 -55h-713z" />
<glyph unicode="G" horiz-adv-x="1628" d="M115 690q0 362 222 582.5t591 220.5q254 0 469 -127q0 -205 -41 -373q-55 0 -136 18.5t-114 37.5v208q-82 41 -191 41q-199 0 -330.5 -152.5t-131.5 -436.5q0 -270 119.5 -404.5t330.5 -134.5q70 0 180 12v350q-156 0 -262 23q-23 90 -22 184h757q0 -104 -28 -184 q-63 -16 -142 -20v-474q-106 -37 -279 -69.5t-304 -32.5q-319 0 -503.5 200.5t-184.5 530.5z" />
<glyph unicode="H" horiz-adv-x="1763" d="M86 0q8 113 41 184q39 16 141 33v1022q-82 8 -135 25q-9 61 -9 110q0 43 7 78h592q5 -26 5 -76v-17q-1 -62 -9 -95q-53 -18 -135 -23v-401h596v399q-74 8 -121 25q-11 59 -11 108q0 44 9 80h592q5 -39 5 -80q0 -54 -9 -108q-61 -18 -150 -23v-1024q88 -6 164 -29 q12 -45 12 -127q0 -33 -4 -61h-653q10 115 37 184q35 14 129 33v420h-596v-420q82 -6 149 -29q8 -33 11 -94q1 -20 1 -38q0 -35 -4 -56h-655z" />
<glyph unicode="I" horiz-adv-x="851" d="M86 0q8 113 41 184q39 16 141 33v1022q-82 8 -135 25q-9 61 -9 110q0 43 7 78h606q5 -26 6 -76q0 -8 -1 -17q-1 -62 -9 -95q-61 -18 -149 -23v-1024q88 -6 164 -29q12 -43 12 -127q0 -33 -4 -61h-670z" />
<glyph unicode="J" horiz-adv-x="849" d="M-14 -209q324 186 323 651v797q-102 8 -174 25q-8 57 -8 107q0 43 6 81h645q6 -25 6 -76q0 -72 -10 -112q-61 -18 -149 -23v-745q0 -621 -543 -871q-69 70 -96 166z" />
<glyph unicode="K" horiz-adv-x="1601" d="M86 0q8 113 41 184q39 16 141 33v1022q-82 8 -135 25q-9 61 -9 110q0 43 7 78h590q5 -26 5 -76v-17q-1 -62 -9 -95q-55 -18 -133 -23v-412h143l219 304q53 74 98 108q-57 8 -106 21q-20 74 -20 190h575q-4 -104 -37 -203q-45 -10 -129 -14l-373 -475l457 -551l131 8 q0 -125 -49 -219q-133 -33 -295 -41l-516 684h-98v-424q78 -6 147 -29q8 -33 11 -94q1 -20 1 -38q0 -35 -4 -56h-653z" />
<glyph unicode="L" horiz-adv-x="1361" d="M86 0q8 113 41 184q39 16 141 33v1022q-82 8 -135 25q-9 61 -9 110q0 43 7 78h666q5 -23 4 -64v-30q-2 -63 -10 -94q-82 -18 -207 -23v-1040h415q8 96 31 200q98 35 248 35v-436h-1192z" />
<glyph unicode="M" horiz-adv-x="2093" d="M102 0q8 111 35 184q43 18 119 33v1022q-76 8 -125 25q-11 59 -11 108q0 44 9 80h563l283 -756q61 -160 74 -362h24q2 76 25.5 186.5t48.5 173.5l289 758h542q5 -26 6 -76q0 -8 -1 -17q-1 -62 -9 -95q-61 -18 -149 -23v-1032q82 -6 162 -25q14 -37 14 -125q0 -31 -4 -59 h-615q10 115 37 184q51 20 125 33v1004h-24q-31 -219 -88 -381l-306 -863h-219l-317 879q-59 158 -78 356h-25v-997q72 -8 134 -29q13 -58 13 -111q0 -39 -7 -75h-525z" />
<glyph unicode="N" horiz-adv-x="1675" d="M102 0q8 115 37 184q45 18 129 33v1022q-82 8 -135 25q-11 59 -11 108q0 44 9 80h528l449 -803q76 -137 104 -305h25v895q-92 8 -154 25q-11 59 -10 108q0 44 8 80h523q6 -25 6 -76q0 -72 -11 -112q-53 -18 -137 -23v-1257h-317l-502 890q-80 145 -104 295h-25v-952 q80 -6 154 -29q8 -33 11 -94q1 -20 1 -38q0 -35 -4 -56h-574z" />
<glyph unicode="O" horiz-adv-x="1611" d="M115 745q0 340 195.5 544t498.5 204q315 0 501.5 -196.5t186.5 -551.5q0 -369 -185.5 -577.5t-502.5 -208.5q-336 0 -515 200.5t-179 585.5zM451 745q0 -268 95 -425.5t263 -157.5q174 0 264 153.5t90 429.5q0 242 -98 394.5t-256 152.5q-172 0 -265 -145.5t-93 -401.5z " />
<glyph unicode="P" horiz-adv-x="1392" d="M86 0q8 113 41 184q39 16 141 33v1016q-68 0 -137 12q-9 53 -9 110q0 43 5 89q254 29 610 29q268 0 429 -114t161 -339q0 -156 -87 -266.5t-213 -157.5t-275 -47q-96 0 -168 14v-346q115 -6 211 -29q10 -33 13 -95q1 -21 1 -38q0 -35 -4 -55h-719zM584 758 q72 -12 174 -13q115 0 183.5 67t68.5 202q0 121 -85 191.5t-227 70.5q-68 0 -114 -6v-512z" />
<glyph unicode="Q" horiz-adv-x="1609" d="M115 745q0 340 195.5 544t498.5 204q315 0 501.5 -196.5t186.5 -551.5q0 -199 -56.5 -353t-152.5 -238v-19q86 -76 185.5 -146.5t134.5 -74.5l184 20q2 -20 2 -51q0 -113 -49 -215q-20 -10 -74.5 -22.5t-77.5 -12.5q-80 0 -239.5 119t-286.5 250q-109 -43 -258 -43 q-336 0 -515 200.5t-179 585.5zM449 745q0 -270 95 -426.5t265 -156.5q174 0 264 153.5t90 429.5q0 242 -98 394.5t-256 152.5q-174 0 -267 -145.5t-93 -401.5z" />
<glyph unicode="R" horiz-adv-x="1529" d="M86 0q8 113 41 184q39 16 141 33v1014q-80 0 -137 14q-9 53 -9 110q0 43 5 89q252 29 602 29q270 0 431 -108t161 -325q0 -139 -82 -240.5t-213 -150.5q84 -154 178 -280.5t142 -155.5l112 12q0 -127 -43 -213q-115 -35 -272 -45q-57 41 -186.5 241t-217.5 392 q-88 0 -155 14v-397q84 -8 151 -29q8 -33 11 -94q1 -20 2 -38q0 -35 -5 -56h-657zM584 801q63 -12 170 -13q111 0 180.5 60.5t69.5 181.5q0 113 -86.5 179.5t-221.5 66.5q-66 0 -112 -6v-469z" />
<glyph unicode="S" horiz-adv-x="1282" d="M117 35q0 221 35 405q150 0 256 -37v-208q121 -43 221 -43q117 0 182.5 50t65.5 142q0 66 -39 114t-100.5 79.5t-137.5 61.5t-150.5 69t-136 90t-100.5 136t-39 198q0 186 140.5 293.5t385.5 107.5q221 0 430 -72q0 -190 -43 -366q-129 0 -239 51v164q-68 33 -150 33 q-100 0 -159.5 -43t-59.5 -109q0 -84 72 -143.5t174 -101.5t204.5 -92t174.5 -147.5t72 -236.5q0 -471 -590 -471q-264 0 -469 76z" />
<glyph unicode="T" horiz-adv-x="1443" d="M74 1065v387h1300v-393q-141 0 -239 28q-20 76 -29 173h-225v-1043q109 -6 202 -29q10 -33 14 -95q1 -21 1 -38q0 -35 -4 -55h-748q6 88 49 182q68 23 170 35v1043h-227q-8 -96 -27 -166q-85 -29 -237 -29z" />
<glyph unicode="U" horiz-adv-x="1671" d="M115 1452h612q5 -26 5 -76v-17q-1 -62 -9 -95q-59 -18 -139 -23v-678q0 -201 74.5 -299t232.5 -98q168 0 247 107.5t79 289.5v676q-76 8 -125 25q-11 59 -11 108q0 44 9 80h503q6 -25 6 -76q0 -72 -10 -112q-51 -18 -127 -23v-663q0 -289 -151.5 -454t-472.5 -165 q-293 0 -431.5 145.5t-138.5 442.5v698q-84 8 -135 23q-18 82 -18 184z" />
<glyph unicode="V" horiz-adv-x="1622" d="M72 1452h647q0 -84 -39 -197q-57 -16 -156 -16q66 -98 107 -215l147 -432q51 -152 68 -283h24q12 117 70 283l147 426q51 143 105 225q-80 4 -145 21q-33 90 -33 188h565q0 -119 -31 -197q-47 -12 -110 -16l-488 -1264h-260l-475 1266q-55 6 -109 25q-26 71 -34 186z" />
<glyph unicode="W" horiz-adv-x="2265" d="M57 1452h602q0 -96 -34 -197q-49 -16 -136 -16q53 -84 91 -213l102 -377q55 -201 59 -389h25q4 203 51 389l217 821h287l209 -823q41 -166 45 -371h24q4 190 58 373l112 377q41 133 93 215q-63 4 -121 21q-27 84 -27 190h504q0 -115 -29 -197q-49 -12 -104 -16 l-410 -1262h-266l-209 859q-33 137 -41 342h-24q-8 -205 -45 -344l-226 -859h-295l-376 1266q-59 8 -103 25q-25 75 -33 186z" />
<glyph unicode="X" horiz-adv-x="1640" d="M76 0q10 100 45 182q45 16 123 27l387 573l-326 455q-72 12 -119 29q-31 80 -39 186h654q0 -96 -35 -197q-45 -12 -115 -16q45 -33 99 -104l161 -230l123 232q27 53 82 108q-55 4 -96 21q-29 90 -29 186h525q0 -109 -37 -197q-55 -12 -107 -16l-334 -514l367 -508 q55 -4 133 -24q31 -94 37 -193h-649q10 104 43 188q41 14 100 19q-51 35 -125 141l-170 236l-127 -222q-45 -78 -119 -151q59 -4 119 -21q25 -74 25 -190h-596z" />
<glyph unicode="Y" horiz-adv-x="1476" d="M35 1452h633q0 -90 -33 -197q-39 -12 -121 -16q45 -35 76 -96l108 -211q55 -106 68 -209h25q12 106 67 209l119 217q31 51 78 92q-63 8 -103 25q-27 84 -26 186h518q0 -115 -29 -197q-47 -12 -106 -16l-422 -690v-332q109 -6 203 -29q10 -33 13 -95q1 -21 1 -38 q0 -35 -4 -55h-748q6 88 49 182q68 23 170 35v311l-401 713q-59 8 -102 25q-25 75 -33 186z" />
<glyph unicode="Z" horiz-adv-x="1402" d="M141 0v182l736 1049v24h-410q-10 -109 -33 -190q-115 -27 -250 -27v414h1084v-182l-731 -1043v-24h469q12 119 32 198q90 37 248 37v-438h-1145z" />
<glyph unicode="[" horiz-adv-x="757" d="M170 -434v2040h438q12 -86 -10 -183q-63 -14 -135 -18v-1641q90 -8 166 -28q8 -37 8 -84q0 -45 -8 -86h-459z" />
<glyph unicode="\" horiz-adv-x="972" d="M-45 1489q33 33 100.5 70.5t118.5 50.5l721 -1895q-31 -18 -112 -45.5t-126 -36.5z" />
<glyph unicode="]" horiz-adv-x="757" d="M88 -434q4 94 27 176q55 14 153 22v1643q-68 4 -131 16q-6 33 -7 92.5t7 90.5h424v-2040h-473z" />
<glyph unicode="^" d="M88 776l379 627l195 20l423 -673q-37 -29 -102 -62t-113 -47l-206 338q-66 106 -82 201h-25q-23 -109 -76 -195l-225 -375q-45 29 -95 79t-73 87z" />
<glyph unicode="_" horiz-adv-x="1024" d="M-39 -510q0 111 33 209h1036q12 -57 12 -145q0 -27 -4 -64h-1077z" />
<glyph unicode="`" horiz-adv-x="780" d="M106 1503q39 29 129.5 53.5t155.5 24.5l275 -385q-86 -53 -193 -57z" />
<glyph unicode="a" horiz-adv-x="1107" d="M51 270q0 164 118 252t300 88q90 0 168 -32v75q0 152 -180 152q-70 0 -171.5 -26.5t-160.5 -59.5q-8 33 -8 72q0 113 41 190q141 53 368 53q201 0 300.5 -84t99.5 -274v-344q0 -98 28 -152q63 0 133 17q2 -14 3 -33q0 -68 -35 -137q-104 -61 -291 -62q-70 35 -98 148h-19 q-92 -147 -301 -148q-121 0 -208 80t-87 225zM348 303q0 -66 36 -99.5t91 -33.5q102 0 168 74v192q-55 12 -113 13q-88 0 -135 -39t-47 -107z" />
<glyph unicode="b" horiz-adv-x="1204" d="M10 1280q4 109 49 188q88 41 232 41q104 0 160 -22v-313q0 -129 -23 -291h31q31 63 100.5 107t167.5 44q78 0 147.5 -26.5t131 -84t97.5 -159.5t36 -238q0 -252 -155 -406.5t-404 -154.5q-246 0 -426 90v1225h-144zM444 178q51 -14 111 -14q137 0 204.5 89t67.5 245 q0 154 -54 238.5t-142 84.5q-55 0 -106.5 -28.5t-80.5 -73.5v-541z" />
<glyph unicode="c" horiz-adv-x="1034" d="M66 483q0 240 156.5 395.5t402.5 155.5q178 0 323 -76q6 -31 6 -90q0 -127 -39 -223q-47 0 -116.5 18.5t-108.5 41.5v129q-35 12 -69 12q-109 0 -173.5 -82t-64.5 -244q0 -172 72.5 -258t195.5 -86q164 0 299 60q1 -9 1 -18q0 -35 -12 -80q-15 -56 -40 -93 q-150 -80 -344 -80q-225 0 -357 143.5t-132 374.5z" />
<glyph unicode="d" horiz-adv-x="1243" d="M66 455q0 262 137 420.5t360 158.5q115 0 191 -53v299h-144q4 109 49 188q88 41 232 41q104 0 160 -22v-1133q0 -98 20 -166h143q2 -10 3 -34q0 -76 -35 -138q-129 -41 -346 -41q-39 70 -56 162h-18q-94 -172 -309 -172q-156 0 -271.5 118t-115.5 372zM377 498 q0 -152 55 -234t148 -82q106 0 180 94v529q-53 29 -123 29q-129 0 -194.5 -89t-65.5 -247z" />
<glyph unicode="e" horiz-adv-x="1073" d="M66 479q0 246 144 400.5t382 154.5q393 0 393 -483q0 -41 -8 -115h-602q12 -119 84.5 -183.5t193.5 -64.5q68 0 167.5 16.5t154.5 37.5q1 -14 1 -29q0 -86 -52 -170q-143 -78 -349 -78q-238 0 -373.5 143.5t-135.5 370.5zM365 625h331q2 20 3 40q0 66 -27 120 q-35 71 -119 71q-78 0 -129 -64.5t-59 -166.5z" />
<glyph unicode="f" horiz-adv-x="796" d="M43 797q10 121 41 188q47 31 119 47v68q0 215 124 320.5t345 105.5q180 0 323 -53q8 -35 9 -95q0 -111 -33 -221q-139 8 -228 51v123q-37 16 -88 17q-74 0 -114.5 -57.5t-40.5 -164.5v-127h272q16 -62 16 -126q0 -38 -6 -76h-282v-594q123 -12 198 -43q8 -25 13 -77 q2 -26 2 -47t-2 -36h-660q8 92 33 150q43 33 119 57v590h-160z" />
<glyph unicode="g" horiz-adv-x="1181" d="M27 -236q0 86 48 140.5t115 70.5v19q-33 16 -59.5 60t-26.5 91q0 133 129 193v18q-139 90 -139 293q0 176 126 280.5t321 104.5q147 0 250 -51q86 51 213 51q59 0 118 -16q43 -98 43 -211h-209q29 -74 29 -158q0 -182 -118.5 -283.5t-325.5 -101.5q-72 0 -127 12 q-14 -29 -15 -51q0 -45 57.5 -62.5t192.5 -17.5q231 0 358.5 -66.5t127.5 -232.5q0 -188 -163 -282t-427 -94q-233 0 -375.5 76.5t-142.5 217.5zM305 -184q0 -80 81 -122t194 -42q115 0 194.5 41t79.5 112q0 102 -272 103q-117 0 -222 20q-55 -49 -55 -112zM391 649 q0 -100 40 -161.5t110 -61.5q72 0 108.5 59.5t36.5 163.5q0 98 -39 159.5t-106 61.5q-150 0 -150 -221z" />
<glyph unicode="h" horiz-adv-x="1345" d="M37 0q8 92 33 150q33 25 118 57v1073h-143q4 109 49 188q88 41 232 41q104 0 159 -22v-309q0 -160 -20 -344h31q80 201 323 200q72 0 125 -14t104.5 -51t78 -115t26.5 -195q0 -244 -16 -460q86 -12 145 -39q10 -45 10 -117q0 -29 -2 -43h-561q8 100 27 150q23 23 96 57 v397q0 203 -158 203q-127 0 -209 -137v-473q90 -14 133 -37q13 -50 13 -100q0 -30 -4 -60h-590z" />
<glyph unicode="i" horiz-adv-x="702" d="M51 0q8 92 33 150q37 29 119 57v581h-148q4 109 49 189q88 41 234 41q106 0 162 -23v-798q96 -14 145 -37q10 -37 10 -115q0 -31 -2 -45h-602zM174 1391q0 80 51 128t131 48t129.5 -47t49.5 -129q0 -88 -49.5 -138.5t-129.5 -50.5q-182 1 -182 189z" />
<glyph unicode="j" horiz-adv-x="600" d="M-18 -371q203 240 202 537v622h-147q4 109 49 189q88 41 233 41q106 0 162 -23v-784q0 -217 -89 -386t-240 -329q-43 14 -93 54t-77 79zM156 1391q0 80 51 128t131 48t129 -47t49 -129q0 -88 -49 -138.5t-129 -50.5q-182 1 -182 189z" />
<glyph unicode="k" horiz-adv-x="1271" d="M37 0q8 92 33 150q33 25 118 57v1073h-143q4 109 49 188q88 41 232 41q104 0 159 -22v-858h103l84 90q49 53 106 80q-66 12 -106 35q-27 74 -27 165h557q0 -98 -37 -182q-45 -18 -129 -29l-213 -206q78 -127 165 -233.5t136 -147.5l119 18q2 -8 2 -29q0 -39 -13 -99 t-32 -93q-92 -35 -199 -43q-106 25 -417 496h-99v-254q88 -14 131 -37q13 -50 13 -100q0 -30 -4 -60h-588z" />
<glyph unicode="l" horiz-adv-x="688" d="M37 0q8 92 33 150q37 29 118 57v1073h-143q4 109 49 188q88 41 232 41q104 0 159 -22v-1290q96 -14 146 -37q10 -37 10 -115q0 -31 -2 -45h-602z" />
<glyph unicode="m" horiz-adv-x="1949" d="M51 0q8 92 33 150q33 25 119 57v581h-148q4 109 49 189q82 41 209 41q92 0 142 -23v-161h30q96 201 326 200q121 0 190.5 -44t96.5 -165h18q37 92 119 150.5t205 58.5q72 0 125 -14t102 -51t75.5 -115t26.5 -195q0 -244 -16 -460q86 -12 145 -39q10 -41 11 -113 q0 -31 -2 -47h-557q8 100 26 150q27 27 92 57v397q0 203 -153 203q-100 0 -187 -109v-501q88 -14 132 -37q13 -50 12 -100q0 -30 -4 -60h-543q8 109 25 150q20 23 90 57v397q0 203 -154 203q-104 0 -186 -109v-501q88 -14 131 -37q13 -50 13 -100q0 -30 -5 -60h-588z" />
<glyph unicode="n" horiz-adv-x="1335" d="M51 0q8 92 33 150q33 25 119 57v581h-148q4 109 49 189q82 41 209 41q92 0 142 -23v-161h30q100 201 334 200q72 0 126 -14t105.5 -51t78 -115t26.5 -195q0 -236 -16 -460q86 -12 145 -39q10 -41 10 -113q0 -31 -2 -47h-561q8 100 27 150q23 23 96 57v397q0 203 -160 203 q-111 0 -194 -111v-499q90 -14 133 -37q13 -50 13 -100q0 -30 -5 -60h-590z" />
<glyph unicode="o" horiz-adv-x="1161" d="M66 516q0 238 145 378t371 140q236 0 375 -136t139 -382q0 -260 -138.5 -405.5t-375.5 -145.5q-250 0 -383 140.5t-133 410.5zM371 516q0 -164 56 -261t155 -97q207 0 206 358q0 143 -56 235.5t-150 92.5q-100 0 -155.5 -89t-55.5 -239z" />
<glyph unicode="p" horiz-adv-x="1218" d="M16 -485q8 92 33 149q33 25 119 57v1067h-148q4 109 50 189q82 41 209 41q92 0 141 -23v-161h31q96 201 309 200q160 0 276.5 -119.5t116.5 -369.5q0 -266 -135 -423t-363 -157q-115 0 -190 53v-301q121 -12 194 -43q8 -25 13 -76q2 -26 2 -47t-2 -36h-656zM459 195 q53 -29 123 -29q260 0 260 340q0 313 -187 313q-66 0 -118 -32.5t-78 -75.5v-516z" />
<glyph unicode="q" horiz-adv-x="1193" d="M66 459q0 270 153.5 422.5t421.5 152.5q221 0 410 -112v-1213q96 -8 159 -35q10 -41 11 -112q0 -31 -2 -47h-644q6 86 39 149q51 35 140 57v123q0 133 22 273h-31q-33 -63 -102.5 -107.5t-165.5 -44.5q-172 0 -291.5 123t-119.5 371zM377 502q0 -150 55 -235t141 -85 q55 0 106.5 29t80.5 74v536q-61 20 -117 21q-133 0 -199.5 -91t-66.5 -249z" />
<glyph unicode="r" horiz-adv-x="901" d="M51 0q8 92 33 150q33 25 119 57v581h-144q0 113 45 189q82 41 209 41q92 0 142 -23v-192h30q18 90 91 160.5t174 70.5q63 0 104 -20q41 -57 41 -178q0 -57 -12 -97q-61 35 -156 35q-143 0 -227 -135v-436q127 -12 200 -43q8 -25 13 -77q2 -26 2 -47t-2 -36h-662z" />
<glyph unicode="s" horiz-adv-x="954" d="M84 154q0 106 20 174q139 0 236 -33v-113q63 -35 137 -35q119 0 119 95q0 43 -36 72.5t-90 46t-117.5 43t-118 60.5t-90 101.5t-35.5 161.5q0 139 107.5 223t295.5 84t344 -69q4 -41 4 -72q0 -111 -22 -188q-133 0 -234 45v92q-41 23 -90 22q-109 0 -108 -90 q0 -47 35.5 -78.5t89 -49t116 -43t115.5 -57.5t89 -95.5t36 -153.5q0 -172 -118 -252t-306 -80q-223 0 -369 78q-10 52 -10 111z" />
<glyph unicode="t" horiz-adv-x="823" d="M18 797q0 111 37 188q49 29 113 45l37 234q92 49 248 49v-314h284q16 -62 16 -126q0 -38 -5 -76h-295v-453q0 -82 32.5 -114.5t98.5 -32.5q90 0 188 26q2 -10 2 -24q0 -90 -49 -168q-119 -66 -279 -66q-150 0 -222 80t-72 256q0 264 20 496h-154z" />
<glyph unicode="u" horiz-adv-x="1275" d="M8 788q4 109 49 189q88 41 234 41q104 0 160 -23v-598q0 -104 35.5 -153t125.5 -49t172 96v497h-143q4 100 49 189q88 41 234 41q104 0 159 -23v-655q0 -88 17 -152h147q2 -10 2 -34q0 -76 -35 -138q-117 -41 -352 -41q-43 78 -59 179h-19q-100 -188 -313 -189 q-150 0 -237 80t-87 301q0 231 13 442h-152z" />
<glyph unicode="v" horiz-adv-x="1157" d="M8 999h533q0 -94 -33 -182q-49 -23 -111 -31q47 -59 76 -151l68 -199q39 -115 55 -217h25q10 84 51 215l59 189q35 106 76 165q-59 16 -90 37q-25 66 -25 174h457q0 -98 -35 -190q-41 -16 -82 -21l-313 -792l-297 -27l-320 815q-41 14 -71 45q-19 57 -23 170z" />
<glyph unicode="w" horiz-adv-x="1708" d="M8 999h500q0 -94 -33 -182q-45 -23 -108 -31q41 -72 59 -145l49 -188q35 -127 41 -234h25q10 115 37 232l127 546l327 31l127 -571q29 -133 35 -240h23q8 84 49 238l49 176q27 104 57 160q-59 16 -88 36q-25 66 -24 172h440q0 -92 -35 -188q-43 -16 -82 -20l-242 -791 l-329 -31l-125 523q-31 131 -35 260h-25q-4 -113 -39 -260l-124 -492l-332 -31l-230 815q-41 14 -71 45q-19 57 -23 170z" />
<glyph unicode="x" horiz-adv-x="1230" d="M10 0q8 100 41 174q57 27 111 37l276 324l-231 256q-61 12 -96 30q-29 70 -33 178h567q0 -94 -22 -184q-29 -18 -72 -27q25 -12 65 -53l97 -106l73 102q18 31 54 62q-31 10 -60 30q-14 72 -14 176h420q-8 -102 -43 -188q-37 -14 -76 -18l-236 -293l271 -297q47 -4 82 -21 q33 -76 33 -182h-555q8 113 28 182q25 14 62 23q-41 23 -86 78l-101 110l-71 -104q-27 -43 -78 -84q45 -6 84 -25q29 -82 28 -180h-518z" />
<glyph unicode="y" horiz-adv-x="1155" d="M8 999h539q0 -94 -33 -182q-37 -18 -115 -33q51 -68 80 -139l88 -231q37 -98 47 -191h25q10 92 41 191l63 223q23 84 60 151q-59 18 -86 37q-25 66 -25 174h441q0 -98 -35 -190q-37 -16 -80 -21l-119 -317q-156 -414 -244 -580q-72 -137 -194.5 -248.5t-253.5 -150.5 q-37 37 -72 102.5t-41 114.5q117 31 216.5 101.5t152.5 156.5l-348 817q-47 14 -82 45q-21 64 -25 170z" />
<glyph unicode="z" horiz-adv-x="1026" d="M66 139l503 656v24h-217q-16 -82 -45 -151q-137 0 -215 39v292h821l37 -139l-506 -661v-25q174 0 273 19q14 86 43 145q63 18 155 18q47 0 80 -6l-41 -350h-858z" />
<glyph unicode="{" horiz-adv-x="770" d="M68 520q0 98 30 182q82 8 106.5 54.5t24.5 146.5v361q0 170 98.5 267t344.5 107q0 -119 -39 -192q-115 -18 -115 -172v-354q0 -233 -139 -297v-19q139 -59 139 -282v-406q0 -178 139 -186q8 -31 4 -98.5t-16 -94.5q-233 12 -324.5 98t-91.5 252v408q0 117 -30.5 167 t-130.5 58z" />
<glyph unicode="|" horiz-adv-x="712" d="M236 -387v1948q94 23 245 22v-1970q-37 -12 -119 -12q-79 0 -126 12z" />
<glyph unicode="}" horiz-adv-x="770" d="M109 1450q0 35 18 94.5t39 91.5q389 -29 389 -362v-365q0 -102 26.5 -152t116.5 -57q23 -78 23 -184q-94 -6 -130 -50t-36 -149v-415q0 -172 -89 -264.5t-327 -104.5q-27 82 -12 193q61 4 99 47t38 114v412q0 119 29 191.5t102 111.5v19q-131 78 -131 282v352 q0 98 -35.5 142.5t-119.5 52.5z" />
<glyph unicode="~" d="M98 537q45 80 126 128t177 48q82 0 198 -53.5t181 -53.5q49 0 88 24.5t60 59.5q92 -18 162 -69q-45 -102 -138.5 -171t-201.5 -69q-98 0 -205 53t-172 53q-104 0 -166 -98q-29 20 -62 65.5t-47 82.5z" />
<glyph unicode="&#xa1;" horiz-adv-x="798" d="M227 -424l66 965q59 25 153 24q37 0 64 -6l88 -983q-66 -18 -180.5 -18t-190.5 18zM229 883q0 76 49.5 123t127 47t126 -45t48.5 -125q0 -86 -48.5 -134.5t-125.5 -48.5q-177 1 -177 183z" />
<glyph unicode="&#xa2;" horiz-adv-x="1144" d="M123 547q0 190 112.5 328.5t303.5 179.5v157q100 23 262 23v-174q123 -20 225 -82q2 -16 2 -55q0 -150 -39 -242q-141 0 -225 59v129q-35 12 -74 13q-115 0 -182.5 -76t-67.5 -225q0 -154 71 -237t206 -83q164 0 307 62q4 -41 -11.5 -99.5t-39.5 -95.5q-86 -45 -199 -66 v-182q-33 -10 -127 -10t-135 10v178q-182 33 -285.5 163t-103.5 325z" />
<glyph unicode="&#xa3;" horiz-adv-x="1224" d="M80 0q8 94 35 162q43 33 116 59q70 123 70 199q0 43 -2 63h-170q0 72 27 170h114q-18 96 -18 168q0 154 120 242t339 88q178 0 356 -70q6 -33 6 -71q0 -125 -35 -226q-117 6 -225 64v96q-43 18 -94 19q-82 0 -128 -38t-46 -102q0 -68 16 -170h365q20 -82 6 -170h-348 q2 -14 2 -39q0 -74 -35 -136t-82 -95v-18h379q14 74 37 116q111 25 219 19v-330h-1024z" />
<glyph unicode="&#xa4;" horiz-adv-x="1226" d="M106 92l142 164q-82 113 -82 297q0 154 84 266l-141 162q23 31 69.5 65.5t91.5 49.5l119 -160q100 53 227 53q119 0 222 -45l118 156q45 -12 92.5 -47t69.5 -68l-135 -156q86 -109 86 -276q0 -182 -94 -303l139 -158q-20 -37 -63 -66.5t-93 -39.5l-120 153 q-98 -47 -222 -47q-131 0 -231 47l-125 -159q-99 28 -154 112zM432 551q0 -113 51.5 -185.5t132.5 -72.5q88 0 136.5 70.5t48.5 187.5q0 100 -52.5 168.5t-132.5 68.5q-88 0 -136 -65.5t-48 -171.5z" />
<glyph unicode="&#xa5;" horiz-adv-x="1247" d="M41 1110h580q0 -92 -29 -199q-33 -18 -96 -32q41 -35 63 -78l39 -76q41 -74 55 -135h25q16 74 55 135l49 78q37 55 66 78q-49 18 -72 37q-23 74 -22 192h475q0 -102 -43 -205q-35 -16 -103 -24l-141 -205h137q18 -68 6 -156h-251l-54 -78v-30h299q18 -68 6 -156h-305v-53 q115 -14 187 -43q25 -80 8 -160h-686q6 82 41 150q45 25 145 55v51h-307q0 74 25 156h282v8l-69 100h-238q0 74 25 156h104l-143 209q-53 14 -88 35q-25 73 -25 190z" />
<glyph unicode="&#xa6;" horiz-adv-x="712" d="M233 -387v807q94 23 250 22v-829q-37 -12 -121 -12t-129 12zM233 813v748q94 23 250 22v-770q-37 -12 -121 -12t-129 12z" />
<glyph unicode="&#xa7;" horiz-adv-x="1048" d="M61 -139q0 143 25 293q135 0 248 -31v-166q51 -35 131 -35q86 0 132 38t46 108q0 53 -55.5 95t-135 76.5t-159.5 81t-135.5 132.5t-55.5 204q0 178 123 301q-12 43 -12 93q0 137 101.5 214.5t273.5 77.5q168 0 366 -79q0 -133 -28 -271q-139 0 -232 49v125 q-49 18 -102 19q-61 0 -96 -29t-35 -78q0 -39 38 -71.5t93 -55t121.5 -59.5t122 -80t93.5 -121t38 -178q0 -135 -109 -274q31 -72 31 -152q0 -162 -124 -245t-316 -83q-202 1 -388 101zM330 694q0 -70 54 -116t168 -99t165 -88q20 51 20 94q0 68 -58 115t-168 98.5 t-163 92.5q-18 -46 -18 -97z" />
<glyph unicode="&#xa8;" horiz-adv-x="1038" d="M82 1333q0 72 46 114t120 42t118 -41t44 -115q0 -80 -44 -124t-118 -44q-166 0 -166 168zM629 1333q0 72 46 114t119.5 42t117.5 -41t44 -115q0 -80 -44 -124t-117 -44q-166 0 -166 168z" />
<glyph unicode="&#xa9;" horiz-adv-x="1765" d="M137 694.5q0 311.5 219 529.5t533 218q311 0 525 -215t214 -524.5t-220 -526.5t-536 -217q-313 0 -524 212t-211 523.5zM319 700.5q0 -239.5 166 -409.5t402 -170q233 0 396 168t163 407q0 238 -165 410t-398.5 172t-398.5 -169t-165 -408.5zM467 678q0 199 131 318.5 t317 119.5q154 0 283 -59q0 -129 -22 -269q-125 0 -209 46v100q-25 8 -56 8q-66 0 -108.5 -64.5t-42.5 -183.5q0 -236 198 -235q109 0 232 39q2 -31 -8.5 -82t-26.5 -82q-135 -66 -281 -66q-182 0 -294.5 115t-112.5 295z" />
<glyph unicode="&#xaa;" horiz-adv-x="974" d="M162 852q0 111 80 168t198 57q55 0 107 -12v35q0 74 -107 74q-125 0 -235 -52q-8 35 0 94.5t24 96.5q92 31 246 30q158 0 227.5 -60t69.5 -198v-196q0 -39 14 -64q45 0 99 17q0 -92 -29 -146q-94 -51 -211 -51q-35 29 -53 86h-19q-53 -86 -190 -86q-90 0 -155.5 53.5 t-65.5 153.5zM182 391q0 90 27 174h592q20 -92 8 -174h-627zM371 872q0 -41 22.5 -58t52.5 -17q63 0 101 39v114q-35 6 -62 6q-114 0 -114 -84z" />
<glyph unicode="&#xab;" horiz-adv-x="1411" d="M160 528q78 186 219 414q164 45 309 45q-121 -248 -194 -459q59 -182 174 -407q-119 -55 -254 -60q-168 262 -254 467zM705 535q78 186 219 413q160 45 305 45q-121 -248 -195 -458q59 -182 174 -408q-119 -55 -250 -59q-167 262 -253 467z" />
<glyph unicode="&#xac;" d="M92 453q0 113 35 225h932v-428q-47 -14 -129 -14q-80 0 -142 14v203h-696z" />
<glyph unicode="&#xad;" horiz-adv-x="831" d="M109 446q0 123 36 238h539q16 -66 16 -168q0 -29 -4 -70h-587z" />
<glyph unicode="&#xae;" horiz-adv-x="1462" d="M201 1122q0 231 150.5 379t386 148t380 -145.5t144.5 -375.5q0 -231 -152 -381.5t-385 -150.5t-378.5 146.5t-145.5 379.5zM338 1126q0 -174 110.5 -291.5t284.5 -117.5q170 0 278.5 113.5t108.5 287.5q0 176 -109.5 292t-283.5 116q-170 0 -279.5 -115t-109.5 -285z M457 881q6 47 22 86q31 16 53 18v281q-23 0 -53 6q-14 59 -2 100q100 10 260 10q106 0 173 -37.5t67 -111.5q0 -100 -90 -146q33 -61 63 -102l66 6q4 -49 -21 -100q-80 -23 -155 -23q-70 113 -109 203h-37v-84q33 -4 54 -18q10 -49 6 -88h-297zM694 1174h54q66 0 65 49 q0 47 -78 47h-41v-96z" />
<glyph unicode="&#xaf;" horiz-adv-x="921" d="M102 1219q0 109 35 217h670q14 -57 14 -152q0 -29 -4 -65h-715z" />
<glyph unicode="&#xb0;" horiz-adv-x="874" d="M119 1055q0 129 91 208.5t230 79.5q143 0 231.5 -76.5t88.5 -211.5q0 -145 -86 -226t-234 -81q-154 0 -237.5 78.5t-83.5 228.5zM340 1055q0 -59 27.5 -98t72.5 -39t72 37.5t27 99.5q0 51 -28 85t-71 34q-45 0 -72.5 -33t-27.5 -86z" />
<glyph unicode="&#xb1;" d="M127 0q0 106 31 211h852q14 -57 14 -148q0 -31 -4 -63h-893zM131 662q0 104 31 204h293v324q100 23 258 22v-346h307q14 -68 14 -143q0 -25 -4 -61h-317v-336q-53 -14 -123 -15q-84 0 -135 15v336h-324z" />
<glyph unicode="&#xb2;" horiz-adv-x="788" d="M55 1511q160 76 334 76q324 0 324 -225q0 -172 -414 -404v-14q193 0 434 17q0 -94 -16 -189h-651v156q33 29 155.5 124t184 164.5t61.5 135.5q0 78 -90 78q-68 0 -111 -17v-90q-76 -29 -194 -29q-17 104 -17 217z" />
<glyph unicode="&#xb3;" horiz-adv-x="788" d="M88 940q0 27 2 45q121 -57 258 -57q111 0 111 73q0 53 -60.5 74t-214.5 21q-16 78 17 168q129 0 186 20.5t57 69.5q0 66 -86 65q-117 0 -229 -49q-12 94 25 176q92 41 223 41t220 -53t89 -156q0 -135 -139 -172v-18q70 -12 114 -58.5t44 -117.5q0 -129 -99.5 -191.5 t-261.5 -62.5q-121 0 -225 28q-31 68 -31 154z" />
<glyph unicode="&#xb4;" horiz-adv-x="753" d="M125 1225l258 360q53 0 144 -28.5t128 -63.5l-393 -379q-35 14 -76 48t-61 63z" />
<glyph unicode="&#xb5;" horiz-adv-x="1286" d="M88 -496q31 887 31 1477q41 14 140 25.5t153 11.5q-12 -209 -13 -389q0 -217 54.5 -334t150.5 -117q119 0 197 141q-12 115 -13 236q0 254 19 428q94 35 266 35q-18 -195 -18 -443q0 -160 12 -249.5t32.5 -118.5t53.5 -29q59 0 104 31q2 -8 3 -23q0 -104 -46 -172 q-70 -49 -159 -49q-84 0 -135.5 53.5t-67.5 131.5h-18q-16 -39 -32 -66t-46.5 -57.5t-77.5 -46t-113 -15.5q-86 0 -152.5 46t-95.5 132h-24q37 -158 68.5 -375t31.5 -335q-192 5 -305 71z" />
<glyph unicode="&#xb6;" horiz-adv-x="1458" d="M96 1067q0 430 647 430q371 0 600 -18q4 -33 5 -68q0 -59 -7 -90q-43 -2 -149 -2v-1325q-45 -8 -92 -8q-55 0 -109 8v1345q-86 6 -207 7v-1516q383 -10 574 -29q12 -47 12 -114q0 -29 -2 -41h-962q12 98 34 155q70 20 144 27v862q-49 -4 -97 -4q-156 0 -273.5 93 t-117.5 288z" />
<glyph unicode="&#xb7;" horiz-adv-x="688" d="M150 508q0 84 55 136t143 52q84 0 137.5 -50t53.5 -138q0 -96 -52.5 -150.5t-138.5 -54.5q-198 0 -198 205z" />
<glyph unicode="&#xb8;" horiz-adv-x="612" d="M113 -373q57 8 96 36t39 69q0 74 -111 96l80 188q70 18 182 19l-26 -144q55 -14 96 -56t41 -101q0 -94 -84 -154.5t-201 -73.5q-69 39 -112 121z" />
<glyph unicode="&#xb9;" horiz-adv-x="788" d="M109 1378q0 88 30 160q176 39 385 49v-651q80 -4 140 -16q12 -43 12 -107q0 -25 -2 -41h-545q4 78 33 143q55 14 125 23v457z" />
<glyph unicode="&#xba;" horiz-adv-x="991" d="M143 1008q0 152 101.5 243.5t257.5 91.5q162 0 258 -88t96 -247q0 -170 -96 -266.5t-258 -96.5q-170 0 -264.5 94.5t-94.5 268.5zM180 391q0 90 27 174h600q20 -92 8 -174h-635zM375 1008q0 -92 34.5 -146.5t92 -54.5t89.5 53t32 148q0 78 -34 128t-87 50q-59 0 -93 -48 t-34 -130z" />
<glyph unicode="&#xbb;" horiz-adv-x="1411" d="M201 934q115 55 252 55q166 -260 252 -461q-84 -188 -254 -467q-129 6 -248 70q123 260 170 397q-74 203 -172 406zM743 940q111 55 248 55q166 -260 252 -460q-84 -188 -254 -467q-129 6 -244 69q123 260 170 398q-74 202 -172 405z" />
<glyph unicode="&#xbc;" horiz-adv-x="1896" d="M94 1206q0 88 31 160q176 39 385 49v-651q80 -4 139 -16q12 -43 13 -107q0 -25 -3 -41h-544q4 78 32 143q55 14 125 23v457zM389 29l1008 1448q135 -4 239 -56l-1046 -1503q-55 10 -112.5 42t-88.5 69zM1081 182v131l338 488h273v-449h100q14 -70 14 -170h-114v-176 q-29 -10 -109 -10t-117 10v176h-385zM1303 346q37 6 86 6h77v121q0 61 9 119h-15l-157 -232v-14z" />
<glyph unicode="&#xbd;" horiz-adv-x="1896" d="M39 1206q0 88 31 160q176 39 385 49v-651q80 -4 139 -16q12 -43 12 -107q0 -25 -2 -41h-545q4 78 33 143q55 14 125 23v457zM305 29l1008 1448q135 -4 239 -56l-1046 -1503q-55 10 -112.5 42t-88.5 69zM1159 739q160 76 334 76q324 0 324 -225q0 -172 -414 -404v-14 q193 0 434 16q0 -94 -16 -188h-652v156q33 29 156 124t184.5 164.5t61.5 135.5q0 78 -90 77q-68 0 -111 -16v-90q-76 -29 -194 -29q-17 104 -17 217z" />
<glyph unicode="&#xbe;" horiz-adv-x="1896" d="M88 768q0 27 2 45q121 -57 258 -57q111 0 111 73q0 53 -60.5 74t-214.5 21q-16 78 17 168q129 0 186 20.5t57 69.5q0 66 -86 65q-117 0 -229 -49q-12 94 25 176q92 41 223 41t220 -53t89 -156q0 -135 -139 -172v-18q70 -12 114 -58.5t44 -117.5q0 -129 -99.5 -191.5 t-261.5 -62.5q-121 0 -225 28q-31 68 -31 154zM348 29l1008 1448q135 -4 239 -56l-1046 -1503q-55 10 -112.5 42t-88.5 69zM1047 182v131l337 488h273v-449h100q14 -70 15 -170h-115v-176q-29 -10 -109 -10q-82 0 -116 10v176h-385zM1268 346q37 6 86 6h78v121q0 61 8 119 h-15l-157 -232v-14z" />
<glyph unicode="&#xbf;" horiz-adv-x="1044" d="M51 -182q0 82 42 153.5t101.5 121.5t119 94t101.5 89.5t42 88.5q0 94 -47 153q104 66 231 76q43 -41 72.5 -103.5t29.5 -113.5q0 -68 -36.5 -129.5t-90 -108.5t-106.5 -92t-90 -98t-37 -106.5t39 -94.5t119 -41q68 0 133 27v180q86 51 237 59q31 -170 31 -381 q-90 -31 -224 -54t-237 -23q-197 0 -313.5 81t-116.5 222zM344 883q0 76 49 123t127 47t126 -45t48 -125q0 -86 -48 -134.5t-126 -48.5q-176 1 -176 183z" />
<glyph unicode="&#xc0;" horiz-adv-x="1697" d="M59 0q12 90 50 184q37 18 98 31l534 1262h236l512 -1256q63 -12 110 -31q25 -86 33 -190h-635q8 90 50 186q59 20 127 33q-39 47 -74 135l-23 58h-528l-25 -68q-33 -92 -61 -133q80 -8 141 -25q33 -80 33 -186h-578zM365 1765q31 47 102.5 107.5t122.5 81.5l444 -221 q-18 -113 -76 -187zM623 602h385l-109 287q-61 168 -68 289h-24q-8 -100 -80 -293z" />
<glyph unicode="&#xc1;" horiz-adv-x="1697" d="M59 0q12 90 50 184q37 18 98 31l534 1262h236l512 -1256q63 -12 110 -31q25 -86 33 -190h-635q8 90 50 186q59 20 127 33q-39 47 -74 135l-23 58h-528l-25 -68q-33 -92 -61 -133q80 -8 141 -25q33 -80 33 -186h-578zM623 602h385l-109 287q-61 168 -68 289h-24 q-8 -100 -80 -293zM672 1731l469 233q43 -33 92 -99.5t72 -121.5l-596 -205q-37 93 -37 193z" />
<glyph unicode="&#xc2;" horiz-adv-x="1697" d="M59 0q12 90 50 184q37 18 98 31l534 1262h236l512 -1256q63 -12 110 -31q25 -86 33 -190h-635q8 90 50 186q59 20 127 33q-39 47 -74 135l-23 58h-528l-25 -68q-33 -92 -61 -133q80 -8 141 -25q33 -80 33 -186h-578zM403 1720l306 205h272l324 -223q-14 -41 -51 -88 t-70 -68l-346 162l-373 -172q-50 69 -62 184zM623 602h385l-109 287q-61 168 -68 289h-24q-8 -100 -80 -293z" />
<glyph unicode="&#xc3;" horiz-adv-x="1697" d="M59 0q12 90 50 184q37 18 98 31l534 1262h236l512 -1256q63 -12 110 -31q25 -86 33 -190h-635q8 90 50 186q59 20 127 33q-39 47 -74 135l-23 58h-528l-25 -68q-33 -92 -61 -133q80 -8 141 -25q33 -80 33 -186h-578zM365 1667q14 102 95 170t216 68q94 0 196.5 -46.5 t165.5 -46.5q90 0 115 80q111 0 174 -34q0 -117 -82 -205t-241 -88q-82 0 -187.5 48t-173.5 48q-41 0 -70.5 -25.5t-37.5 -56.5q-100 6 -170 88zM623 602h385l-109 287q-61 168 -68 289h-24q-8 -100 -80 -293z" />
<glyph unicode="&#xc4;" horiz-adv-x="1697" d="M59 0q12 90 50 184q37 18 98 31l534 1262h236l512 -1256q63 -12 110 -31q25 -86 33 -190h-635q8 90 50 186q59 20 127 33q-39 47 -74 135l-23 58h-528l-25 -68q-33 -92 -61 -133q80 -8 141 -25q33 -80 33 -186h-578zM338 1731q0 74 48 116.5t126 42.5t124 -41t46 -118 q0 -82 -46 -126t-124 -44q-174 0 -174 170zM623 602h385l-109 287q-61 168 -68 289h-24q-8 -100 -80 -293zM1012 1731q0 74 48 116.5t126 42.5t124 -41t46 -118q0 -82 -46 -126t-124 -44q-174 0 -174 170z" />
<glyph unicode="&#xc5;" horiz-adv-x="1697" d="M59 0q12 90 50 184q37 18 98 31l524 1241q-162 47 -162 221q0 115 75 178.5t212 63.5q133 0 210 -60.5t77 -175.5q0 -168 -160 -225l506 -1237q63 -12 110 -31q25 -86 33 -190h-635q8 90 50 186q59 20 127 33q-39 47 -74 135l-23 58h-528l-25 -68q-33 -92 -61 -133 q80 -8 141 -25q33 -80 33 -186h-578zM623 602h385l-109 287q-61 168 -68 289h-24q-8 -104 -80 -297zM748 1679q0 -92 106 -92q47 0 79 23.5t32 68.5t-32 69t-79 24q-49 0 -77.5 -26t-28.5 -67z" />
<glyph unicode="&#xc6;" horiz-adv-x="2191" d="M29 0q12 90 49 184q37 18 98 31l641 1024q-98 8 -166 25q-20 113 -2 188h1385v-371q-137 0 -232 31q-16 57 -24 148h-404v-424h318q4 43 18 90q96 31 223 30v-419q-133 -12 -225 16q-14 43 -18 94h-316v-450h410q6 90 26 165q96 31 244 31v-393h-1177q8 113 41 184 q39 16 141 33v266h-441l-83 -139q-49 -80 -103 -133q80 -8 141 -25q33 -80 33 -186h-577zM731 670h328v544h-25q-39 -111 -112 -229z" />
<glyph unicode="&#xc7;" horiz-adv-x="1437" d="M111 713q0 356 221 568t551 212q227 0 420 -96q0 -217 -39 -398q-143 0 -252 60v201q-68 31 -148 30q-188 0 -303 -141t-115 -408q0 -268 116 -405t310 -137q205 0 418 77q4 -43 -10 -106.5t-39 -101.5q-145 -76 -313 -99l-15 -82q61 -12 107.5 -60t46.5 -122 q0 -109 -94 -174.5t-225 -79.5q-74 39 -121 131q63 10 104 39t41 76q0 84 -125 110l64 158q-272 31 -436 236t-164 512z" />
<glyph unicode="&#xc8;" horiz-adv-x="1400" d="M86 0q8 113 41 184q39 16 141 33v1022q-82 8 -135 25q-14 106 -2 188h1112v-371q-137 0 -231 31q-16 57 -25 148h-403v-424h317q4 43 19 90q96 31 223 30v-419q-133 -12 -225 16q-14 43 -19 94h-315v-450h409q6 90 27 165q96 31 244 31v-393h-1178zM258 1765 q31 47 102.5 107.5t122.5 81.5l445 -221q-18 -113 -76 -187z" />
<glyph unicode="&#xc9;" horiz-adv-x="1400" d="M86 0q8 113 41 184q39 16 141 33v1022q-82 8 -135 25q-14 106 -2 188h1112v-371q-137 0 -231 31q-16 57 -25 148h-403v-424h317q4 43 19 90q96 31 223 30v-419q-133 -12 -225 16q-14 43 -19 94h-315v-450h409q6 90 27 165q96 31 244 31v-393h-1178zM565 1731l469 233 q43 -33 92.5 -99.5t71.5 -121.5l-596 -205q-37 93 -37 193z" />
<glyph unicode="&#xca;" horiz-adv-x="1400" d="M86 0q8 113 41 184q39 16 141 33v1022q-82 8 -135 25q-14 106 -2 188h1112v-371q-137 0 -231 31q-16 57 -25 148h-403v-424h317q4 43 19 90q96 31 223 30v-419q-133 -12 -225 16q-14 43 -19 94h-315v-450h409q6 90 27 165q96 31 244 31v-393h-1178zM281 1720l305 205h272 l324 -223q-14 -41 -51 -88t-70 -68l-346 162l-373 -172q-49 69 -61 184z" />
<glyph unicode="&#xcb;" horiz-adv-x="1400" d="M86 0q8 113 41 184q39 16 141 33v1022q-82 8 -135 25q-14 106 -2 188h1112v-371q-137 0 -231 31q-16 57 -25 148h-403v-424h317q4 43 19 90q96 31 223 30v-419q-133 -12 -225 16q-14 43 -19 94h-315v-450h409q6 90 27 165q96 31 244 31v-393h-1178zM217 1731 q0 74 48 116.5t126 42.5t124 -41t46 -118q0 -82 -46 -126t-124 -44q-174 0 -174 170zM891 1731q0 74 48 116.5t126 42.5t124 -41t46 -118q0 -82 -46 -126t-124 -44q-174 0 -174 170z" />
<glyph unicode="&#xcc;" horiz-adv-x="851" d="M-74 1765q31 47 102.5 107.5t123.5 81.5l444 -221q-18 -113 -76 -187zM86 0q8 113 41 184q39 16 141 33v1022q-82 8 -135 25q-16 115 -2 188h606q6 -31 5 -93.5t-9 -94.5q-61 -18 -149 -23v-1024q88 -6 164 -29q12 -43 12 -127q0 -33 -4 -61h-670z" />
<glyph unicode="&#xcd;" horiz-adv-x="851" d="M86 0q8 113 41 184q39 16 141 33v1022q-82 8 -135 25q-16 115 -2 188h606q6 -31 5 -93.5t-9 -94.5q-61 -18 -149 -23v-1024q88 -6 164 -29q12 -43 12 -127q0 -33 -4 -61h-670zM246 1731l469 233q43 -33 92 -99.5t72 -121.5l-596 -205q-37 93 -37 193z" />
<glyph unicode="&#xce;" horiz-adv-x="851" d="M-14 1720l305 205h272l324 -223q-14 -41 -51 -88t-70 -68l-346 162l-373 -172q-49 69 -61 184zM86 0q8 113 41 184q39 16 141 33v1022q-82 8 -135 25q-16 115 -2 188h606q6 -31 5 -93.5t-9 -94.5q-61 -18 -149 -23v-1024q88 -6 164 -29q12 -43 12 -127q0 -33 -4 -61h-670 z" />
<glyph unicode="&#xcf;" horiz-adv-x="851" d="M-61 1731q0 74 48 116.5t125.5 42.5t124 -41t46.5 -118q0 -82 -46.5 -126t-123.5 -44q-174 0 -174 170zM86 0q8 113 41 184q39 16 141 33v1022q-82 8 -135 25q-16 115 -2 188h606q6 -31 5 -93.5t-9 -94.5q-61 -18 -149 -23v-1024q88 -6 164 -29q12 -43 12 -127 q0 -33 -4 -61h-670zM555 1731q0 74 48 116.5t126 42.5t124 -41t46 -118q0 -82 -46 -126t-124 -44q-174 0 -174 170z" />
<glyph unicode="&#xd0;" horiz-adv-x="1622" d="M117 4q8 113 41 184q12 4 137 33v404h-158q0 100 33 190h125v404q-72 6 -135 18q-8 53 -8 115q0 49 6 78q303 37 592 36q371 0 584.5 -178t213.5 -534q0 -193 -61.5 -344.5t-165.5 -241.5t-229 -136t-263 -46q-417 0 -712 18zM610 195q68 -6 160 -7q213 0 334 129 t121 403.5t-130 410t-358 135.5q-74 0 -127 -13v-438h299q25 -94 11 -190h-310v-430z" />
<glyph unicode="&#xd1;" horiz-adv-x="1675" d="M102 0q8 115 37 184q45 18 129 33v1022q-82 8 -135 25q-20 113 -2 188h528l449 -803q76 -137 104 -305h25v895q-92 8 -154 25q-20 113 -2 188h523q6 -25 6 -76q0 -72 -11 -112q-53 -18 -137 -23v-1257h-317l-502 890q-80 145 -104 295h-25v-952q80 -6 154 -29 q8 -33 11 -94t-3 -94h-574zM389 1667q14 102 95 170t216 68q94 0 196.5 -46.5t166.5 -46.5q90 0 115 80q111 0 174 -34q0 -117 -82 -205t-242 -88q-82 0 -187.5 48t-172.5 48q-41 0 -71 -25.5t-38 -56.5q-100 6 -170 88z" />
<glyph unicode="&#xd2;" horiz-adv-x="1611" d="M115 745q0 340 195.5 544t498.5 204q315 0 501.5 -196.5t186.5 -551.5q0 -369 -185.5 -577.5t-502.5 -208.5q-336 0 -515 200.5t-179 585.5zM342 1765q31 47 102.5 107.5t122.5 81.5l445 -221q-18 -113 -76 -187zM451 745q0 -268 95 -425.5t263 -157.5q174 0 264 153.5 t90 429.5q0 242 -98 394.5t-256 152.5q-172 0 -265 -145.5t-93 -401.5z" />
<glyph unicode="&#xd3;" horiz-adv-x="1611" d="M115 745q0 340 195.5 544t498.5 204q315 0 501.5 -196.5t186.5 -551.5q0 -369 -185.5 -577.5t-502.5 -208.5q-336 0 -515 200.5t-179 585.5zM451 745q0 -268 95 -425.5t263 -157.5q174 0 264 153.5t90 429.5q0 242 -98 394.5t-256 152.5q-172 0 -265 -145.5t-93 -401.5z M612 1731l469 233q43 -33 92.5 -99.5t71.5 -121.5l-596 -205q-37 93 -37 193z" />
<glyph unicode="&#xd4;" horiz-adv-x="1611" d="M115 745q0 340 195.5 544t498.5 204q315 0 501.5 -196.5t186.5 -551.5q0 -369 -185.5 -577.5t-502.5 -208.5q-336 0 -515 200.5t-179 585.5zM369 1720l305 205h272l324 -223q-14 -41 -51 -88t-70 -68l-346 162l-373 -172q-49 69 -61 184zM451 745q0 -268 95 -425.5 t263 -157.5q174 0 264 153.5t90 429.5q0 242 -98 394.5t-256 152.5q-172 0 -265 -145.5t-93 -401.5z" />
<glyph unicode="&#xd5;" horiz-adv-x="1611" d="M115 745q0 340 195.5 544t498.5 204q315 0 501.5 -196.5t186.5 -551.5q0 -369 -185.5 -577.5t-502.5 -208.5q-336 0 -515 200.5t-179 585.5zM324 1667q14 102 95 170t216 68q94 0 196.5 -46.5t165.5 -46.5q90 0 115 80q111 0 174 -34q0 -117 -82 -205t-241 -88 q-82 0 -187.5 48t-173.5 48q-41 0 -70.5 -25.5t-37.5 -56.5q-100 6 -170 88zM451 745q0 -268 95 -425.5t263 -157.5q174 0 264 153.5t90 429.5q0 242 -98 394.5t-256 152.5q-172 0 -265 -145.5t-93 -401.5z" />
<glyph unicode="&#xd6;" horiz-adv-x="1611" d="M115 745q0 340 195.5 544t498.5 204q315 0 501.5 -196.5t186.5 -551.5q0 -369 -185.5 -577.5t-502.5 -208.5q-336 0 -515 200.5t-179 585.5zM276 1731q0 74 48.5 116.5t126 42.5t124 -41t46.5 -118q0 -82 -46.5 -126t-123.5 -44q-175 0 -175 170zM451 745 q0 -268 95 -425.5t263 -157.5q174 0 264 153.5t90 429.5q0 242 -98 394.5t-256 152.5q-172 0 -265 -145.5t-93 -401.5zM1008 1731q0 74 48 116.5t126 42.5t124 -41t46 -118q0 -82 -46 -126t-124 -44q-174 0 -174 170z" />
<glyph unicode="&#xd7;" d="M84 872q31 37 90 79t111 65l299 -309l290 303q51 -14 114 -56.5t93 -79.5l-340 -327l326 -314q-23 -41 -74 -93t-96 -77l-313 326l-312 -323q-47 27 -99 78t-73 89l324 314z" />
<glyph unicode="&#xd8;" horiz-adv-x="1660" d="M-6 20l237 269q-92 182 -92 456q0 340 195.5 544t499.5 204q221 0 378 -96l136 151q45 -8 124.5 -40.5t116.5 -57.5l-200 -223q133 -186 133 -482q0 -369 -185.5 -577.5t-502.5 -208.5q-276 0 -447 135l-217 -244q-37 20 -95 77.5t-81 92.5zM465 748q0 -119 18 -211 l576 643q-94 113 -225 112q-178 0 -273.5 -145t-95.5 -399zM559 328q96 -166 275 -166q180 0 271 152.5t91 428.5q0 131 -37 256z" />
<glyph unicode="&#xd9;" horiz-adv-x="1671" d="M115 1452h612q6 -31 5 -93.5t-9 -94.5q-59 -18 -139 -23v-678q0 -201 74.5 -299t232.5 -98q168 0 247 107.5t79 289.5v676q-76 8 -125 25q-20 113 -2 188h503q6 -25 6 -76q0 -72 -10 -112q-51 -18 -127 -23v-663q0 -289 -151.5 -454t-472.5 -165q-293 0 -431.5 145.5 t-138.5 442.5v698q-84 8 -135 23q-18 82 -18 184zM379 1765q31 47 102.5 107.5t122.5 81.5l445 -221q-18 -113 -76 -187z" />
<glyph unicode="&#xda;" horiz-adv-x="1671" d="M115 1452h612q6 -31 5 -93.5t-9 -94.5q-59 -18 -139 -23v-678q0 -201 74.5 -299t232.5 -98q168 0 247 107.5t79 289.5v676q-76 8 -125 25q-20 113 -2 188h503q6 -25 6 -76q0 -72 -10 -112q-51 -18 -127 -23v-663q0 -289 -151.5 -454t-472.5 -165q-293 0 -431.5 145.5 t-138.5 442.5v698q-84 8 -135 23q-18 82 -18 184zM717 1731l469 233q43 -33 92 -99.5t72 -121.5l-596 -205q-37 93 -37 193z" />
<glyph unicode="&#xdb;" horiz-adv-x="1671" d="M115 1452h612q6 -31 5 -93.5t-9 -94.5q-59 -18 -139 -23v-678q0 -201 74.5 -299t232.5 -98q168 0 247 107.5t79 289.5v676q-76 8 -125 25q-20 113 -2 188h503q6 -25 6 -76q0 -72 -10 -112q-51 -18 -127 -23v-663q0 -289 -151.5 -454t-472.5 -165q-293 0 -431.5 145.5 t-138.5 442.5v698q-84 8 -135 23q-18 82 -18 184zM442 1720l306 205h272l323 -223q-14 -41 -51 -88t-69 -68l-346 162l-373 -172q-50 69 -62 184z" />
<glyph unicode="&#xdc;" horiz-adv-x="1671" d="M115 1452h612q6 -31 5 -93.5t-9 -94.5q-59 -18 -139 -23v-678q0 -201 74.5 -299t232.5 -98q168 0 247 107.5t79 289.5v676q-76 8 -125 25q-20 113 -2 188h503q6 -25 6 -76q0 -72 -10 -112q-51 -18 -127 -23v-663q0 -289 -151.5 -454t-472.5 -165q-293 0 -431.5 145.5 t-138.5 442.5v698q-84 8 -135 23q-18 82 -18 184zM377 1731q0 74 48 116.5t126 42.5t124 -41t46 -118q0 -82 -46 -126t-124 -44q-174 0 -174 170zM1051 1731q0 74 48 116.5t126 42.5t124 -41t46 -118q0 -82 -46 -126t-124 -44q-174 0 -174 170z" />
<glyph unicode="&#xdd;" horiz-adv-x="1476" d="M35 1452h633q0 -90 -33 -197q-39 -12 -121 -16q45 -35 76 -96l108 -211q55 -106 68 -209h25q12 106 67 209l119 217q31 51 78 92q-63 8 -103 25q-27 84 -26 186h518q0 -115 -29 -197q-47 -12 -106 -16l-422 -690v-332q109 -6 203 -29q10 -33 13 -95t-3 -93h-748 q6 88 49 182q68 23 170 35v311l-401 713q-59 8 -102 25q-25 75 -33 186zM612 1731l469 233q43 -33 92.5 -99.5t71.5 -121.5l-596 -205q-37 93 -37 193z" />
<glyph unicode="&#xde;" horiz-adv-x="1404" d="M86 0q8 113 41 184q39 16 141 33v1022q-82 8 -135 25q-20 113 -2 188h606q6 -31 5 -93.5t-9 -94.5q-61 -18 -149 -23v-90q53 4 157 4q272 0 435 -102.5t163 -298.5q0 -109 -49 -195t-132 -136t-184.5 -75.5t-212 -25.5t-177.5 16v-121q88 -6 164 -29q8 -33 11 -94t-3 -94 h-670zM584 532q78 -14 186 -14q115 0 183.5 54.5t68.5 166.5q0 100 -86 159.5t-223 59.5q-6 0 -129 -6v-420z" />
<glyph unicode="&#xdf;" horiz-adv-x="1486" d="M51 0q8 92 33 150q33 25 119 57v575q-80 8 -133 33q-18 90 -7 184h142q20 264 176 399.5t426 135.5q80 0 155.5 -15.5t144.5 -47t111 -89t42 -133.5q0 -127 -109 -219q-39 -31 -57.5 -49t-36 -51t-17.5 -70q0 -31 10.5 -55.5t35 -45t45 -33.5t61.5 -34.5t61 -34.5 q96 -59 150.5 -130.5t54.5 -190.5q0 -178 -130 -274.5t-320 -96.5q-193 0 -363 82q-6 39 -6 86q0 117 27 201q137 0 231 -35v-119q57 -29 123 -28q135 0 135 129q0 49 -28.5 90t-60.5 63.5t-93 54.5q-61 35 -92 55.5t-75 60.5t-64.5 93.5t-20.5 120.5q0 57 28.5 112.5t54 81 t75.5 68.5q82 72 82 133q0 63 -50.5 96t-115.5 33q-166 0 -233.5 -109.5t-67.5 -330.5v-903h-443z" />
<glyph unicode="&#xe0;" horiz-adv-x="1107" d="M51 270q0 164 118 252t300 88q90 0 168 -32v75q0 152 -180 152q-70 0 -171.5 -26.5t-160.5 -59.5q-8 33 -8 72q0 113 41 190q141 53 368 53q201 0 300.5 -84t99.5 -274v-344q0 -98 28 -152q63 0 133 17q2 -14 3 -33q0 -68 -35 -137q-104 -61 -291 -62q-70 35 -98 148h-19 q-92 -147 -301 -148q-121 0 -208 80t-87 225zM174 1503q39 29 129 53.5t156 24.5l274 -385q-86 -53 -192 -57zM348 303q0 -66 36 -99.5t91 -33.5q102 0 168 74v192q-55 12 -113 13q-88 0 -135 -39t-47 -107z" />
<glyph unicode="&#xe1;" horiz-adv-x="1107" d="M51 270q0 164 118 252t300 88q90 0 168 -32v75q0 152 -180 152q-70 0 -171.5 -26.5t-160.5 -59.5q-8 33 -8 72q0 113 41 190q141 53 368 53q201 0 300.5 -84t99.5 -274v-344q0 -98 28 -152q63 0 133 17q2 -14 3 -33q0 -68 -35 -137q-104 -61 -291 -62q-70 35 -98 148h-19 q-92 -147 -301 -148q-121 0 -208 80t-87 225zM311 1225l258 360q53 0 144.5 -28.5t128.5 -63.5l-393 -379q-35 14 -76.5 48t-61.5 63zM348 303q0 -66 36 -99.5t91 -33.5q102 0 168 74v192q-55 12 -113 13q-88 0 -135 -39t-47 -107z" />
<glyph unicode="&#xe2;" horiz-adv-x="1107" d="M51 270q0 164 118 252t300 88q90 0 168 -32v75q0 152 -180 152q-70 0 -171.5 -26.5t-160.5 -59.5q-8 33 -8 72q0 113 41 190q141 53 368 53q201 0 300.5 -84t99.5 -274v-344q0 -98 28 -152q63 0 133 17q2 -14 3 -33q0 -68 -35 -137q-104 -61 -291 -62q-70 35 -98 148h-19 q-92 -147 -301 -148q-121 0 -208 80t-87 225zM137 1284l264 266l213 11l281 -304q-18 -33 -63.5 -70.5t-81.5 -49.5l-250 211l-264 -218q-70 60 -99 154zM348 303q0 -66 36 -99.5t91 -33.5q102 0 168 74v192q-55 12 -113 13q-88 0 -135 -39t-47 -107z" />
<glyph unicode="&#xe3;" horiz-adv-x="1107" d="M51 270q0 164 118 252t300 88q90 0 168 -32v75q0 152 -180 152q-70 0 -171.5 -26.5t-160.5 -59.5q-8 33 -8 72q0 113 41 190q141 53 368 53q201 0 300.5 -84t99.5 -274v-344q0 -98 28 -152q63 0 133 17q2 -14 3 -33q0 -68 -35 -137q-104 -61 -291 -62q-70 35 -98 148h-19 q-92 -147 -301 -148q-121 0 -208 80t-87 225zM90 1270q14 98 81 161.5t187 63.5q80 0 169 -44t141 -44q70 0 96 76q98 0 164 -35q0 -111 -72 -194t-207 -83q-72 0 -163 46.5t-148 46.5q-68 0 -86 -74q-94 0 -162 80zM348 303q0 -66 36 -99.5t91 -33.5q102 0 168 74v192 q-55 12 -113 13q-88 0 -135 -39t-47 -107z" />
<glyph unicode="&#xe4;" horiz-adv-x="1107" d="M51 270q0 164 118 252t300 88q90 0 168 -32v75q0 152 -180 152q-70 0 -171.5 -26.5t-160.5 -59.5q-8 33 -8 72q0 113 41 190q141 53 368 53q201 0 300.5 -84t99.5 -274v-344q0 -98 28 -152q63 0 133 17q2 -14 3 -33q0 -68 -35 -137q-104 -61 -291 -62q-70 35 -98 148h-19 q-92 -147 -301 -148q-121 0 -208 80t-87 225zM74 1333q0 72 46 114t119.5 42t117.5 -41t44 -115q0 -80 -44 -124t-117 -44q-166 0 -166 168zM348 303q0 -66 36 -99.5t91 -33.5q102 0 168 74v192q-55 12 -113 13q-88 0 -135 -39t-47 -107zM621 1333q0 72 46 114t119.5 42 t117.5 -41t44 -115q0 -80 -44 -124t-118 -44q-165 0 -165 168z" />
<glyph unicode="&#xe5;" horiz-adv-x="1107" d="M51 270q0 164 118 252t300 88q90 0 168 -32v75q0 152 -180 152q-70 0 -171.5 -26.5t-160.5 -59.5q-8 33 -8 72q0 113 41 190q141 53 368 53q201 0 300.5 -84t99.5 -274v-344q0 -98 28 -152q63 0 133 17q2 -14 3 -33q0 -68 -35 -137q-104 -61 -291 -62q-70 35 -98 148h-19 q-92 -147 -301 -148q-121 0 -208 80t-87 225zM250 1391q0 102 72.5 164.5t193.5 62.5q117 0 185.5 -59.5t68.5 -167.5q0 -121 -68.5 -183.5t-185.5 -62.5q-266 0 -266 246zM348 303q0 -66 36 -99.5t91 -33.5q102 0 168 74v192q-55 12 -113 13q-88 0 -135 -39t-47 -107z M412 1389q0 -59 25.5 -86t80.5 -27q92 0 92 113q0 100 -92 100q-106 0 -106 -100z" />
<glyph unicode="&#xe6;" horiz-adv-x="1601" d="M51 270q0 162 119 251t299 89q90 0 168 -32v75q0 152 -180 152q-70 0 -171.5 -26.5t-160.5 -59.5q-8 33 -8 72q0 113 41 190q55 20 164.5 36.5t201.5 16.5q229 0 297 -137h19q84 137 286 137q387 0 387 -479q0 -59 -6 -121h-589q25 -242 268 -241q68 0 167 16t154 37 q4 -41 -11 -102.5t-40 -100.5q-147 -78 -348 -78q-131 0 -228.5 49t-140.5 131h-18q-41 -80 -130 -130t-224 -50q-129 0 -222.5 80t-93.5 225zM348 299q0 -63 36 -96t91 -33q111 0 193 90q-35 86 -41 178q-47 10 -105 11q-84 0 -129 -40t-45 -110zM907 623h316 q10 92 -23 160.5t-115 68.5q-76 0 -123 -63.5t-55 -165.5z" />
<glyph unicode="&#xe7;" horiz-adv-x="1034" d="M66 483q0 240 156.5 395.5t402.5 155.5q178 0 323 -76q6 -31 6 -90q0 -127 -39 -223q-47 0 -116.5 18.5t-108.5 41.5v129q-35 12 -69 12q-109 0 -173.5 -82t-64.5 -244q0 -172 72.5 -258t195.5 -86q164 0 299 60q4 -41 -11 -97.5t-40 -93.5q-98 -53 -244 -74l-14 -80 q55 -14 96 -56t41 -101q0 -94 -84 -154.5t-200 -73.5q-70 39 -113 121q57 8 96 36t39 69q0 74 -110 96l59 143q-186 27 -292.5 166t-106.5 346z" />
<glyph unicode="&#xe8;" horiz-adv-x="1073" d="M66 479q0 246 144 400.5t382 154.5q393 0 393 -483q0 -41 -8 -115h-602q12 -119 84.5 -183.5t193.5 -64.5q68 0 167.5 16.5t154.5 37.5q10 -100 -51 -199q-143 -78 -349 -78q-238 0 -373.5 143.5t-135.5 370.5zM256 1503q39 29 129 53.5t156 24.5l274 -385 q-86 -53 -192 -57zM365 625h331q10 90 -24.5 160.5t-118.5 70.5q-78 0 -129 -64.5t-59 -166.5z" />
<glyph unicode="&#xe9;" horiz-adv-x="1073" d="M66 479q0 246 144 400.5t382 154.5q393 0 393 -483q0 -41 -8 -115h-602q12 -119 84.5 -183.5t193.5 -64.5q68 0 167.5 16.5t154.5 37.5q10 -100 -51 -199q-143 -78 -349 -78q-238 0 -373.5 143.5t-135.5 370.5zM365 625h331q10 90 -24.5 160.5t-118.5 70.5 q-78 0 -129 -64.5t-59 -166.5zM367 1225l258 360q53 0 144 -28.5t128 -63.5l-393 -379q-35 14 -76 48t-61 63z" />
<glyph unicode="&#xea;" horiz-adv-x="1073" d="M66 479q0 246 144 400.5t382 154.5q393 0 393 -483q0 -41 -8 -115h-602q12 -119 84.5 -183.5t193.5 -64.5q68 0 167.5 16.5t154.5 37.5q10 -100 -51 -199q-143 -78 -349 -78q-238 0 -373.5 143.5t-135.5 370.5zM188 1284l265 266l213 11l280 -304q-18 -33 -63 -70.5 t-82 -49.5l-250 211l-264 -218q-70 60 -99 154zM365 625h331q10 90 -24.5 160.5t-118.5 70.5q-78 0 -129 -64.5t-59 -166.5z" />
<glyph unicode="&#xeb;" horiz-adv-x="1073" d="M66 479q0 246 144 400.5t382 154.5q393 0 393 -483q0 -41 -8 -115h-602q12 -119 84.5 -183.5t193.5 -64.5q68 0 167.5 16.5t154.5 37.5q10 -100 -51 -199q-143 -78 -349 -78q-238 0 -373.5 143.5t-135.5 370.5zM129 1333q0 72 46 114t120 42t118 -41t44 -115 q0 -80 -44 -124t-118 -44q-166 0 -166 168zM365 625h331q10 90 -24.5 160.5t-118.5 70.5q-78 0 -129 -64.5t-59 -166.5zM676 1333q0 72 46 114t119.5 42t118 -41t44.5 -115q0 -80 -44.5 -124t-117.5 -44q-166 0 -166 168z" />
<glyph unicode="&#xec;" horiz-adv-x="702" d="M4 1503q39 29 129 53.5t156 24.5l274 -385q-86 -53 -192 -57zM51 0q8 92 33 150q37 29 119 57v581h-144q0 113 45 189q88 41 234 41q106 0 162 -23v-798q96 -14 145 -37q10 -37 10 -115q0 -31 -2 -45h-602z" />
<glyph unicode="&#xed;" horiz-adv-x="702" d="M51 0q8 92 33 150q37 29 119 57v581h-144q0 113 45 189q88 41 234 41q106 0 162 -23v-798q96 -14 145 -37q10 -37 10 -115q0 -31 -2 -45h-602zM152 1225l258 360q53 0 144 -28.5t128 -63.5l-393 -379q-35 14 -76 48t-61 63z" />
<glyph unicode="&#xee;" horiz-adv-x="702" d="M-37 1284l264 266l213 11l281 -304q-18 -33 -63.5 -70.5t-82.5 -49.5l-249 211l-265 -218q-69 60 -98 154zM51 0q8 92 33 150q37 29 119 57v581h-144q0 113 45 189q88 41 234 41q106 0 162 -23v-798q96 -14 145 -37q10 -37 10 -115q0 -31 -2 -45h-602z" />
<glyph unicode="&#xef;" horiz-adv-x="702" d="M-63 1333q0 72 46 114t119.5 42t117.5 -41t44 -115q0 -80 -44 -124t-118 -44q-165 0 -165 168zM51 0q8 92 33 150q37 29 119 57v581h-144q0 113 45 189q88 41 234 41q106 0 162 -23v-798q96 -14 145 -37q10 -37 10 -115q0 -31 -2 -45h-602zM442 1333q0 72 46.5 114 t120 42t117.5 -41t44 -115q0 -80 -44 -124t-118 -44q-166 0 -166 168z" />
<glyph unicode="&#xf0;" horiz-adv-x="1200" d="M90 446q0 229 120 380t329 151q137 0 229 -86h31q-57 168 -197 278l-289 -159q-33 92 -37 188l138 78q-66 27 -183 55q8 47 42 99.5t71 85.5q205 -49 340 -115l221 117q23 -20 55.5 -68.5t45.5 -81.5l-152 -82q268 -227 268 -657q0 -311 -147.5 -487.5t-425.5 -176.5 q-217 0 -338 124t-121 357zM391 467q0 -141 53.5 -221t143.5 -80q238 0 237 426q0 59 -6 108q-94 82 -213 82q-102 0 -158.5 -88t-56.5 -227z" />
<glyph unicode="&#xf1;" horiz-adv-x="1335" d="M51 0q8 92 33 150q33 25 119 57v581h-148q4 109 49 189q82 41 209 41q92 0 142 -23v-161h30q100 201 334 200q72 0 126 -14t105.5 -51t78 -115t26.5 -195q0 -236 -16 -460q86 -12 145 -39q10 -41 10 -113q0 -31 -2 -47h-561q8 100 27 150q23 23 96 57v397q0 203 -160 203 q-111 0 -194 -111v-499q90 -14 133 -37q20 -80 8 -160h-590zM254 1270q14 98 80.5 161.5t187.5 63.5q80 0 169 -44t140 -44q70 0 97 76q98 0 164 -35q0 -111 -72 -194t-207 -83q-72 0 -163 46.5t-148 46.5q-68 0 -86 -74q-94 0 -162 80z" />
<glyph unicode="&#xf2;" horiz-adv-x="1161" d="M66 516q0 238 145 378t371 140q236 0 375 -136t139 -382q0 -260 -138.5 -405.5t-375.5 -145.5q-250 0 -383 140.5t-133 410.5zM268 1503q39 29 129 53.5t156 24.5l274 -385q-86 -53 -192 -57zM371 516q0 -164 56 -261t155 -97q207 0 206 358q0 143 -56 235.5t-150 92.5 q-100 0 -155.5 -89t-55.5 -239z" />
<glyph unicode="&#xf3;" horiz-adv-x="1161" d="M66 516q0 238 145 378t371 140q236 0 375 -136t139 -382q0 -260 -138.5 -405.5t-375.5 -145.5q-250 0 -383 140.5t-133 410.5zM371 516q0 -164 56 -261t155 -97q207 0 206 358q0 143 -56 235.5t-150 92.5q-100 0 -155.5 -89t-55.5 -239zM393 1225l258 360 q53 0 144.5 -28.5t128.5 -63.5l-394 -379q-35 14 -76 48t-61 63z" />
<glyph unicode="&#xf4;" horiz-adv-x="1161" d="M66 516q0 238 145 378t371 140q236 0 375 -136t139 -382q0 -260 -138.5 -405.5t-375.5 -145.5q-250 0 -383 140.5t-133 410.5zM213 1284l264 266l213 11l281 -304q-18 -33 -63.5 -70.5t-82.5 -49.5l-250 211l-264 -218q-69 60 -98 154zM371 516q0 -164 56 -261t155 -97 q207 0 206 358q0 143 -56 235.5t-150 92.5q-100 0 -155.5 -89t-55.5 -239z" />
<glyph unicode="&#xf5;" horiz-adv-x="1161" d="M66 516q0 238 145 378t371 140q236 0 375 -136t139 -382q0 -260 -138.5 -405.5t-375.5 -145.5q-250 0 -383 140.5t-133 410.5zM164 1270q14 98 80.5 161.5t187.5 63.5q80 0 169 -44t140 -44q70 0 97 76q98 0 163 -35q0 -111 -71.5 -194t-206.5 -83q-72 0 -163 46.5 t-148 46.5q-68 0 -86 -74q-94 0 -162 80zM371 516q0 -164 56 -261t155 -97q207 0 206 358q0 143 -56 235.5t-150 92.5q-100 0 -155.5 -89t-55.5 -239z" />
<glyph unicode="&#xf6;" horiz-adv-x="1161" d="M66 516q0 238 145 378t371 140q236 0 375 -136t139 -382q0 -260 -138.5 -405.5t-375.5 -145.5q-250 0 -383 140.5t-133 410.5zM150 1333q0 72 46 114t119.5 42t117.5 -41t44 -115q0 -80 -44 -124t-118 -44q-165 0 -165 168zM371 516q0 -164 56 -261t155 -97 q207 0 206 358q0 143 -56 235.5t-150 92.5q-100 0 -155.5 -89t-55.5 -239zM721 1333q0 72 46 114t120 42t118 -41t44 -115q0 -80 -44 -124t-118 -44q-166 0 -166 168z" />
<glyph unicode="&#xf7;" d="M82 444q0 104 33 224h952q14 -61 14 -156q0 -35 -4 -68h-995zM438 164q0 61 41 99t106.5 38t104.5 -36t39 -101q0 -72 -39 -111t-104 -39q-148 0 -148 150zM438 948q0 61 41 99t106.5 38t104.5 -35.5t39 -101.5q0 -72 -39 -110.5t-104 -38.5q-148 -1 -148 149z" />
<glyph unicode="&#xf8;" horiz-adv-x="1206" d="M90 -14l115 147q-111 139 -111 383q0 238 145.5 378t370.5 140q141 0 252 -53l119 152q37 -16 86 -51t72 -62l-123 -156q109 -133 108 -348q0 -260 -138 -405.5t-376 -145.5q-147 0 -262 51l-147 -190q-25 20 -60 71.5t-51 88.5zM389 516q0 -88 17 -147l325 424 q-55 51 -121 51q-104 0 -162.5 -89t-58.5 -239zM481 213q51 -55 129 -55q106 0 161.5 94t55.5 264q0 68 -14 119z" />
<glyph unicode="&#xf9;" horiz-adv-x="1275" d="M8 788q4 109 49 189q88 41 234 41q104 0 160 -23v-598q0 -104 35.5 -153t125.5 -49t172 96v497h-143q4 100 49 189q88 41 234 41q104 0 159 -23v-655q0 -88 17 -152h147q2 -10 2 -34q0 -76 -35 -138q-117 -41 -352 -41q-43 78 -59 179h-19q-100 -188 -313 -189 q-150 0 -237 80t-87 301q0 231 13 442h-152zM285 1503q39 29 129 53.5t155 24.5l275 -385q-86 -53 -193 -57z" />
<glyph unicode="&#xfa;" horiz-adv-x="1275" d="M8 788q4 109 49 189q88 41 234 41q104 0 160 -23v-598q0 -104 35.5 -153t125.5 -49t172 96v497h-143q4 100 49 189q88 41 234 41q104 0 159 -23v-655q0 -88 17 -152h147q2 -10 2 -34q0 -76 -35 -138q-117 -41 -352 -41q-43 78 -59 179h-19q-100 -188 -313 -189 q-150 0 -237 80t-87 301q0 231 13 442h-152zM399 1225l258 360q53 0 144.5 -28.5t128.5 -63.5l-393 -379q-35 14 -76.5 48t-61.5 63z" />
<glyph unicode="&#xfb;" horiz-adv-x="1275" d="M8 788q4 109 49 189q88 41 234 41q104 0 160 -23v-598q0 -104 35.5 -153t125.5 -49t172 96v497h-143q4 100 49 189q88 41 234 41q104 0 159 -23v-655q0 -88 17 -152h147q2 -10 2 -34q0 -76 -35 -138q-117 -41 -352 -41q-43 78 -59 179h-19q-100 -188 -313 -189 q-150 0 -237 80t-87 301q0 231 13 442h-152zM223 1284l264 266l213 11l281 -304q-18 -33 -63.5 -70.5t-81.5 -49.5l-250 211l-264 -218q-70 60 -99 154z" />
<glyph unicode="&#xfc;" horiz-adv-x="1275" d="M8 788q4 109 49 189q88 41 234 41q104 0 160 -23v-598q0 -104 35.5 -153t125.5 -49t172 96v497h-143q4 100 49 189q88 41 234 41q104 0 159 -23v-655q0 -88 17 -152h147q2 -10 2 -34q0 -76 -35 -138q-117 -41 -352 -41q-43 78 -59 179h-19q-100 -188 -313 -189 q-150 0 -237 80t-87 301q0 231 13 442h-152zM150 1333q0 72 46 114t119.5 42t117.5 -41t44 -115q0 -80 -44 -124t-118 -44q-165 0 -165 168zM696 1333q0 72 46 114t120 42t118 -41t44 -115q0 -80 -44 -124t-118 -44q-166 0 -166 168z" />
<glyph unicode="&#xfd;" horiz-adv-x="1155" d="M8 999h539q0 -94 -33 -182q-37 -18 -115 -33q51 -68 80 -139l88 -231q37 -98 47 -191h25q10 92 41 191l63 223q23 84 60 151q-59 18 -86 37q-25 66 -25 174h441q0 -98 -35 -190q-37 -16 -80 -21l-119 -317q-156 -414 -244 -580q-72 -137 -194.5 -248.5t-253.5 -150.5 q-37 37 -72 102.5t-41 114.5q117 31 216.5 101.5t152.5 156.5l-348 817q-47 14 -82 45q-21 64 -25 170zM430 1225l258 360q53 0 144.5 -28.5t128.5 -63.5l-394 -379q-35 14 -76 48t-61 63z" />
<glyph unicode="&#xfe;" horiz-adv-x="1218" d="M6 -485q8 92 33 149q33 25 119 57v1559h-144q4 109 49 188q88 41 232 41q104 0 160 -22v-316q0 -135 -23 -297h31q92 160 282 160q166 0 287 -118.5t121 -370.5q0 -266 -137 -423t-369 -157q-117 0 -192 53v-301q125 -12 207 -43q8 -25 12 -77t0 -82h-668zM449 195 q53 -29 126 -29q266 0 267 340q0 313 -191 313q-70 0 -123 -32.5t-79 -75.5v-516z" />
<glyph unicode="&#xff;" horiz-adv-x="1155" d="M8 999h539q0 -94 -33 -182q-37 -18 -115 -33q51 -68 80 -139l88 -231q37 -98 47 -191h25q10 92 41 191l63 223q23 84 60 151q-59 18 -86 37q-25 66 -25 174h441q0 -98 -35 -190q-37 -16 -80 -21l-119 -317q-156 -414 -244 -580q-72 -137 -194.5 -248.5t-253.5 -150.5 q-37 37 -72 102.5t-41 114.5q117 31 216.5 101.5t152.5 156.5l-348 817q-47 14 -82 45q-21 64 -25 170zM180 1333q0 72 46 114t120 42t118 -41t44 -115q0 -80 -44 -124t-118 -44q-166 0 -166 168zM727 1333q0 72 46 114t120 42t118 -41t44 -115q0 -80 -44 -124t-118 -44 q-166 0 -166 168z" />
<glyph unicode="&#x152;" horiz-adv-x="2154" d="M115 713q0 362 190.5 568t501.5 206q121 0 242 -35h948v-371q-137 0 -232 31q-16 57 -24 148h-379v-424h293q4 43 18 90q96 31 223 30v-419q-133 -12 -225 16q-14 43 -18 94h-291v-450h385q6 90 27 165q96 31 243 31v-393h-970q-106 -33 -238 -33q-326 0 -510 197 t-184 549zM442 739q0 -276 100.5 -422.5t299.5 -146.5q119 0 205 43v1018q-94 55 -224 55q-190 0 -285.5 -141.5t-95.5 -405.5z" />
<glyph unicode="&#x153;" horiz-adv-x="1783" d="M66 494q0 256 141 398t379 142q242 0 350 -135h18q115 135 342 135q399 0 400 -485q0 -57 -6 -119h-619q31 -242 285 -242q70 0 171 16.5t159 37.5q10 -100 -52 -199q-147 -78 -354 -78q-236 0 -342 129h-18q-94 -129 -342 -129q-238 0 -375 139.5t-137 389.5zM371 510 q0 -162 57 -257t158 -95q98 0 150 93t52 249q0 160 -55 252t-155.5 92t-153.5 -90t-53 -244zM1071 618h332q10 94 -25 166t-118 72q-76 0 -125.5 -64.5t-63.5 -173.5z" />
<glyph unicode="&#x178;" horiz-adv-x="1476" d="M35 1452h633q0 -90 -33 -197q-39 -12 -121 -16q45 -35 76 -96l108 -211q55 -106 68 -209h25q12 106 67 209l119 217q31 51 78 92q-63 8 -103 25q-27 84 -26 186h518q0 -115 -29 -197q-47 -12 -106 -16l-422 -690v-332q109 -6 203 -29q10 -33 13 -95t-3 -93h-748 q6 88 49 182q68 23 170 35v311l-401 713q-59 8 -102 25q-25 75 -33 186zM270 1731q0 74 48.5 116.5t126 42.5t123.5 -41t46 -118q0 -82 -46 -126t-124 -44q-174 0 -174 170zM944 1731q0 74 48 116.5t126 42.5t124 -41t46 -118q0 -82 -46 -126t-124 -44q-174 0 -174 170z" />
<glyph unicode="&#x2c6;" horiz-adv-x="968" d="M86 1284l264 266l213 11l281 -304q-18 -33 -63.5 -70.5t-82.5 -49.5l-249 211l-265 -218q-69 60 -98 154z" />
<glyph unicode="&#x2dc;" horiz-adv-x="1003" d="M84 1270q14 98 80.5 161.5t187.5 63.5q80 0 169 -44t141 -44q70 0 96 76q98 0 164 -35q0 -111 -72 -194t-207 -83q-72 0 -163 46.5t-148 46.5q-68 0 -86 -74q-94 0 -162 80z" />
<glyph unicode="&#x2000;" horiz-adv-x="980" />
<glyph unicode="&#x2001;" horiz-adv-x="1964" />
<glyph unicode="&#x2002;" horiz-adv-x="980" />
<glyph unicode="&#x2003;" horiz-adv-x="1964" />
<glyph unicode="&#x2004;" horiz-adv-x="653" />
<glyph unicode="&#x2005;" horiz-adv-x="489" />
<glyph unicode="&#x2006;" horiz-adv-x="325" />
<glyph unicode="&#x2007;" horiz-adv-x="325" />
<glyph unicode="&#x2008;" horiz-adv-x="243" />
<glyph unicode="&#x2009;" horiz-adv-x="391" />
<glyph unicode="&#x200a;" horiz-adv-x="108" />
<glyph unicode="&#x2010;" horiz-adv-x="831" d="M109 446q0 123 36 238h539q16 -66 16 -168q0 -29 -4 -70h-587z" />
<glyph unicode="&#x2011;" horiz-adv-x="831" d="M109 446q0 123 36 238h539q16 -66 16 -168q0 -29 -4 -70h-587z" />
<glyph unicode="&#x2012;" horiz-adv-x="831" d="M109 446q0 123 36 238h539q16 -66 16 -168q0 -29 -4 -70h-587z" />
<glyph unicode="&#x2013;" horiz-adv-x="1024" d="M63 457q0 113 35 225h846q14 -63 14 -158q0 -31 -4 -67h-891z" />
<glyph unicode="&#x2014;" horiz-adv-x="2048" d="M106 457q0 113 35 225h1784q14 -57 14 -158q0 -31 -4 -67h-1829z" />
<glyph unicode="&#x2018;" horiz-adv-x="641" d="M84 899q70 295 238 567q72 31 182 31q-123 -299 -154 -465l123 -28q-10 -39 -42 -98.5t-62 -90.5q-63 6 -152.5 31.5t-132.5 52.5z" />
<glyph unicode="&#x2019;" horiz-adv-x="641" d="M168 1298q35 131 94 195q45 12 109 12q106 0 207 -35q-25 -150 -103 -346t-151 -315q-88 25 -140 76q78 219 103 387z" />
<glyph unicode="&#x201a;" horiz-adv-x="641" d="M125 55q35 131 94 195q47 12 111 12q109 0 209 -35q-25 -150 -105 -350.5t-153 -318.5q-94 27 -144 75q82 233 107 396z" />
<glyph unicode="&#x201c;" horiz-adv-x="1116" d="M78 899q70 295 237 567q70 31 177 31q-123 -299 -154 -465l123 -28q-10 -39 -42 -98.5t-63 -90.5q-63 6 -149 31.5t-129 52.5zM561 899q70 295 238 567q70 31 176 31q-123 -299 -154 -465l123 -28q-10 -39 -42 -98.5t-62 -90.5q-63 6 -149.5 31.5t-129.5 52.5z" />
<glyph unicode="&#x201d;" horiz-adv-x="1116" d="M160 1298q35 131 94 195q45 12 106 12q104 0 205 -35q-25 -150 -102.5 -346t-151.5 -315q-82 23 -135 76q78 219 103 387zM627 1298q35 131 94 195q45 12 106 12q104 0 205 -35q-25 -150 -102.5 -346t-151.5 -315q-82 23 -135 76q78 219 102 387z" />
<glyph unicode="&#x201e;" horiz-adv-x="1116" d="M137 55q35 131 94 195q47 12 107 12q104 0 205 -35q-25 -150 -105 -350.5t-153 -318.5q-82 23 -135 75q82 233 106 396zM621 55q35 131 94 195q47 12 106 12q104 0 205 -35q-25 -150 -104.5 -350.5t-153.5 -318.5q-82 23 -135 75q82 233 106 396z" />
<glyph unicode="&#x2022;" horiz-adv-x="1249" d="M264 508q0 160 104.5 259t270.5 99q162 0 262 -96t100 -262q0 -180 -100 -283.5t-262 -103.5q-182 0 -278.5 100.5t-96.5 286.5z" />
<glyph unicode="&#x2026;" horiz-adv-x="2015" d="M143 174q0 84 54.5 135t140.5 51q84 0 136 -49t52 -137q0 -94 -52 -147.5t-136 -53.5q-195 0 -195 201zM815 174q0 84 54.5 135t140.5 51q84 0 136 -49t52 -137q0 -94 -52 -147.5t-136 -53.5q-195 0 -195 201zM1487 174q0 84 54 135t140 51q84 0 136.5 -49t52.5 -137 q0 -94 -52.5 -147.5t-136.5 -53.5q-194 0 -194 201z" />
<glyph unicode="&#x202f;" horiz-adv-x="391" />
<glyph unicode="&#x2039;" horiz-adv-x="880" d="M160 528q78 186 219 414q164 45 309 45q-121 -248 -194 -459q59 -182 174 -407q-119 -55 -254 -60q-168 262 -254 467z" />
<glyph unicode="&#x203a;" horiz-adv-x="880" d="M201 934q115 55 252 55q166 -260 252 -461q-84 -188 -254 -467q-129 6 -248 70q123 260 170 397q-74 203 -172 406z" />
<glyph unicode="&#x205f;" horiz-adv-x="489" />
<glyph unicode="&#x20ac;" horiz-adv-x="1265" d="M49 573q0 74 25 156h121q55 197 221 309.5t405 112.5q205 0 381 -94q6 -31 6 -78q0 -94 -30 -191q-61 0 -142.5 18.5t-130.5 45.5v86q-43 16 -110 16q-98 0 -172 -56t-105 -169h412q18 -68 6 -156h-887zM53 324q0 74 25 155h856q18 -68 6 -155h-391q80 -150 287 -150 q174 0 342 64q4 -39 -10.5 -98.5t-34.5 -94.5q-186 -86 -373 -86q-199 0 -345.5 98.5t-207.5 266.5h-154z" />
<glyph unicode="&#x2122;" horiz-adv-x="2222" d="M121 1196v256h792v-254q-86 0 -151 12q-14 41 -23 119h-127v-366q76 -4 113 -17q6 -18 7 -59t-3 -64h-434q4 68 29 121q41 12 94 19v366h-125q-10 -78 -19 -110q-59 -23 -153 -23zM1012 823q0 66 20 123q20 6 74 17v348q-74 12 -86 16q-10 66 -2 125h377l114 -365 q23 -72 33 -143h19q14 80 34 143l119 365h352q8 -53 -2 -127q-49 -12 -84 -12v-348q68 -4 101 -17q8 -33 8 -69q0 -35 -6 -56h-357q0 72 19 123q33 10 65 15v368h-18q-8 -68 -57 -201l-111 -315h-209l-106 332q-39 119 -47 184h-19v-368q51 -4 78 -17q18 -57 2 -121h-311z " />
<glyph unicode="&#xe000;" horiz-adv-x="1000" d="M0 1000h1000v-1000h-1000v1000z" />
<glyph unicode="&#xfb01;" horiz-adv-x="1470" d="M43 797q0 111 37 188q47 31 119 47v17q0 240 161.5 358.5t448.5 118.5q236 0 438 -66q8 -39 8 -98q0 -127 -32 -219q-53 0 -144.5 19.5t-126.5 39.5v121q-80 29 -159 29q-141 0 -219 -78t-78 -221v-54h239q25 -98 10 -202h-249v-594q115 -12 182 -43q8 -25 12 -77t0 -83 h-643q8 92 33 150q43 33 119 57v590h-156zM819 0q8 92 33 150q45 35 119 57v581h-144q0 113 45 189q88 41 234 41q106 0 162 -23v-798q96 -14 145 -37q10 -37 10 -115q0 -31 -2 -45h-602z" />
<glyph unicode="&#xfb02;" horiz-adv-x="1468" d="M43 797q0 111 37 188q47 31 119 47v17q0 236 163.5 356.5t448.5 120.5q238 0 455 -74v-1255q96 -14 145 -37q10 -37 10 -115q0 -31 -2 -45h-602q8 92 33 150q33 25 119 57v1106q-84 35 -168 35q-143 0 -224 -77t-81 -218v-54h239q25 -98 10 -202h-249v-594 q115 -12 182 -43q8 -25 12 -77t0 -83h-643q8 92 33 150q43 33 119 57v590h-156z" />
<glyph unicode="&#xfb03;" horiz-adv-x="2297" d="M43 797q0 111 37 188q47 31 119 47v35q0 221 118.5 329.5t331.5 108.5q168 0 307 -53q8 -35 9 -94q0 -98 -33 -219q-139 8 -227 51v121q-33 16 -74 16q-135 0 -135 -233v-95h530v50q0 240 162 358.5t448 118.5q236 0 439 -66q8 -39 8 -98q0 -127 -33 -219 q-53 0 -144 19.5t-126 39.5v121q-80 29 -160 29q-141 0 -219 -78t-78 -221v-54h240q25 -98 10 -202h-250v-594q115 -12 182 -43q8 -25 12.5 -77t0.5 -83h-644q8 92 33 150q43 33 119 57v590h-530v-594q125 -12 194 -43q8 -25 12.5 -77t-0.5 -83h-655q8 92 33 150 q43 33 119 57v590h-156zM1647 0q8 92 32 150q45 35 119 57v581h-143q0 113 45 189q88 41 233 41q106 0 162 -23v-798q96 -14 146 -37q10 -45 10 -117q0 -29 -2 -43h-602z" />
<glyph unicode="&#xfb04;" horiz-adv-x="2295" d="M43 797q0 111 37 188q47 31 119 47v35q0 221 118.5 329.5t331.5 108.5q168 0 307 -53q8 -35 9 -94q0 -98 -33 -219q-139 8 -227 51v121q-33 16 -74 16q-135 0 -135 -233v-95h530v50q0 236 164 356.5t448 120.5q238 0 455 -74v-1255q96 -14 145 -37q10 -45 11 -117 q0 -29 -2 -43h-602q8 92 32 150q33 25 119 57v1106q-84 35 -168 35q-143 0 -224 -77t-81 -218v-54h240q25 -98 10 -202h-250v-594q115 -12 182 -43q8 -25 12.5 -77t0.5 -83h-644q8 92 33 150q43 33 119 57v590h-530v-594q125 -12 194 -43q8 -25 12.5 -77t-0.5 -83h-655 q8 92 33 150q43 33 119 57v590h-156z" />
</font>
</defs>
</svg>
